<svg width="409" height="520" viewBox="0 0 409 520" fill="none" xmlns="http://www.w3.org/2000/svg">
<ellipse cx="204.5" cy="485" rx="204.5" ry="35" fill="#D9D9D9" fill-opacity="0.4"/>
<path d="M271.868 384.202C262.448 398.292 251.976 406.954 249.352 404.242C246.922 401.752 249.658 398.63 250.106 398.146C249.548 398.651 245.783 401.957 244.171 400.181C242.559 398.404 245.067 394.609 245.392 394.108C244.915 394.525 240.69 398.16 238.942 395.844C237.076 393.382 244.164 386.942 250.494 377.223C254.778 370.639 259.25 359.654 261.68 353.249C262.847 350.21 263.545 348.207 263.545 348.207L284.353 355.522C284.353 355.522 284.026 357.116 283.227 359.759C281.635 365.117 278.175 374.768 271.868 384.202Z" fill="#844419"/>
<path opacity="0.39" d="M283.227 359.76C275.109 361.428 265.759 355.996 261.68 353.249C262.847 350.21 263.545 348.207 263.545 348.207L284.353 355.522C284.353 355.522 284.028 357.118 283.227 359.76Z" fill="#844419"/>
<path d="M285.198 356.805C285.198 356.805 276.957 356.68 268.296 352.557C266.09 351.503 263.87 350.201 261.738 348.574C261.738 348.574 262.045 346.371 262.878 343.351C264.74 336.518 269.246 325.512 278.736 326.594C279.2 326.65 279.682 326.735 280.166 326.838C289.912 329.084 288.375 343.186 286.651 351.228C285.932 354.529 285.198 356.805 285.198 356.805Z" fill="#B0ADEA"/>
<path d="M285.197 356.805C285.197 356.805 272.253 356.615 261.736 348.574C261.736 348.574 262.043 346.371 262.876 343.351C266.21 345.524 275.748 351.055 286.649 351.228C285.932 354.529 285.197 356.805 285.197 356.805Z" fill="#8888E2"/>
<path opacity="0.45" d="M268.296 352.557C266.09 351.503 263.87 350.201 261.738 348.574C261.738 348.574 262.045 346.371 262.878 343.351C264.74 336.518 269.246 325.512 278.736 326.594C276.084 329.277 271.24 336.182 268.296 352.557Z" fill="#B0ADEA"/>
<path d="M291.912 421.679C291.956 421.708 291.81 422.565 291.52 424.032C291.026 426.632 290.096 431.107 289.036 436.194C288.004 441.076 286.841 446.51 285.81 451.363C284.662 456.797 283.659 461.505 283.194 463.873C282.99 464.891 282.874 465.472 282.888 465.501C282.99 465.791 262.067 462.624 262.067 462.624L261.762 450.158L261.18 426.184L260.976 418.105C260.979 418.104 291.622 421.475 291.912 421.679Z" fill="#844419"/>
<path opacity="0.28" d="M291.913 421.678C291.956 421.707 291.811 422.564 291.52 424.031C291.026 426.632 290.097 431.107 289.036 436.193C288.004 441.075 286.842 446.509 285.81 451.362C284.663 456.796 283.659 461.504 283.195 463.873L277.484 463.64C277.484 463.64 281.102 446.901 282.148 440.523C283.179 434.144 280.593 429.669 270.757 428.289C266.615 427.708 263.448 426.908 261.182 426.182L260.978 418.104C260.978 418.104 291.622 421.474 291.913 421.678Z" fill="#844419"/>
<path d="M285.81 451.363C284.168 459.122 282.847 465.383 282.89 465.501C282.919 465.603 280.347 465.283 276.991 464.803C270.83 463.946 262.069 462.624 262.069 462.624L261.763 450.158L280.288 451.088L285.81 451.363Z" fill="#B0ADEA"/>
<path opacity="0.45" d="M285.81 451.363C284.168 459.122 282.846 465.384 282.89 465.501C282.919 465.603 280.346 465.284 276.991 464.803L280.289 451.087L285.81 451.363Z" fill="#B0ADEA"/>
<path d="M262.058 462.736C262.058 462.736 248.194 475.23 249.564 478.887C250.935 482.544 282.813 478.429 284.15 478.125C285.827 477.744 285.598 476.219 285.446 474.011C285.294 471.802 284.455 461.67 283.922 461.747C283.388 461.822 273.714 464.64 262.058 462.736Z" fill="#6060BF"/>
<path d="M259.468 472.984C259.168 472.984 258.886 472.797 258.782 472.497C257.966 470.157 256.027 469.254 255.474 469.098C255.275 469.102 255.071 469.039 254.919 468.888C254.707 468.678 254.641 468.347 254.76 468.072C254.877 467.798 255.18 467.635 255.486 467.629C256.186 467.656 259.021 468.771 260.153 472.019C260.287 472.397 260.086 472.812 259.708 472.945C259.628 472.971 259.547 472.984 259.468 472.984Z" fill="#35359B"/>
<path d="M262.439 470.319C262.139 470.319 261.857 470.132 261.754 469.831C260.937 467.492 258.998 466.589 258.446 466.433C258.236 466.442 258.041 466.374 257.89 466.223C257.678 466.011 257.612 465.682 257.731 465.407C257.85 465.133 258.16 464.98 258.457 464.964C259.157 464.991 261.992 466.106 263.124 469.354C263.258 469.732 263.057 470.147 262.679 470.28C262.6 470.306 262.519 470.319 262.439 470.319Z" fill="#35359B"/>
<path d="M318.181 419.584L317.367 428.477L315.072 453.526L314.026 465.003L293.495 464.902L291.781 453.873L289.035 436.192L288.555 433.097L287.247 424.742L291.52 424.03L318.181 419.584Z" fill="#844419"/>
<path opacity="0.14" d="M318.181 419.584L317.367 428.477C307.661 433.301 294.177 433.33 288.555 433.097L287.247 424.742L291.52 424.03L318.181 419.584Z" fill="#844419"/>
<path d="M315.072 453.526L314.025 465.003L308.358 464.974L293.494 464.902L291.78 453.873L308.736 453.626L315.072 453.526Z" fill="#B0ADEA"/>
<path opacity="0.45" d="M315.072 453.526L314.026 465.005L308.359 464.976C308.418 462.491 308.563 456.839 308.738 453.628L315.072 453.526Z" fill="#B0ADEA"/>
<path d="M292.804 462.733C292.804 462.733 278.938 475.226 280.31 478.883C281.681 482.54 313.559 478.426 314.896 478.121C316.573 477.74 316.344 476.216 316.192 474.008C316.039 471.798 315.201 461.666 314.667 461.743C314.136 461.818 304.46 464.637 292.804 462.733Z" fill="#6767C9"/>
<path d="M290.213 472.98C289.913 472.98 289.631 472.793 289.527 472.493C288.711 470.154 286.772 469.251 286.219 469.094C286.02 469.099 285.816 469.036 285.664 468.885C285.45 468.674 285.386 468.343 285.505 468.068C285.622 467.795 285.925 467.632 286.229 467.626C286.93 467.652 289.765 468.768 290.897 472.016C291.031 472.394 290.83 472.809 290.451 472.941C290.373 472.968 290.292 472.98 290.213 472.98Z" fill="#35359B"/>
<path d="M293.185 470.315C292.884 470.315 292.603 470.128 292.499 469.828C291.684 467.489 289.744 466.586 289.191 466.429C288.982 466.439 288.786 466.371 288.636 466.22C288.424 466.008 288.358 465.678 288.477 465.403C288.595 465.13 288.905 464.976 289.202 464.961C289.903 464.987 292.738 466.103 293.87 469.351C294.003 469.729 293.803 470.144 293.425 470.276C293.345 470.303 293.264 470.315 293.185 470.315Z" fill="#35359B"/>
<path d="M287.247 424.742C287.247 424.742 282.903 424.989 277.701 424.8C272.05 424.597 265.365 423.885 262.067 421.779C255.731 417.71 256.124 416.621 256.415 414.237C256.633 412.537 259.873 394.956 261.704 385.004C262.459 381.008 262.969 378.248 262.969 378.248L276.844 382.419L287.247 424.742Z" fill="#9C49A5"/>
<path opacity="0.41" d="M287.247 424.742C287.247 424.742 282.903 424.989 277.701 424.8C274.113 412.262 266.934 387.039 266.934 386.413C266.934 385.861 263.81 385.309 261.704 385.004C262.459 381.008 262.969 378.248 262.969 378.248L276.844 382.419L287.247 424.742Z" fill="#AC5FB2"/>
<path d="M256.495 412.419C257.124 412.105 266.789 418.55 284.948 419.243C305.322 420.022 287.248 424.741 287.248 424.741C287.248 424.741 279.975 427.456 267.83 424.332C255.685 421.21 254.875 418.78 254.76 418.086C254.644 417.394 255.569 412.883 256.495 412.419Z" fill="#74287F"/>
<path d="M317.686 423.462C312.833 426.237 297.563 427.821 291.619 428.111C285.662 428.417 285.066 426.237 284.47 424.74C284.019 423.622 275.491 398.95 271.336 386.963C269.999 383.084 269.112 380.526 269.112 380.526L308.764 378.347C308.764 378.347 310.187 382.648 312.062 388.314V388.328C315.404 398.484 320.155 412.999 320.664 415.034C321.464 418.203 322.553 420.687 317.686 423.462Z" fill="#AC5FB2"/>
<path opacity="0.41" d="M312.063 388.314V388.328C310.102 397.452 307.457 407.216 305.104 407.39C300.658 407.739 303.229 397.321 303.564 392.54C303.898 387.775 303.229 387.426 290.938 387.601C282.961 387.717 275.638 387.397 271.337 386.961C269.999 383.083 269.113 380.524 269.113 380.524L308.765 378.345C308.765 378.348 310.188 382.648 312.063 388.314Z" fill="#AC5FB2"/>
<path d="M283.443 423.292C284.314 422.711 292.835 424.807 306.229 421.557C315.418 419.328 320.919 416.468 321.497 416.584C322.074 416.7 323.231 420.632 322.538 421.211C321.844 421.789 317.68 426.648 301.372 428.151C285.064 429.654 285.526 428.729 284.716 428.383C283.907 428.034 282.749 423.754 283.443 423.292Z" fill="#8A3493"/>
<path d="M308.476 380.631C285.664 388.463 262.17 380.922 261.182 380.733C260.194 380.529 259.99 369.531 264.451 352.574C268.912 335.618 276.844 325.912 276.844 325.912L276.946 325.883L280.607 325.01C285.068 327.189 296.677 322.236 297.069 322.337C307.719 324.996 312.586 328.309 314.955 331.201C317.033 333.758 317.163 336.011 317.585 337.201C318.486 339.789 308.476 380.631 308.476 380.631Z" fill="#A6A1D5"/>
<path opacity="0.45" d="M314.955 331.201L307.633 332.987C307.633 332.987 294.367 328.644 286.288 328.018C283.876 327.83 280.331 327.132 276.946 325.883L280.607 325.01C285.068 327.189 296.677 322.236 297.069 322.337C307.719 324.998 312.588 328.31 314.955 331.201Z" fill="#B0ADEA"/>
<path d="M298.363 317.485L298.275 322.207L298.261 323.123C298.261 323.123 295.384 329.966 287.058 330.562C278.733 331.159 276.844 325.913 276.844 325.913L276.873 324.649L277.048 318.168L298.363 317.485Z" fill="#844419"/>
<path opacity="0.39" d="M298.363 317.485L298.275 322.207C290.284 325.592 281.972 325.331 276.874 324.649L277.048 318.168L298.363 317.485Z" fill="#844419"/>
<path d="M328.875 383.799C327.379 400.682 322.351 413.308 318.749 412.189C315.421 411.171 316.321 407.118 316.482 406.479C316.235 407.191 314.521 411.899 312.254 411.114C309.987 410.33 310.365 405.796 310.409 405.2C310.191 405.796 308.23 411.012 305.585 409.82C302.767 408.556 305.891 399.504 306.777 387.939C307.373 380.107 306.022 368.324 305.077 361.539C304.641 358.313 304.292 356.221 304.292 356.221L326.058 352.646C326.058 352.646 326.538 354.201 327.104 356.903C328.279 362.368 329.877 372.494 328.875 383.799Z" fill="#844419"/>
<path opacity="0.39" d="M327.102 356.905C320.782 362.266 309.971 361.99 305.075 361.541C304.639 358.315 304.291 356.223 304.291 356.223L326.056 352.648C326.056 352.648 326.535 354.203 327.102 356.905Z" fill="#844419"/>
<path d="M327.412 353.364C327.412 353.364 320.124 357.212 310.547 357.754C308.104 357.889 305.532 357.812 302.88 357.41C302.88 357.41 302.092 355.33 301.372 352.281C299.725 345.394 298.392 333.576 307.236 329.968C307.67 329.795 308.133 329.637 308.609 329.494C318.236 326.785 323.659 339.892 326.009 347.775C326.964 351.017 327.412 353.364 327.412 353.364Z" fill="#B0ADEA"/>
<path d="M327.412 353.364C327.412 353.364 315.965 359.414 302.88 357.411C302.88 357.411 302.092 355.331 301.372 352.281C305.342 352.587 316.363 352.858 326.008 347.777C326.964 351.018 327.412 353.364 327.412 353.364Z" fill="#8888E2"/>
<path opacity="0.45" d="M310.547 357.755C308.104 357.891 305.532 357.814 302.88 357.412C302.88 357.412 302.092 355.332 301.372 352.282C299.725 345.396 298.392 333.577 307.236 329.969C306.197 333.595 305.265 341.977 310.547 357.755Z" fill="#B0ADEA"/>
<path d="M338.164 284.863C339.205 284.863 355.712 289.77 361.214 271.329C366.716 252.889 351.696 243.669 351.696 243.669C351.696 243.669 370.732 227.162 357.496 206.64C344.261 186.118 327.308 197.122 327.308 197.122C327.308 197.122 321.658 179.277 303.067 175.41C284.478 171.544 274.068 193.256 274.068 193.256C274.068 193.256 258.751 179.127 239.27 193.553C219.789 207.978 231.537 222.999 231.537 222.999C231.537 222.999 221.871 225.229 219.045 235.491C216.22 245.751 224.102 253.039 224.102 253.039C224.102 253.039 213.84 278.766 242.988 280.699C242.988 280.699 253.398 243.224 280.017 240.398C306.636 237.573 317.642 289.325 317.642 288.878C317.642 288.432 338.164 284.863 338.164 284.863Z" fill="#190B03"/>
<path d="M352.029 244.314L351.362 243.023C351.454 242.976 360.595 238.147 363.588 228.376C365.584 221.86 364.45 214.619 360.221 206.851C356.222 199.506 351.162 195.198 345.182 194.042C335.161 192.099 325.815 199.717 325.721 199.794L324.796 198.675C325.198 198.342 334.769 190.561 345.447 192.614C351.88 193.855 357.28 198.411 361.498 206.157C365.926 214.286 367.094 221.91 364.972 228.818C361.791 239.178 352.426 244.109 352.029 244.314Z" fill="#190B03"/>
<path d="M225.62 254.026C225.493 253.956 212.941 246.862 216.751 234.373C220.592 221.785 228.929 221.737 232.069 221.719C232.486 221.716 233.006 221.714 233.143 221.67L233.928 222.882C233.554 223.164 233.027 223.167 232.077 223.172C228.963 223.19 221.67 223.232 218.141 234.798C214.669 246.172 226.203 252.689 226.319 252.753L225.62 254.026Z" fill="#190B03"/>
<path d="M243.137 258.392C243.137 258.839 241.798 271.33 240.609 279.956C239.42 288.582 239.42 309.847 264.553 317.579C289.685 325.312 313.032 319.662 320.765 299.437C328.498 279.212 323.59 252.89 311.694 241.29C299.798 229.691 276.152 226.419 262.767 235.044C249.382 243.67 243.137 258.392 243.137 258.392Z" fill="#844419"/>
<path d="M321.508 284.565C321.508 284.565 313.775 245.9 292.955 240.993C272.136 236.085 254.439 242.778 243.137 258.391C243.137 258.391 248.192 231.178 273.622 228.351C299.052 225.526 318.236 236.084 325.077 257.498C331.917 278.912 328.348 283.225 328.348 283.225L321.508 284.565Z" fill="#190B03"/>
<path d="M277.202 297.188C275.813 297.188 271.338 297.054 269.923 295.376C269.527 294.907 269.377 294.346 269.488 293.752C270.074 290.582 276.231 290.392 276.931 290.381C277.364 290.389 277.661 290.694 277.67 291.096C277.675 291.497 277.356 291.827 276.955 291.834C275.113 291.865 271.209 292.44 270.917 294.015C270.887 294.182 270.921 294.304 271.035 294.44C271.824 295.376 275.245 295.769 277.431 295.734C277.434 295.734 277.437 295.734 277.439 295.734C277.837 295.734 278.16 296.053 278.167 296.451C278.171 296.852 277.85 297.183 277.451 297.187C277.384 297.187 277.301 297.188 277.202 297.188Z" fill="#3A1906"/>
<path d="M276.305 307.183C275.781 307.079 275.31 306.943 274.917 306.797C274.542 306.656 274.352 306.24 274.492 305.864C274.631 305.488 275.044 305.296 275.426 305.435C275.635 305.513 280.596 307.294 282.551 303.524C282.737 303.17 283.168 303.027 283.531 303.214C283.888 303.399 284.026 303.838 283.842 304.194C282.166 307.423 278.703 307.656 276.305 307.183Z" fill="#472108"/>
<path d="M307.732 281.711C307.732 288.525 302.298 294.061 295.585 294.061C292.693 294.061 290.034 293.043 287.957 291.329C285.196 289.062 283.424 285.589 283.424 281.711C283.424 276.044 287.173 271.264 292.301 269.811C293.346 269.506 294.451 269.347 295.585 269.347C302.298 269.347 307.732 274.882 307.732 281.711Z" fill="#F9EEE8"/>
<path d="M296.238 281.552C295.454 287.16 291.226 290.284 287.957 291.33C285.196 289.064 283.424 285.591 283.424 281.712C283.424 276.045 287.173 271.266 292.301 269.813C294.262 271.904 297.008 275.929 296.238 281.552Z" fill="#472108"/>
<path d="M301.628 260.474C301.277 262.487 295.581 262.357 292.507 259.88C289.433 257.401 290.676 254.706 294.589 255.221C298.357 255.715 302.322 256.508 301.628 260.474Z" fill="#2D1102"/>
<path d="M269.445 281.697C269.445 274.882 264.011 269.347 257.298 269.347C254.406 269.347 251.747 270.364 249.67 272.078C246.91 274.345 245.137 277.818 245.137 281.697C245.137 287.364 248.885 292.143 254.014 293.596C255.06 293.901 256.164 294.061 257.298 294.061C264.011 294.062 269.445 288.526 269.445 281.697Z" fill="#F9EEE8"/>
<path d="M257.952 281.857C257.167 276.249 252.94 273.125 249.671 272.078C246.91 274.345 245.137 277.818 245.137 281.697C245.137 287.363 248.885 292.143 254.014 293.596C255.975 291.505 258.722 287.479 257.952 281.857Z" fill="#472108"/>
<path d="M251.239 260.474C251.591 262.487 257.287 262.357 260.359 259.88C263.433 257.401 262.191 254.706 258.277 255.221C254.51 255.715 250.544 256.508 251.239 260.474Z" fill="#2D1102"/>
<path d="M334.889 283.37C331.315 286.058 325.822 279.956 325.822 279.956C321.506 249.923 310.799 235.786 285.968 232.821C261.137 229.843 244.022 253.032 244.022 253.032C244.545 250.242 245.461 247.583 246.695 245.099C257.186 224.162 291.17 215.022 313.633 232.967C330.4 246.363 334.264 264.336 334.977 274.812C335.311 280.014 334.889 283.37 334.889 283.37Z" fill="#B0ADEA"/>
<path opacity="0.47" d="M334.89 283.37C331.315 286.058 325.822 279.956 325.822 279.956C321.507 249.922 310.8 235.786 285.968 232.821C261.137 229.843 244.022 253.032 244.022 253.032C244.546 250.242 245.461 247.583 246.695 245.099C252.1 238.43 262.532 229.45 279.445 229.61C306.309 229.886 316.637 240.801 323.179 254.18C330.402 268.95 326.854 274.491 334.976 274.812C335.311 280.014 334.89 283.37 334.89 283.37Z" fill="#B0ADEA"/>
<path d="M283.977 225.485L282.989 226.095L279.328 228.347C279.328 228.347 274.461 225.978 267.531 219.338C262.983 214.979 264.174 208.718 267.603 206.175C269.405 204.824 271.831 204.504 274.359 206.044C281.697 210.504 283.977 225.485 283.977 225.485Z" fill="#8D8DDB"/>
<path opacity="0.47" d="M282.989 226.096L279.328 228.347C279.328 228.347 274.461 225.979 267.531 219.339C262.983 214.98 264.174 208.718 267.603 206.175C267.574 210.099 269.462 217.188 280.941 224.628C281.71 225.122 282.394 225.616 282.989 226.096Z" fill="#B0ADEA"/>
<path d="M298.855 214.471C293.987 224.685 286.664 228.158 286.664 228.158L285.821 227.766L282.189 226.08C282.189 226.08 282.495 218.742 287.158 209.806C289.497 205.317 293.666 203.951 296.617 204.982C299.539 206 301.268 209.386 298.855 214.471Z" fill="#8D8DDB"/>
<path opacity="0.47" d="M296.618 204.984C293.175 207.949 287.929 214.269 285.823 227.766L282.191 226.08C282.191 226.08 282.497 218.743 287.16 209.807C289.498 205.318 293.668 203.953 296.618 204.984Z" fill="#B0ADEA"/>
<path d="M288.147 229.189C288.147 229.64 288.075 230.061 287.944 230.467C287.275 232.618 284.936 234.201 282.146 234.201C278.833 234.201 276.145 231.964 276.145 229.189C276.145 227.649 276.988 226.253 278.31 225.353C279.355 224.612 280.692 224.19 282.146 224.19C285.459 224.19 288.147 226.428 288.147 229.189Z" fill="#8D8DDB"/>
<path opacity="0.47" d="M287.943 230.467C287.275 232.618 284.936 234.201 282.145 234.201C278.833 234.201 276.145 231.963 276.145 229.189C276.145 227.649 276.988 226.253 278.31 225.353C279.051 227.939 281.434 230.526 287.943 230.467Z" fill="#B0ADEA"/>
<path d="M321.082 283.206C320.772 283.206 320.486 283.007 320.388 282.697C312.374 257.017 299.802 243.098 280.823 238.894C280.431 238.806 280.185 238.419 280.272 238.027C280.36 237.636 280.733 237.394 281.139 237.475C300.676 241.804 313.589 256.036 321.776 282.263C321.894 282.646 321.681 283.053 321.3 283.173C321.227 283.195 321.153 283.206 321.082 283.206Z" fill="#190B03"/>
<path d="M320.169 284.121C320.169 284.121 332.215 271.778 339.8 283.229C347.384 294.68 334 313.269 316.155 301.521L320.169 284.121Z" fill="#844419"/>
<path d="M324.95 299.22C321.942 299.22 319.479 298.705 319.273 298.661C318.881 298.575 318.631 298.19 318.717 297.798C318.8 297.406 319.171 297.152 319.58 297.24C319.676 297.261 329.327 299.275 333.363 295.216C335.066 293.505 335.544 290.873 334.779 287.399C334.692 287.007 334.941 286.619 335.331 286.534C335.729 286.45 336.11 286.696 336.197 287.087C337.075 291.077 336.468 294.158 334.392 296.242C332.014 298.63 328.168 299.22 324.95 299.22Z" fill="#562707"/>
<path d="M191.191 477.986C191.191 477.986 191.096 478.328 190.944 478.861C190.488 480.325 189.461 483.177 188.358 483.444C186.856 483.824 182.881 484.775 174.571 483.082C172.403 482.645 170.407 481.751 168.6 480.667C163.466 477.606 159.872 472.909 158.331 471.939C156.259 470.608 155.498 473.631 151.904 471.559C148.329 469.486 144.354 466.272 145.876 460.795C145.876 460.795 146.085 460.833 146.465 460.91C148.633 461.252 156.43 462.64 162.857 464.561C167.744 466.025 178.108 471.197 184.859 474.677C188.567 476.579 191.191 477.986 191.191 477.986Z" fill="#457492"/>
<path d="M99.7802 479.868C99.7802 481.751 97.137 483.633 94.4937 484.394C92.7252 484.907 86.8872 484.983 81.4106 484.261C78.7103 483.88 76.105 483.329 74.1083 482.511C68.0612 480.058 68.8218 477.415 69.012 473.44C69.012 473.44 72.9103 473.536 77.8545 473.707C86.2787 473.973 97.7455 474.41 98.4681 474.772C99.1337 475.095 99.4569 476.122 99.6281 477.301C99.7612 478.156 99.7802 479.088 99.7802 479.868Z" fill="#457492"/>
<path d="M119.233 372.788L118.073 377.656L102.784 441.608L101.719 446.077L101.681 446.248C101.681 446.248 96.0146 449.842 91.1084 448.511C89.492 448.093 88.2179 447.142 87.2671 446.077C85.2514 443.89 84.4907 441.152 84.4907 441.152L90.3477 366.361C90.3477 366.361 101.872 368.833 106.397 370.335C110.923 371.838 119.233 372.788 119.233 372.788Z" fill="#CD6355"/>
<path opacity="0.25" d="M119.233 372.788L118.073 377.656C109.212 378.874 101.891 372.712 99.6466 384.236C97.2126 396.844 91.3176 430.978 91.3176 433.811C91.3176 436.664 99.0381 437.063 101.282 439.307C101.929 439.954 102.423 440.771 102.784 441.608C103.716 443.662 103.925 445.811 103.925 445.811C103.925 445.811 103.089 445.944 101.719 446.077C98.5437 446.4 92.4775 446.837 87.2671 446.077C85.2514 443.89 84.4907 441.152 84.4907 441.152L90.3477 366.361C90.3477 366.361 101.872 368.833 106.397 370.335C110.923 371.838 119.233 372.788 119.233 372.788Z" fill="#701527"/>
<path d="M175.332 368.452L175.294 368.87L174.856 373.073L167.896 439.629L167.022 447.958C167.022 447.958 166.261 451.343 160.784 451.533C155.308 451.724 153.425 449.08 153.425 449.08C153.425 449.08 146.237 372.978 146.237 372.217L175.141 368.471L175.332 368.452Z" fill="#CD6355"/>
<path opacity="0.25" d="M175.845 372.447C175.522 372.675 175.179 372.884 174.856 373.074C165.728 378.399 155.117 373.607 154.927 383.229C154.718 393.174 155.327 437.881 156.544 440.715C157.761 443.567 159.187 444.176 159.187 444.176C159.187 444.176 161.222 438.281 163.256 437.672C164.435 437.311 166.432 438.528 167.896 439.631L167.022 447.96C167.022 447.96 166.261 451.345 160.784 451.535C155.308 451.725 153.425 449.082 153.425 449.082C153.425 449.082 146.237 372.979 146.237 372.218L175.141 368.472C175.198 368.605 175.256 368.738 175.294 368.871C175.94 370.716 175.845 372.447 175.845 372.447Z" fill="#701527"/>
<path d="M101.681 457.772C100.35 467.774 102.613 470.798 100.35 476.084C100.16 476.522 99.932 476.921 99.6277 477.301C96.414 481.504 87.1531 482.169 78.824 480.439C78.5958 480.382 78.3486 480.344 78.1394 480.287C69.7152 478.271 69.0116 473.441 69.0116 473.441C69.0116 473.441 68.2509 469.486 68.6313 466.842C69.0116 464.199 78.6338 456.079 80.1551 450.222C81.6574 444.365 81.8475 442.102 82.7983 440.771C83.7301 439.459 85.0613 438.889 85.0613 438.889C85.0613 438.889 96.7753 438.698 100.16 440.01C103.564 441.342 103.564 441.912 104.325 444.365C104.458 444.803 104.496 445.183 104.477 445.582C104.382 447.427 102.765 449.519 101.681 457.772Z" fill="#457492"/>
<path d="M192.142 477.605C191.781 477.985 191.401 478.423 190.944 478.86C189.233 480.515 186.704 482.207 182.501 481.751C176.34 481.085 171.3 481.18 166.28 474.658C166.261 474.658 166.242 474.658 166.242 474.639C166.204 474.562 166.128 474.467 166.071 474.391C160.975 467.584 156.068 467.393 153.045 467.203C150.097 467.032 146.979 464.693 146.465 460.909C146.446 460.814 146.446 460.7 146.427 460.605C146.066 456.63 146.313 448.263 150.402 444.175C151.714 442.843 152.664 442.102 152.664 442.102C152.664 442.102 153.045 445.125 153.425 446.438C153.805 447.769 160.214 451.344 160.214 451.344C160.214 451.344 160.024 443.794 163.428 441.531C166.832 439.268 169.855 439.459 170.787 440.771C171.738 442.102 171.548 446.628 173.811 450.963C176.092 455.318 186.095 463.438 190.05 466.081C194.025 468.725 193.835 475.703 192.142 477.605Z" fill="#457492"/>
<path d="M179.972 357.917C179.819 359.058 179.648 360.18 179.477 361.264C169.57 364.307 160.651 365.334 153.539 365.467C142.89 365.676 136.234 363.908 136.234 363.908L135.949 362.234L135.55 359.857C135.55 359.8 135.531 359.762 135.531 359.705L133.591 348.048L129.16 365.657C129.16 365.657 129.16 365.657 129.141 365.657L128.875 366.741C128.875 366.741 115.925 369.422 101.016 365.714C99.6281 365.353 98.2019 364.953 96.7757 364.478C80.1555 359.001 75.991 349.379 75.991 349.379L76.1051 349.037L94.6839 289.516L176.872 286.15L177.975 286.112C178.165 286.797 178.355 287.538 178.526 288.337C178.64 288.832 178.755 289.364 178.869 289.916C181.987 305.262 183.033 335.688 179.972 357.917Z" fill="#457492"/>
<path d="M100.357 321.611C100.357 321.611 107.91 324.445 114.142 318.778C120.373 313.113 121.318 294.606 121.318 294.606L126.795 294.795C126.795 294.795 125.095 313.491 119.052 321.421C113.008 329.353 99.79 325.765 99.79 325.765L100.357 321.611Z" fill="#325E7A"/>
<path d="M86.1909 360.515C86.1909 360.515 93.1775 341.063 97.7109 324.445C102.242 307.827 104.321 289.887 104.321 289.887C104.321 289.887 108.664 289.509 108.664 290.075C108.664 290.642 106.021 312.17 101.678 326.522C97.3344 340.873 89.591 362.968 89.591 362.968L86.1909 360.515Z" fill="#325E7A"/>
<path d="M127.544 376.192C124.748 376.667 112.026 376.743 100.445 373.568C98.0114 372.902 95.6153 372.085 93.3714 371.096C80.5355 365.429 71.4648 360.523 71.6549 356.929C71.8451 353.335 73.1572 347.478 75.0588 348.048C75.0588 348.048 75.4201 348.409 76.1047 349.037C78.8811 351.604 87.0771 358.507 98.4678 362.405C100.56 363.109 102.651 363.679 104.705 364.117C115.297 366.342 125.167 365.391 129.141 365.657C129.16 365.657 129.16 365.657 129.16 365.657C130.168 365.733 130.776 365.866 130.947 366.17C131.898 367.882 130.947 375.622 127.544 376.192Z" fill="#325E7A"/>
<path opacity="0.26" d="M179.306 289.555C179.173 289.688 179.02 289.802 178.868 289.916C168.504 298.721 139.733 306.422 129.312 306.612C118.758 306.822 100.065 339.529 99.0383 348.885C98.1445 357.195 103.526 362.957 104.705 364.117C104.8 364.212 104.876 364.269 104.914 364.307C104.629 364.231 102.176 363.452 101.016 365.715C100.883 365.962 100.769 366.228 100.674 366.551C99.913 369.138 97.536 371.401 100.445 373.568C98.0114 372.903 95.6153 372.085 93.3714 371.096C80.5355 365.429 71.4648 360.523 71.6549 356.929C71.8451 353.335 73.1572 347.478 75.0588 348.049C75.0588 348.049 75.4201 348.41 76.1047 349.037L94.6835 289.517L176.872 286.151C177.575 287.007 178.127 287.767 178.526 288.338C179.058 289.098 179.306 289.555 179.306 289.555Z" fill="#3A1E63"/>
<path d="M174.951 372.599C172.061 373.321 168.657 373.854 165.101 374.215C152.911 375.432 138.934 374.71 137.185 373.55C137.052 373.454 136.919 373.34 136.785 373.226C134.827 371.439 134.161 367.122 134.161 363.908C134.161 362.083 135.492 362.159 135.797 362.216C135.835 362.216 135.854 362.216 135.854 362.216C135.854 362.216 135.892 362.235 135.949 362.235C136.785 362.501 142.966 364.251 152.208 364.175C153.957 364.156 155.802 364.08 157.76 363.908C170.14 362.843 179.116 358.356 179.971 357.918C180.028 357.899 180.047 357.88 180.047 357.88C180.047 357.88 182.5 356.549 183.071 359.763C183.641 362.977 187.787 369.385 174.951 372.599Z" fill="#325E7A"/>
<path d="M132.838 348.241C133.34 346.435 133.989 344.997 134.73 343.806C138.168 338.282 143.559 338.149 145.113 331.623C147.001 323.691 148.89 294.986 148.89 294.986C148.89 294.986 155.688 293.665 155.5 294.419C155.311 295.174 153.233 328.601 150.968 334.078C148.701 339.554 145.68 337.099 143.415 338.8C141.146 340.498 132.838 348.241 132.838 348.241Z" fill="#325E7A"/>
<path d="M145.113 161.094C145.113 161.094 147.568 148.441 121.884 146.743C96.2011 145.043 70.7061 152.596 67.6863 179.036C64.6665 205.476 63.9097 245.888 64.8529 256.841C65.798 267.794 72.7845 276.481 90.7244 281.391C108.664 286.301 138.503 265.339 150.023 249.854C161.541 234.366 145.113 160.149 145.113 161.094Z" fill="#457492"/>
<path d="M190.431 192.057C190.621 196.222 178.907 204.722 172.499 206.034C166.071 207.366 160.214 206.605 158.712 204.722C158.027 203.867 155.821 198.485 153.578 192.4C150.839 184.964 148.044 176.445 147.949 173.745C147.873 171.976 148.5 169.942 149.318 168.078C150.782 164.807 152.855 162.031 152.855 162.031C154.262 160.624 159.149 160.434 165.805 164.712C168.962 166.728 172.499 169.751 176.264 174.125C182.958 181.884 186.552 185.288 188.453 187.532C189.898 189.224 190.355 190.27 190.431 192.057Z" fill="#F68400"/>
<path opacity="0.19" d="M190.431 192.057C190.621 196.222 178.907 204.722 172.498 206.034C166.071 207.366 160.214 206.605 158.712 204.722C158.027 203.867 155.821 198.485 153.577 192.4C153.026 189.547 152.645 186.543 152.474 183.481C152.17 177.795 150.535 172.509 149.318 168.078C150.782 164.807 152.855 162.031 152.855 162.031C154.262 160.624 159.149 160.434 165.805 164.712C165.025 169.904 166.908 178.765 171.167 186.124C175.959 194.377 183.204 189.528 188.453 187.532C189.898 189.224 190.355 190.27 190.431 192.057Z" fill="#7A0E00"/>
<path d="M184.954 284.039C184.212 286.302 179.287 293.471 155.688 295.734C132.089 297.997 108.661 294.992 97.1368 294.232C85.632 293.471 84.8713 288.755 85.632 284.229C86.3736 279.684 90.5382 261.182 94.4936 240.226C98.4679 219.251 100.541 177.719 100.731 172.243C100.864 168.23 103.545 162.716 108.699 159.521C110.562 158.342 112.768 157.486 115.278 157.125C119.804 156.478 124.843 156.193 129.826 156.364C134.066 156.497 138.25 156.973 142.034 157.828C147.91 159.141 152.797 161.365 155.307 164.674C161.355 172.604 165.139 199.626 169.284 216.417C172.973 231.421 183.166 271.678 184.782 281.795C184.973 283.012 185.03 283.792 184.954 284.039Z" fill="#F68400"/>
<path opacity="0.19" d="M184.954 284.039C184.212 286.302 179.287 293.471 155.688 295.734C132.089 297.997 108.661 294.993 97.1368 294.232C85.632 293.471 84.8713 288.755 85.632 284.229C86.3736 279.685 90.5382 261.182 94.4936 240.226C98.4679 219.251 100.541 177.72 100.731 172.243C100.864 168.231 103.545 162.716 108.699 159.521C116.286 158.475 124.843 158.703 124.843 158.703C124.843 158.703 127.068 157.429 129.826 156.364C132.488 155.3 135.664 154.444 137.85 155.033C139.486 155.471 140.893 156.593 142.034 157.829C144.012 160.016 145.172 162.564 145.172 162.564C145.362 171.292 139.885 174.753 136.633 176.978C133.382 179.222 138.459 186.733 141.502 194.454C144.563 202.174 143.137 208.887 141.102 211.112C139.068 213.356 139.068 218.034 138.06 222.902C137.033 227.77 131.347 246.672 126.06 251.35C120.793 256.028 117.731 266.582 118.34 274.911C118.948 283.26 133.99 290.771 152.474 291.779C170.977 292.806 180.523 288.128 181.949 285.275C182.615 283.982 183.68 282.461 184.782 281.795C184.973 283.012 185.03 283.792 184.954 284.039Z" fill="#7A0E00"/>
<path d="M141.52 166.006C143.974 170.722 137.185 174.126 131.708 171.863C126.231 169.6 109.801 159.579 109.801 159.579C109.801 159.579 113.376 147.313 110.182 139.193C110.144 139.079 110.106 138.984 110.068 138.87C107.672 131.13 133.458 132.994 136.995 135.789C139.162 137.501 140.76 140.563 141.711 142.73C142.338 144.176 142.661 145.221 142.661 145.221C142.129 147.123 141.692 148.854 141.311 150.394C139.79 156.745 139.524 160.377 140.513 163.591C140.76 164.409 141.102 165.208 141.52 166.006Z" fill="#CD6355"/>
<path opacity="0.25" d="M141.52 166.007C143.974 170.723 137.185 174.127 131.708 171.864C126.231 169.601 109.801 159.579 109.801 159.579C109.801 159.579 113.376 147.314 110.182 139.194C110.144 139.08 110.106 138.985 110.068 138.871C112.483 138.433 112.064 138.129 121.801 140.202C131.499 142.275 137.584 141.97 141.711 142.731C142.338 144.176 142.661 145.222 142.661 145.222C142.129 147.124 141.692 148.854 141.311 150.394C133.172 151.612 123.132 148.113 121.192 151.992C119.157 156.061 125.661 163.573 131.347 165.817C137.033 168.041 140.494 163.573 140.494 163.573C140.494 163.573 140.494 163.573 140.513 163.592C140.76 164.409 141.102 165.208 141.52 166.007Z" fill="#701527"/>
<path d="M184.574 51.6046C184.536 52.137 184.479 52.6885 184.384 53.259C182.691 63.832 175.712 66.6464 175.712 66.6464L163.808 69.1185C163.808 69.1185 160.651 76.1735 157.342 81.0036C156.525 82.2016 155.707 83.2665 154.927 84.0462C151.904 87.0698 122.201 101.009 103.66 104.679C98.0309 105.82 93.429 105.991 90.9189 104.622C80.1557 98.7648 76.1813 79.14 75.801 68.9283C75.4207 58.7356 76.5616 46.0899 76.5616 46.0899C76.5616 46.0899 72.9676 41.1837 75.4207 33.4251C77.8928 25.6855 80.7072 28.8992 80.7072 28.8992C80.7072 28.8992 79.0147 16.4436 87.7051 10.7768C96.3955 5.10992 103.565 8.32367 103.565 8.32367C103.565 8.32367 105.257 0.393895 116.971 0.0135713C128.685 -0.366753 134.732 7.37286 134.732 7.37286C134.732 7.37286 143.784 -3.96081 155.498 2.847C159.187 4.97681 161.621 7.50597 163.218 9.97808C166.698 15.3406 166.261 20.3989 166.261 20.3989C166.261 20.3989 172.118 16.0633 177.595 23.8029C183.071 31.5425 178.165 38.7306 178.165 38.7306C178.165 38.7306 185.258 42.2676 184.574 51.6046Z" fill="#390B1D"/>
<path opacity="0.21" d="M184.574 51.6046C184.536 52.137 184.479 52.6885 184.384 53.259C182.691 63.832 175.712 66.6464 175.712 66.6464L163.808 69.1185C163.808 69.1185 160.651 76.1735 157.342 81.0036C154.642 81.0036 151.942 81.0226 149.261 81.1367C138.821 81.5361 127.867 83.3997 119.785 89.9983C114.157 94.6002 109.897 101.465 103.66 104.679C98.0309 105.82 93.429 105.991 90.9189 104.622C80.1557 98.7648 76.1813 79.14 75.801 68.9283C75.4207 58.7356 76.5616 46.0899 76.5616 46.0899C76.5616 46.0899 72.9676 41.1837 75.4207 33.4251C77.8928 25.6855 80.7072 28.8992 80.7072 28.8992C80.7072 28.8992 79.0147 16.4436 87.7051 10.7768C96.3955 5.10992 103.565 8.32367 103.565 8.32367C103.565 8.32367 105.257 0.393895 116.971 0.0135713C128.685 -0.366753 134.732 7.37286 134.732 7.37286C134.732 7.37286 143.784 -3.96081 155.498 2.847C159.187 4.97681 161.621 7.50597 163.219 9.97808C163.123 10.4725 163.009 10.9669 162.876 11.4423C161.146 6.365 155.441 3.51256 150.078 3.49354C144.716 3.49354 139.638 5.75646 134.865 8.20955C131.69 3.85484 126.004 1.47782 120.679 2.23846C115.336 3.01813 110.563 6.89745 108.737 11.9748C106.189 16.4246 108.167 22.0344 110.506 26.5982C111.989 29.5077 113.757 32.4933 116.629 34.0336C119.5 35.5739 123.741 34.9654 125.129 32.0179C127.411 36.2775 133.04 38.4073 137.585 36.7149C138.535 42.1155 144.849 45.8807 150.059 44.1312C153.159 43.1043 155.669 40.4991 158.921 39.9666C162.876 39.3201 166.622 41.9633 169.475 44.7967C172.327 47.6302 175.047 50.939 178.888 52.156C181.227 52.8976 183.033 52.5363 184.574 51.6046Z" fill="#0A010A"/>
<path d="M179.667 120.309C175.522 137.1 166.071 138.241 161.545 144.479C159.833 146.818 157.038 148.206 153.273 148.833C147.054 149.879 138.193 148.871 127.354 146.742C109.992 143.338 98.6583 137.1 90.9187 128.98C83.1791 120.861 81.2774 101.977 81.2774 101.977C81.2774 101.977 80.9542 102.111 80.4027 102.244H80.3837C77.9496 102.871 70.9707 103.746 65.6081 95.9494C58.9905 86.3081 62.3944 77.2374 68.4415 72.3312C74.1654 67.6722 83.4643 71.8558 85.6892 79.2151C85.8223 79.6144 85.9364 80.0328 86.0125 80.4511C87.5148 88.571 88.8269 92.9258 89.7777 94.428C90.7285 95.9493 94.3036 95.1887 95.4445 95.569C96.5855 95.9493 99.7802 95.9493 101.111 93.4772C102.442 91.0241 100.731 83.4747 105.086 78.5685C109.421 73.6623 112.445 71.2092 114.708 69.3076C116.971 67.425 117.541 65.3523 117.541 65.3523C117.541 65.3523 121.326 65.9228 126.992 67.425C132.089 68.7752 135.987 63.2034 136.405 62.5379C136.139 63.0893 139.543 63.0893 146.617 63.0893C152.816 63.0893 157.323 58.6015 158.065 57.8599C161.431 61.3398 166.869 64.7057 175.712 66.6454C175.845 67.8814 175.902 69.0034 175.94 70.0303C176.092 75.2787 175.179 78.3974 174.951 84.6157C174.571 95.3789 183.832 103.499 179.667 120.309Z" fill="#CD6355"/>
<path opacity="0.25" d="M175.94 70.0303C168.581 71.3614 158.426 66.6834 158.426 66.6834C158.426 66.6834 149.45 71.1712 143.764 72.1981C138.079 73.244 136.006 70.8289 136.006 70.8289C136.006 70.8289 130.833 75.659 124.976 76.6859C119.119 77.7128 120.317 75.659 116.533 80.6603C112.73 85.6426 107.919 102.89 114.289 117.894C120.66 132.879 129.807 135.978 135.664 141.683C141.521 147.369 153.425 148.738 153.425 148.738C153.425 148.738 153.368 148.776 153.273 148.833C147.054 149.879 138.193 148.871 127.353 146.742C109.992 143.338 98.658 137.1 90.9184 128.98C83.1788 120.861 81.2772 101.977 81.2772 101.977C81.2772 101.977 80.9539 102.111 80.4024 102.244C80.4595 101.997 80.4975 101.863 80.4975 101.863C80.4975 101.863 80.3264 91.3474 78.9572 83.4176C77.569 75.4879 70.1527 81.1737 70.3239 85.4714C70.495 89.7881 73.7848 90.815 73.7848 90.815C73.7848 90.815 68.7835 92.2031 67.5665 85.4714C66.3685 78.7587 72.9101 73.9286 77.569 74.6132C80.4975 75.0505 83.7113 77.4846 85.6889 79.2151C85.8221 79.6144 85.9362 80.0328 86.0122 80.4511C87.5145 88.571 88.8266 92.9258 89.7774 94.428C90.7282 95.9493 94.3033 95.1887 95.4443 95.569C96.5852 95.9493 99.78 95.9493 101.111 93.4772C102.442 91.0241 100.731 83.4747 105.085 78.5685C109.421 73.6623 112.445 71.2092 114.708 69.3076C116.971 67.425 117.541 65.3523 117.541 65.3523C117.541 65.3523 121.325 65.9228 126.992 67.425C132.088 68.7752 135.987 63.2034 136.405 62.5379C136.139 63.0893 139.543 63.0893 146.617 63.0893C152.816 63.0893 157.323 58.6015 158.065 57.8599C161.43 61.3398 166.869 64.7057 175.712 66.6454C175.845 67.8814 175.902 69.0034 175.94 70.0303Z" fill="#701527"/>
<path d="M140.203 157.316C140.203 157.316 149.457 159.016 152.857 177.144C156.257 195.275 157.2 218.503 162.677 233.043C168.153 247.584 179.483 256.083 179.483 256.083C179.483 256.083 183.826 255.139 183.45 249.473C183.071 243.808 180.05 231.533 175.707 226.433C171.363 221.334 167.963 208.114 167.963 208.114C167.963 208.114 164.941 175.444 160.22 166.946C155.498 158.448 153.043 158.636 149.645 156.748C146.247 154.859 140.203 154.859 140.203 154.859V157.316Z" fill="#457492"/>
<path d="M83.7363 187.909L72.5947 197.084C72.5947 197.084 71.4613 199.188 74.483 203.202C77.5047 207.216 90.7228 216.201 96.1995 218.685C101.676 221.17 105.265 213.714 105.265 213.714C105.265 213.714 99.0329 203.582 92.9896 196.51C86.9481 189.44 83.7363 187.909 83.7363 187.909Z" fill="#C76B00"/>
<path d="M105.257 212.843C105.257 212.843 104.706 214.497 103.793 217.14C100.18 227.713 90.7856 254.165 87.3247 254.755C85.9175 255.002 84.2061 255.173 82.4946 255.116C78.9195 255.059 75.3635 254.127 74.8691 251.18C74.1084 246.825 72.2258 241.538 75.2304 230.775C78.254 220.012 87.8952 193.77 87.8952 193.77C87.8952 193.77 96.2053 191.126 101.111 199.056C106.018 206.986 105.257 212.843 105.257 212.843Z" fill="#CD6355"/>
<path opacity="0.25" d="M105.257 212.843C105.257 212.843 104.706 214.497 103.793 217.14C102.424 215.543 100.446 213.813 97.8217 212.539C91.5273 209.496 80.8972 223.036 79.2048 234.559C77.9307 243.288 79.9464 250.875 82.4946 255.116C78.9195 255.059 75.3635 254.127 74.8691 251.18C74.1084 246.825 72.2258 241.538 75.2304 230.775C78.254 220.012 87.8952 193.77 87.8952 193.77C87.8952 193.77 96.2053 191.126 101.111 199.056C106.018 206.986 105.257 212.843 105.257 212.843Z" fill="#701527"/>
<path d="M105.257 213.774C105.257 213.774 104.439 212.957 103.108 211.664C99.6281 208.298 92.6682 201.718 87.8951 198.295C81.2774 193.579 72.587 197.344 72.587 197.344C72.587 197.344 83.9207 176.959 92.2308 171.102C97.175 167.622 101.111 168.478 103.926 171.254C105.846 173.137 107.254 175.932 108.09 178.842C110.182 186.03 105.257 213.774 105.257 213.774Z" fill="#F68400"/>
<path opacity="0.19" d="M103.926 211.721C103.926 211.721 103.812 211.702 103.108 211.664C99.6281 208.298 92.6682 201.718 87.8951 198.295C81.2774 193.579 72.587 197.344 72.587 197.344C72.587 197.344 83.9207 176.959 92.2308 171.102C97.175 167.622 101.111 168.478 103.926 171.254C93.7711 174.468 88.922 183.995 89.7016 191.811C90.5193 199.95 103.926 211.721 103.926 211.721Z" fill="#7A0E00"/>
<path d="M106.588 192.631C106.588 192.631 106.776 186.966 109.421 186.021C112.064 185.078 119.053 182.999 120.941 180.923C122.829 178.846 124.908 177.713 125.473 179.223C126.039 180.732 129.061 182.999 125.851 186.021C122.641 189.042 106.588 192.631 106.588 192.631Z" fill="#CD6355"/>
<path opacity="0.25" d="M114.689 184.297C110.422 187.751 106.155 188.361 106.765 191.206C107.376 194.051 114.081 191.613 115.096 190.394C116.112 189.173 114.689 184.297 114.689 184.297Z" fill="#701527"/>
<path d="M92.9877 166.702C90.9111 163.68 92.421 157.26 96.9526 155.748C101.484 154.238 107.151 152.915 110.173 154.048C113.194 155.182 123.014 163.868 129.058 175.765C135.101 187.661 135.668 221.843 127.736 238.273C119.804 254.703 94.876 255.458 91.2877 253.381C87.6993 251.305 117.38 217.199 117.568 206.058C117.756 194.916 114.759 183.596 106.337 173.768C101.284 167.873 94.4976 169.723 94.4976 169.723L92.9877 166.702Z" fill="#457492"/>
<path d="M140.589 206.034C140.208 209.058 134.352 212.081 130.377 213.222C126.422 214.344 123.018 212.842 123.018 212.842C123.018 212.842 103.754 251.369 99.9702 255.515C96.9847 258.823 90.9375 259.831 86.849 259.85C85.7651 259.869 84.8143 259.793 84.1107 259.679C80.7068 259.109 76.1809 256.085 74.4885 252.301C72.777 248.536 76.1809 239.275 79.2045 234.559C79.2045 234.559 87.8949 225.678 96.7755 218.509C105.637 211.321 106.398 205.274 106.398 202.821C106.398 200.368 106.017 195.081 106.588 192.628C107.158 190.175 114.137 188.673 117.731 187.151C121.325 185.649 125.851 181.675 125.851 181.675C125.851 181.675 129.255 179.792 130.377 179.792C131.518 179.792 134.161 182.055 134.352 183.938C134.447 184.831 134.161 185.421 133.819 185.801C133.458 186.238 133.02 186.391 133.02 186.391C133.02 186.391 136.614 188.482 136.995 190.935C137.375 193.389 136.805 194.701 136.805 194.701C136.805 194.701 138.877 195.271 139.828 198.105C140.76 200.938 138.687 202.821 138.687 202.821C138.687 202.821 140.95 203.011 140.589 206.034Z" fill="#CD6355"/>
<path d="M205.035 235.206C204.217 240.835 199.672 246.425 194.595 247.585C187.217 249.278 179.097 245.132 177.975 240.778C176.834 236.442 167.953 208.108 167.953 208.108C167.953 208.108 167.877 203.981 168.181 200.882C168.334 199.436 168.543 198.2 168.904 197.725C170.045 196.223 178.735 194.511 178.735 194.511C178.735 194.511 178.869 194.739 179.097 195.12C180.2 197.021 183.775 203.012 187.217 207.556C191.381 213.033 203.647 227.942 203.647 227.942C205.054 230.11 205.434 232.658 205.035 235.206Z" fill="#CD6355"/>
<path d="M179.097 195.081V195.119L177.785 199.988C177.785 199.988 176.967 202.612 175.065 204.475C174.362 205.16 173.506 205.73 172.498 206.035C168.714 207.176 167.953 208.107 167.953 208.107C167.953 208.107 166.071 206.605 164.188 206.605C162.305 206.605 153.615 206.605 151.713 204.723C149.831 202.821 150.021 199.626 150.021 199.626C150.021 199.626 148.328 198.485 148.328 197.154C148.328 195.842 149.07 194.15 149.07 194.15C149.07 194.15 146.997 191.126 146.807 189.605C146.617 188.102 147.948 186.581 147.948 186.581C147.948 186.581 145.685 185.079 145.685 184.318C145.685 183.558 146.807 178.651 148.138 178.271C149.393 177.91 153.634 178.766 153.976 178.823C153.995 178.823 153.995 178.842 153.995 178.842C153.995 178.842 154.376 179.336 155.098 179.868C155.764 180.363 156.734 180.914 157.951 181.105C160.404 181.485 163.998 179.792 163.998 179.792C163.998 179.792 162.305 176.008 162.115 172.243C162.039 170.836 162.267 169.619 162.667 168.649C163.332 167.032 164.511 166.139 165.69 166.386C167.592 166.766 166.831 168.649 169.474 173.745C172.118 178.842 173.81 180.173 174.571 182.626C175.331 185.079 179.097 195.081 179.097 195.081Z" fill="#CD6355"/>
<path d="M137.836 105.516C141.032 100.092 137.016 90.8352 131.849 87.8744C128.175 85.7693 117.736 85.8587 114.775 91.9058C111.814 97.9549 115.404 103.877 120.004 106.398C124.604 108.918 135.757 109.043 137.836 105.516Z" fill="white"/>
<path d="M170.787 105.839C166.071 107.398 164.226 107.018 162.534 106.39C161.279 105.934 160.48 105.097 160.081 103.918C159.947 103.5 159.871 103.043 159.833 102.549C159.833 102.549 157.799 92.5464 162.534 89.0284C163.332 88.4199 164.321 88.0206 165.557 87.8685C174.057 86.8606 175.636 93.5353 176.016 97.3956C176.396 101.237 175.522 104.26 170.787 105.839Z" fill="white"/>
<path d="M139.096 78.862C137.927 80.9405 133.488 77.0973 129.392 74.5149C125.296 71.9306 118.808 73.0659 115.468 75.0188C112.129 76.9718 110.427 79.4914 110.427 79.4914C110.427 79.4914 112.506 72.3718 121.074 71.0482C129.643 69.7247 134.369 73.3796 136.259 74.8914C138.151 76.4051 139.663 77.8541 139.096 78.862Z" fill="#390B1D"/>
<path d="M153.712 74.0736C151.881 75.8098 153.524 77.5384 155.287 76.5305C157.052 75.5226 160.705 72.6873 164.422 72.5618C168.14 72.4363 173.432 77.5402 173.432 77.5402C173.432 77.5402 171.354 71.7441 164.989 70.7363C158.628 69.7265 156.171 71.7422 153.712 74.0736Z" fill="#390B1D"/>
<path d="M131.081 96.0731C131.081 100.945 127.131 104.895 122.259 104.895C117.387 104.895 113.438 100.945 113.438 96.0731C113.438 91.2011 117.387 87.2515 122.259 87.2515C127.131 87.2515 131.081 91.2011 131.081 96.0731Z" fill="#390B1D"/>
<path d="M126.766 95.9948C128.651 95.9948 130.179 94.4665 130.179 92.5814C130.179 90.6962 128.651 89.168 126.766 89.168C124.881 89.168 123.352 90.6962 123.352 92.5814C123.352 94.4665 124.881 95.9948 126.766 95.9948Z" fill="white"/>
<path d="M172.042 97.1098C172.042 101.712 168.657 105.458 164.473 105.458C162.838 105.458 161.317 104.887 160.081 103.918C159.947 103.499 159.871 103.043 159.833 102.548C159.833 102.548 157.799 92.5459 162.534 89.0279C163.161 88.8377 163.808 88.7427 164.473 88.7427C168.657 88.7427 172.042 92.4889 172.042 97.1098Z" fill="#390B1D"/>
<path d="M154.091 113.956C150.559 113.76 142.875 115.217 142.624 111.562C142.373 107.907 147.287 104.254 153.146 104.001C159.004 103.75 163.226 107.466 163.857 109.043C164.487 110.617 164.802 112.886 162.03 113.705C159.257 114.525 156.359 114.084 154.091 113.956Z" fill="#C25E50"/>
<path d="M164.298 123.282C164.298 123.282 160.581 123.094 158.312 121.896C156.044 120.698 156.171 121.518 154.785 121.58C153.398 121.643 151.634 120.51 150.312 120.888C148.989 121.266 144.326 122.463 141.932 122.212C139.537 121.961 137.459 121.582 137.394 123.41C137.332 125.237 141.112 132.357 147.349 135.947C153.587 139.539 157.683 137.837 159.447 135.19C161.212 132.543 161.967 129.52 162.975 127C163.983 124.48 164.298 123.282 164.298 123.282Z" fill="#A9493B"/>
<path d="M162.597 125.677C163.101 124.228 163.163 123.913 161.085 124.165C159.006 124.416 154.218 124.795 152.516 124.481C150.814 124.165 141.238 123.852 139.473 123.348C137.708 122.844 137.961 123.663 138.465 124.671C138.969 125.679 145.459 134.311 152.83 133.869C160.203 133.426 162.597 125.677 162.597 125.677Z" fill="white"/>
<path d="M149.934 109.609C147.715 110.052 146.657 110.807 146.657 111.752C146.657 112.697 148.8 112.444 149.367 112.382C149.934 112.319 149.114 111.815 149.871 111.121C150.626 110.429 150.563 109.483 149.934 109.609Z" fill="#691E1C"/>
<path d="M157.934 109.61C159.374 109.199 159.95 110.051 160.581 111.184C161.21 112.318 160.393 113.137 159.573 113.075C158.754 113.012 157.367 112.696 157.242 112.129C157.116 111.563 157.934 110.869 157.746 110.555C157.557 110.241 157.495 109.737 157.934 109.61Z" fill="#691E1C"/>
<path opacity="0.25" d="M146.025 105.954C144.072 108.285 143.378 110.113 143.757 111.562C144.135 113.011 145.898 114.019 145.898 114.019C145.898 114.019 142.622 113.956 142.055 112.066C141.488 110.176 142.496 108.601 143.188 107.782C143.884 106.964 146.025 105.954 146.025 105.954Z" fill="#701527"/>
<path opacity="0.25" d="M159.32 105.263C159.32 105.263 163.479 108.351 163.479 110.43C163.479 112.508 162.03 113.706 162.03 113.706C162.03 113.706 164.739 113.518 165.053 110.683C165.369 107.847 159.32 105.263 159.32 105.263Z" fill="#701527"/>
<path opacity="0.25" d="M133.819 185.801C133.058 186.219 132.374 186.334 132.374 186.334C132.374 186.334 131.347 183.481 130.738 182.873C130.13 182.264 128.514 184.09 124.045 187.76C119.557 191.411 113.263 193.027 112.445 195.271C111.646 197.496 113.263 201.566 114.898 205.026C116.514 208.468 122.2 210.313 122.409 211.72C122.619 213.146 116.514 211.929 113.263 212.937C110.011 213.964 102.29 230.223 93.5618 239.37C85.3658 247.927 81.4674 255.61 86.849 259.85C85.7651 259.869 84.8143 259.793 84.1107 259.679C80.7068 259.109 76.1809 256.085 74.4885 252.301C72.777 248.536 76.1809 239.275 79.2045 234.559C79.2045 234.559 87.8949 225.678 96.7755 218.509C105.637 211.321 106.398 205.274 106.398 202.821C106.398 200.368 106.017 195.081 106.588 192.628C107.158 190.175 114.137 188.673 117.731 187.151C121.325 185.649 125.851 181.675 125.851 181.675C125.851 181.675 129.255 179.792 130.377 179.792C131.518 179.792 134.161 182.055 134.352 183.938C134.447 184.831 134.161 185.421 133.819 185.801Z" fill="#701527"/>
<path opacity="0.25" d="M205.035 235.205C204.217 240.834 199.672 246.425 194.595 247.585C187.217 249.277 179.097 245.132 177.975 240.777C176.834 236.441 167.953 208.107 167.953 208.107C167.953 208.107 166.071 206.605 164.188 206.605C162.305 206.605 153.615 206.605 151.713 204.722C149.831 202.821 150.021 199.626 150.021 199.626C150.021 199.626 148.328 198.485 148.328 197.154C148.328 195.842 149.07 194.149 149.07 194.149C149.07 194.149 146.997 191.126 146.807 189.605C146.617 188.102 147.948 186.581 147.948 186.581C147.948 186.581 145.685 185.079 145.685 184.318C145.685 183.557 146.807 178.651 148.138 178.271C149.393 177.91 153.634 178.765 153.976 178.822C153.995 178.822 153.995 178.841 153.995 178.841C153.995 178.841 148.823 181.656 148.823 183.481C148.823 185.307 152.284 188.159 152.284 188.159C152.284 188.159 147.206 189.776 149.431 192.02C151.675 194.244 153.9 194.663 153.9 194.663C153.9 194.663 149.431 197.097 151.675 198.523C153.9 199.949 156.334 199.949 156.334 199.949C156.334 199.949 152.284 200.957 152.284 202.174C152.284 203.391 155.935 203.6 161.431 202.593C164.074 202.098 166.28 201.28 168.181 200.881C170.235 200.444 171.928 200.501 173.411 201.965C173.867 202.421 174.438 203.296 175.065 204.475C178.412 210.674 183.813 225.279 187.236 232.448C190.716 239.788 199.026 240.967 205.035 235.205Z" fill="#701527"/>
<path opacity="0.25" d="M161.621 183.083C157.399 182.665 154.166 181.676 155.098 179.87C155.764 180.364 156.734 180.915 157.951 181.106C160.404 181.486 163.998 179.793 163.998 179.793C163.998 179.793 162.305 176.009 162.115 172.244C162.039 170.837 162.267 169.62 162.667 168.65C164.701 169.106 166.508 176.789 167.934 179.413C169.341 182.056 165.899 183.483 161.621 183.083Z" fill="#701527"/>
<path opacity="0.26" d="M161.013 330.192C152.474 333.444 149.432 336.696 148.424 349.094C147.587 359.154 150.934 363.071 152.208 364.174C152.493 364.421 152.683 364.535 152.683 364.535C152.683 364.535 153.387 363.584 153.539 365.467C153.596 366.057 153.596 366.931 153.501 368.186C153.102 373.473 159.396 372.864 163.865 373.872C164.264 373.967 164.683 374.081 165.101 374.215C152.912 375.432 138.935 374.709 137.185 373.549C137.052 373.454 136.919 373.34 136.786 373.226C136.634 370.792 136.234 366.608 135.797 362.215C135.721 361.436 135.626 360.637 135.55 359.857C135.55 359.8 135.531 359.762 135.531 359.705C134.789 352.536 133.99 345.633 133.99 345.633C133.99 345.633 138.878 331.618 145.571 329.374C152.284 327.149 162.648 319.22 166.908 319.22C171.167 319.22 169.551 326.94 161.013 330.192Z" fill="#3A1E63"/>
<path opacity="0.26" d="M98.2395 477.51C98.2395 477.51 87.2671 481.561 81.1629 479.944C78.7669 479.298 78.0253 479.602 78.1394 480.287C78.2725 481.352 80.3833 483.348 81.3721 484.204C81.3911 484.223 81.4102 484.242 81.4102 484.261C78.7099 483.881 76.1046 483.329 74.1079 482.512C68.0608 480.059 68.8214 477.415 69.0116 473.441C69.0116 473.441 68.2509 469.486 68.6313 466.842C69.0116 464.199 78.6338 456.079 80.1551 450.222C81.6574 444.365 81.8475 442.102 82.7983 440.771C83.7301 439.459 85.0613 438.889 85.0613 438.889C85.0613 438.889 96.7753 438.698 100.16 440.01C103.564 441.342 103.564 441.912 104.325 444.365C104.458 444.803 104.496 445.183 104.477 445.582C100.255 441.76 95.5012 440.866 92.1353 444.993C88.4842 449.462 91.5268 449.861 85.6318 455.147C79.7367 460.434 76.0856 465.911 76.2948 469.162C76.3899 470.703 76.8273 472.3 77.8541 473.707C79.0141 475.267 80.8967 476.56 83.8062 477.092C89.2829 478.119 98.2395 477.51 98.2395 477.51Z" fill="#3A1E63"/>
<path opacity="0.26" d="M188.453 480.135C188.453 480.135 184.992 483.596 175.237 479.336C170.92 477.435 168.068 475.704 166.28 474.658C166.261 474.658 166.242 474.658 166.242 474.639C164.017 473.365 163.428 473.156 163.656 475.058C164.017 478.081 172.708 480.934 168.6 480.667C163.466 477.606 159.872 472.909 158.331 471.939C156.259 470.608 155.498 473.631 151.904 471.559C148.329 469.486 144.354 466.272 145.876 460.795C145.876 460.795 146.085 460.833 146.465 460.91C146.446 460.814 146.446 460.7 146.427 460.605C146.066 456.631 146.313 448.264 150.402 444.175C151.714 442.844 152.665 442.103 152.665 442.103C152.665 442.103 153.045 445.126 153.425 446.438C153.806 447.769 160.214 451.344 160.214 451.344C154.509 450.279 157.97 457.182 165.691 461.86C173.411 466.538 176.872 471.806 183.775 471.407C190.678 471.007 187.635 471.007 185.391 473.441C185.049 473.822 184.878 474.221 184.859 474.677C184.669 477.092 188.453 480.135 188.453 480.135Z" fill="#3A1E63"/>
<path d="M168.288 95.655C170.018 95.655 171.42 94.2528 171.42 92.5231C171.42 90.7933 170.018 89.3911 168.288 89.3911C166.559 89.3911 165.156 90.7933 165.156 92.5231C165.156 94.2528 166.559 95.655 168.288 95.655Z" fill="white"/>
<path opacity="0.37" d="M180.797 48.1937C182.143 47.0299 181.307 44.7936 180.133 43.4549C178.294 41.3593 175.878 39.8703 173.5 38.4137C174.645 35.3464 174.269 31.7523 172.51 28.9892C170.753 26.2281 167.657 24.3626 164.394 24.1002C162.602 18.9506 158.62 14.6054 153.648 12.3691C151.662 11.4753 149.38 10.9105 147.313 11.5989C145.246 12.2873 143.626 14.5997 144.337 16.6591C144.847 18.1348 146.34 19.0552 147.836 19.5002C149.333 19.9451 150.919 20.0383 152.406 20.5118C156.276 21.7441 159.069 25.7546 158.881 29.8107C161.583 29.1185 164.593 29.7575 166.778 31.4899C168.965 33.2222 170.277 36.0043 170.222 38.794C170.207 39.5356 170.11 40.3172 170.429 40.9866C171.665 43.5785 175.83 41.5894 177.047 44.3106C177.597 45.5409 177.853 50.7362 180.797 48.1937Z" fill="#633737"/>
</svg>
