<svg width="213" height="392" viewBox="0 0 213 392" fill="none" xmlns="http://www.w3.org/2000/svg">
<mask id="mask0_2199_34684" style="mask-type:luminance" maskUnits="userSpaceOnUse" x="152" y="30" width="61" height="100">
<path d="M203.635 74.3283C204.588 69.9926 212.215 61.2894 212.965 49.3414C213.714 37.3934 202.285 29.3433 199.256 30.8174C196.226 32.2914 198.313 37.3314 199.341 40.1225C200.369 42.915 195.195 51.9465 195.195 51.9465C195.195 51.9465 195.346 45.0117 194.82 43.8904C194.295 42.769 192.895 41.1819 190.229 41.4458C187.563 41.7097 189.389 48.2942 188.867 49.8011C188.345 51.308 184.456 59.1391 185.362 62.7075C186.268 66.2771 191.392 71.4094 191.392 71.4094C191.392 71.4094 173.953 105.742 172.599 106.704C171.245 107.666 163.419 106.025 160.461 105.374L152.854 129.834C152.854 129.834 186.977 125.022 188.636 122.961C190.296 120.9 202.683 78.6641 203.635 74.3283Z" fill="white"/>
</mask>
<g mask="url(#mask0_2199_34684)">
<path d="M203.635 74.3288C204.588 69.993 212.215 61.2899 212.965 49.3419C213.714 37.3939 202.285 29.3438 199.256 30.8178C196.226 32.2919 198.313 37.3318 199.341 40.123C200.369 42.9154 195.195 51.947 195.195 51.947C195.195 51.947 195.346 45.0122 194.82 43.8909C194.295 42.7695 192.895 41.1823 190.229 41.4463C187.563 41.7102 189.389 48.2947 188.867 49.8016C188.345 51.3085 184.456 59.1396 185.362 62.708C186.268 66.2775 191.392 71.4099 191.392 71.4099C191.392 71.4099 173.953 105.742 172.599 106.704C171.245 107.666 163.419 106.026 160.461 105.375L152.854 129.834C152.854 129.834 186.977 125.023 188.636 122.961C190.296 120.901 202.683 78.6646 203.635 74.3288Z" fill="#663E21"/>
</g>
<mask id="mask1_2199_34684" style="mask-type:luminance" maskUnits="userSpaceOnUse" x="152" y="30" width="61" height="100">
<path d="M203.635 74.3283C204.588 69.9926 212.215 61.2894 212.965 49.3414C213.714 37.3934 202.285 29.3433 199.256 30.8174C196.226 32.2914 198.313 37.3314 199.341 40.1225C200.369 42.915 195.195 51.9465 195.195 51.9465C195.195 51.9465 195.346 45.0117 194.82 43.8904C194.295 42.769 192.895 41.1819 190.229 41.4458C187.563 41.7097 189.389 48.2942 188.867 49.8011C188.345 51.308 184.456 59.1391 185.362 62.7075C186.268 66.2771 191.392 71.4094 191.392 71.4094C191.392 71.4094 173.953 105.742 172.599 106.704C171.245 107.666 163.419 106.025 160.461 105.374L152.854 129.834C152.854 129.834 186.977 125.022 188.636 122.961C190.296 120.9 202.683 78.6641 203.635 74.3283Z" fill="white"/>
</mask>
<g mask="url(#mask1_2199_34684)">
<path d="M199.864 49.281C202.413 50.5738 204.167 52.8092 205.856 55.0446C206.025 55.2684 206.41 55.0482 206.238 54.822C204.505 52.5258 202.705 50.2272 200.088 48.9003C199.835 48.7714 199.611 49.1521 199.864 49.281Z" fill="#421605"/>
</g>
<mask id="mask2_2199_34684" style="mask-type:luminance" maskUnits="userSpaceOnUse" x="152" y="30" width="61" height="100">
<path d="M203.635 74.3283C204.588 69.9926 212.215 61.2894 212.965 49.3414C213.714 37.3934 202.285 29.3433 199.256 30.8174C196.226 32.2914 198.313 37.3314 199.341 40.1225C200.369 42.915 195.195 51.9465 195.195 51.9465C195.195 51.9465 195.346 45.0117 194.82 43.8904C194.295 42.769 192.895 41.1819 190.229 41.4458C187.563 41.7097 189.389 48.2942 188.867 49.8011C188.345 51.308 184.456 59.1391 185.362 62.7075C186.268 66.2771 191.392 71.4094 191.392 71.4094C191.392 71.4094 173.953 105.742 172.599 106.704C171.245 107.666 163.419 106.025 160.461 105.374L152.854 129.834C152.854 129.834 186.977 125.022 188.636 122.961C190.296 120.9 202.683 78.6641 203.635 74.3283Z" fill="white"/>
</mask>
<g mask="url(#mask2_2199_34684)">
<path d="M205.812 53.7258C207.186 51.7008 207.75 49.8923 207.707 47.4368C207.633 43.0755 209.173 39.0693 214.176 38.685C214.458 38.6631 214.46 38.2216 214.176 38.2435C211.616 38.4405 209.356 39.6847 208.084 41.9809C207.46 43.1059 207.26 44.2406 207.223 45.5139C207.136 48.5788 207.304 50.74 205.431 53.502C205.271 53.7379 205.654 53.9593 205.812 53.7258Z" fill="#421605"/>
</g>
<mask id="mask3_2199_34684" style="mask-type:luminance" maskUnits="userSpaceOnUse" x="152" y="30" width="61" height="100">
<path d="M203.635 74.3283C204.588 69.9926 212.215 61.2894 212.965 49.3414C213.714 37.3934 202.285 29.3433 199.256 30.8174C196.226 32.2914 198.313 37.3314 199.341 40.1225C200.369 42.915 195.195 51.9465 195.195 51.9465C195.195 51.9465 195.346 45.0117 194.82 43.8904C194.295 42.769 192.895 41.1819 190.229 41.4458C187.563 41.7097 189.389 48.2942 188.867 49.8011C188.345 51.308 184.456 59.1391 185.362 62.7075C186.268 66.2771 191.392 71.4094 191.392 71.4094C191.392 71.4094 173.953 105.742 172.599 106.704C171.245 107.666 163.419 106.025 160.461 105.374L152.854 129.834C152.854 129.834 186.977 125.022 188.636 122.961C190.296 120.9 202.683 78.6641 203.635 74.3283Z" fill="white"/>
</mask>
<g mask="url(#mask3_2199_34684)">
<path d="M203.673 51.0986C206.214 44.9459 203.492 37.1999 209.664 32.6525C209.89 32.4858 209.67 32.1015 209.442 32.2706C207.419 33.7604 206.142 36.0736 205.233 38.3917C204.67 39.8293 204.516 41.1112 204.562 42.6436C204.657 45.7364 204.46 48.0435 203.247 50.9807C203.139 51.2434 203.566 51.3577 203.673 51.0986Z" fill="#421605"/>
</g>
<mask id="mask4_2199_34684" style="mask-type:luminance" maskUnits="userSpaceOnUse" x="152" y="30" width="61" height="100">
<path d="M203.635 74.3283C204.588 69.9926 212.215 61.2894 212.965 49.3414C213.714 37.3934 202.285 29.3433 199.256 30.8174C196.226 32.2914 198.313 37.3314 199.341 40.1225C200.369 42.915 195.195 51.9465 195.195 51.9465C195.195 51.9465 195.346 45.0117 194.82 43.8904C194.295 42.769 192.895 41.1819 190.229 41.4458C187.563 41.7097 189.389 48.2942 188.867 49.8011C188.345 51.308 184.456 59.1391 185.362 62.7075C186.268 66.2771 191.392 71.4094 191.392 71.4094C191.392 71.4094 173.953 105.742 172.599 106.704C171.245 107.666 163.419 106.025 160.461 105.374L152.854 129.834C152.854 129.834 186.977 125.022 188.636 122.961C190.296 120.9 202.683 78.6641 203.635 74.3283Z" fill="white"/>
</mask>
<g mask="url(#mask4_2199_34684)">
<path d="M200.856 48.6414C202.143 46.2188 202.152 43.8703 201.885 41.1654C201.351 35.7436 201.872 32.1752 206.843 29.0581C207.083 28.9073 206.862 28.5254 206.62 28.6762C204.008 30.3144 201.8 32.0171 201.263 35.2352C200.507 39.7546 202.779 44.0782 200.476 48.4189C200.342 48.6694 200.723 48.8932 200.856 48.6414Z" fill="#421605"/>
</g>
<mask id="mask5_2199_34684" style="mask-type:luminance" maskUnits="userSpaceOnUse" x="0" y="203" width="45" height="26">
<path d="M12.5402 217.468C14.7805 216.717 26.4354 216.167 27.26 217.136C28.0845 218.106 25.0988 219.981 23.345 222.179C21.59 224.377 21.4161 226.827 22.9509 228.056C24.4858 229.285 26.5302 224.983 28.0614 224.345C29.5914 223.706 33.3677 224.558 38.5549 222.192C43.7432 219.827 41.6039 215.684 42.0405 213.273C42.4771 210.861 44.6529 208.803 44.6529 208.803L32.9092 203.523C31.344 205.17 21.0658 203.513 18.7867 203.779C16.5075 204.045 7.58905 208.661 4.79177 211.096C1.9945 213.53 1.21978 217.903 1.21978 217.903C1.21978 217.903 -0.423315 218.579 0.104518 220.147C1.82788 222.311 10.3 218.22 12.5402 217.468Z" fill="white"/>
</mask>
<g mask="url(#mask5_2199_34684)">
<path d="M12.5402 217.468C14.7805 216.716 26.4354 216.167 27.26 217.136C28.0845 218.105 25.0988 219.981 23.345 222.178C21.59 224.376 21.4161 226.827 22.9509 228.055C24.4858 229.285 26.5302 224.983 28.0614 224.344C29.5914 223.706 33.3677 224.557 38.5549 222.192C43.7432 219.826 41.6039 215.684 42.0405 213.272C42.4771 210.86 44.6529 208.803 44.6529 208.803L32.9092 203.523C31.344 205.17 21.0658 203.512 18.7867 203.778C16.5075 204.045 7.58905 208.66 4.79177 211.095C1.9945 213.53 1.21978 217.902 1.21978 217.902C1.21978 217.902 -0.423315 218.578 0.104518 220.146C1.82788 222.311 10.3 218.22 12.5402 217.468Z" fill="#663E21"/>
</g>
<mask id="mask6_2199_34684" style="mask-type:luminance" maskUnits="userSpaceOnUse" x="0" y="203" width="45" height="26">
<path d="M12.5402 217.468C14.7805 216.717 26.4354 216.167 27.26 217.136C28.0845 218.106 25.0988 219.981 23.345 222.179C21.59 224.377 21.4161 226.827 22.9509 228.056C24.4858 229.285 26.5302 224.983 28.0614 224.345C29.5914 223.706 33.3677 224.558 38.5549 222.192C43.7432 219.827 41.6039 215.684 42.0405 213.273C42.4771 210.861 44.6529 208.803 44.6529 208.803L32.9092 203.523C31.344 205.17 21.0658 203.513 18.7867 203.779C16.5075 204.045 7.58905 208.661 4.79177 211.096C1.9945 213.53 1.21978 217.903 1.21978 217.903C1.21978 217.903 -0.423315 218.579 0.104518 220.147C1.82788 222.311 10.3 218.22 12.5402 217.468Z" fill="white"/>
</mask>
<g mask="url(#mask6_2199_34684)">
<path d="M14.9508 212.399C14.7684 212.526 14.5604 212.712 14.3317 212.75C14.0131 212.823 13.6981 212.908 13.4074 213.055C12.1705 213.667 10.9045 214.185 9.58489 214.57C8.93422 214.76 8.27625 214.93 7.64626 215.177C6.59424 215.587 5.55925 216.041 4.54615 216.541C3.87359 216.869 3.22413 217.248 2.56495 217.604C1.49834 218.178 0.434157 218.75 -0.684752 219.205C-1.55556 219.56 -2.46041 219.846 -3.34094 220.189C-3.42243 220.228 -3.58661 220.305 -3.69851 220.357C-3.77148 220.39 -3.85418 220.422 -3.92472 220.436C-3.97459 220.445 -4.03418 220.445 -4.03418 220.434C-4.03418 220.424 -3.97216 220.373 -3.92837 220.334C-3.89553 220.306 -3.84324 220.28 -3.79824 220.255C-3.05027 219.804 -2.25487 219.446 -1.46312 219.081C-0.9511 218.847 -0.470696 218.544 0.0352449 218.291C0.291864 218.163 0.577671 218.099 0.833074 217.968C1.44726 217.646 2.05415 217.309 2.67928 217.008C2.79846 216.949 2.94806 216.959 3.06725 216.902C3.86508 216.499 4.6775 216.13 5.52155 215.834C6.21843 215.586 6.91775 215.344 7.59883 215.057L9.68705 214.139C10.3329 213.863 11.0042 213.653 11.6646 213.417C11.982 213.304 12.2739 213.124 12.5901 213.008C13.0608 212.837 13.5376 212.684 14.0265 212.568C14.2308 212.526 14.4242 212.485 14.6285 212.441C14.6771 212.435 14.8073 212.418 14.9508 212.399Z" fill="#501117"/>
</g>
<mask id="mask7_2199_34684" style="mask-type:luminance" maskUnits="userSpaceOnUse" x="0" y="203" width="45" height="26">
<path d="M12.5402 217.468C14.7805 216.717 26.4354 216.167 27.26 217.136C28.0845 218.106 25.0988 219.981 23.345 222.179C21.59 224.377 21.4161 226.827 22.9509 228.056C24.4858 229.285 26.5302 224.983 28.0614 224.345C29.5914 223.706 33.3677 224.558 38.5549 222.192C43.7432 219.827 41.6039 215.684 42.0405 213.273C42.4771 210.861 44.6529 208.803 44.6529 208.803L32.9092 203.523C31.344 205.17 21.0658 203.513 18.7867 203.779C16.5075 204.045 7.58905 208.661 4.79177 211.096C1.9945 213.53 1.21978 217.903 1.21978 217.903C1.21978 217.903 -0.423315 218.579 0.104518 220.147C1.82788 222.311 10.3 218.22 12.5402 217.468Z" fill="white"/>
</mask>
<g mask="url(#mask7_2199_34684)">
<path d="M13.787 209.449C13.6204 209.596 13.4356 209.806 13.2142 209.869C12.9065 209.978 12.6037 210.1 12.3312 210.281C11.1746 211.034 9.97789 211.697 8.71304 212.233C8.08912 212.498 7.45548 212.744 6.85832 213.063C5.86103 213.593 4.88686 214.164 3.93943 214.78C3.30944 215.185 2.70863 215.637 2.09688 216.068C1.10446 216.762 0.11568 217.455 -0.942419 218.039C-1.76579 218.493 -2.63173 218.883 -3.46483 219.327C-3.54145 219.375 -3.69591 219.471 -3.8005 219.535C-3.86861 219.577 -3.94766 219.617 -4.01699 219.64C-4.06563 219.654 -4.12401 219.662 -4.12645 219.65C-4.12766 219.64 -4.07172 219.581 -4.03401 219.538C-4.00482 219.506 -3.95618 219.474 -3.91483 219.444C-3.22524 218.909 -2.47606 218.46 -1.73295 218.005C-1.25134 217.712 -0.809855 217.355 -0.337967 217.044C-0.0983748 216.888 0.177707 216.789 0.416084 216.631C0.9877 216.239 1.55202 215.833 2.13701 215.461C2.2489 215.389 2.3985 215.382 2.50917 215.31C3.25349 214.818 4.01727 214.354 4.82118 213.961C5.48523 213.634 6.15049 213.312 6.79265 212.947L8.75926 211.79C9.36858 211.44 10.0095 211.154 10.6395 210.843C10.9411 210.693 11.2099 210.481 11.5103 210.327C11.9579 210.104 12.4127 209.896 12.8858 209.723C13.0829 209.656 13.2714 209.593 13.4684 209.526C13.5183 209.516 13.646 209.484 13.787 209.449Z" fill="#501117"/>
</g>
<mask id="mask8_2199_34684" style="mask-type:luminance" maskUnits="userSpaceOnUse" x="0" y="203" width="45" height="26">
<path d="M12.5402 217.468C14.7805 216.717 26.4354 216.167 27.26 217.136C28.0845 218.106 25.0988 219.981 23.345 222.179C21.59 224.377 21.4161 226.827 22.9509 228.056C24.4858 229.285 26.5302 224.983 28.0614 224.345C29.5914 223.706 33.3677 224.558 38.5549 222.192C43.7432 219.827 41.6039 215.684 42.0405 213.273C42.4771 210.861 44.6529 208.803 44.6529 208.803L32.9092 203.523C31.344 205.17 21.0658 203.513 18.7867 203.779C16.5075 204.045 7.58905 208.661 4.79177 211.096C1.9945 213.53 1.21978 217.903 1.21978 217.903C1.21978 217.903 -0.423315 218.579 0.104518 220.147C1.82788 222.311 10.3 218.22 12.5402 217.468Z" fill="white"/>
</mask>
<g mask="url(#mask8_2199_34684)">
<path d="M11.8409 207.587C11.6864 207.748 11.5198 207.971 11.3033 208.052C11.0054 208.186 10.7123 208.332 10.4569 208.534C9.36471 209.378 8.22512 210.134 7.0077 210.771C6.40811 211.085 5.79514 211.382 5.22596 211.748C4.27488 212.356 3.35057 213.006 2.45422 213.694C1.8595 214.149 1.29761 214.647 0.721131 215.127C-0.211699 215.899 -1.1421 216.67 -2.15033 217.337C-2.93357 217.856 -3.76545 218.313 -4.56085 218.823C-4.63383 218.876 -4.77977 218.984 -4.87828 219.057C-4.94274 219.104 -5.01936 219.151 -5.08504 219.179C-5.13247 219.197 -5.19084 219.209 -5.19328 219.197C-5.19571 219.188 -5.14463 219.126 -5.10936 219.078C-5.08382 219.044 -5.03639 219.009 -4.99747 218.975C-4.35288 218.386 -3.64261 217.879 -2.93843 217.364C-2.48235 217.034 -2.07128 216.642 -1.62493 216.295C-1.39872 216.119 -1.13115 216 -0.906153 215.822C-0.367374 215.386 0.161675 214.936 0.715049 214.517C0.819643 214.437 0.969238 214.418 1.07383 214.337C1.7768 213.786 2.50044 213.263 3.26908 212.807C3.90394 212.428 4.54123 212.052 5.15299 211.637L7.01986 210.326C7.59878 209.929 8.21539 209.591 8.81741 209.231C9.10565 209.058 9.35741 208.823 9.64443 208.647C10.0725 208.388 10.5092 208.143 10.9664 207.934C11.1586 207.851 11.3398 207.774 11.532 207.691C11.5782 207.675 11.7035 207.632 11.8409 207.587Z" fill="#501117"/>
</g>
<path d="M72.1795 152.55L55.5783 146.695C55.5783 146.695 51.1172 154.713 49.8536 158.943C48.59 163.172 45.5945 164.496 42.5929 170.464C39.5913 176.432 35.6605 196.385 32.9082 203.525L44.6519 208.804C44.6519 208.804 56.9587 186.499 57.6969 181.886C58.4364 177.273 72.1795 152.55 72.1795 152.55Z" fill="#663E21"/>
<path d="M47.1971 371.78C50.8469 374.198 53.0738 378.617 52.8476 382.988C58.5552 383.314 62.8703 378.02 68.1803 375.905C70.4546 374.999 72.9186 374.686 75.2623 373.978C78.5168 372.995 81.4965 371.197 83.9593 368.854C85.3312 363.823 86.3419 356.17 80.9444 353.515L80.3533 358.715C80.3533 358.715 76.6767 358.066 74.7295 358.931C72.7824 359.796 73.4319 364.77 71.7012 364.987C69.9705 365.203 72.3494 359.363 70.4035 356.119C69.4354 354.507 67.1319 353.963 65.0595 353.824L61.1032 353.956L61.3197 351.144C61.3197 351.144 57.6431 350.711 56.9936 352.442C56.3442 354.172 53.9653 359.795 52.2358 361.092C51.0829 361.957 43.4183 364.565 37.9722 369.906C41.1392 369.366 44.5154 370.004 47.1971 371.78Z" fill="#443032"/>
<path d="M75.2636 373.978C72.9199 374.686 70.4559 374.999 68.1816 375.905C62.8704 378.02 58.5553 383.312 52.8489 382.988C53.0751 378.615 50.847 374.198 47.1984 371.78C44.5167 370.004 41.1405 369.366 37.9759 369.907C35.2455 372.586 33.0637 375.937 32.5577 380.126C31.0435 392.67 45.9676 393.319 53.7537 390.724C61.5399 388.129 67.1636 380.991 69.759 379.693C72.3544 378.395 81.6547 375.367 82.5194 373.205C82.7688 372.582 83.3927 370.938 83.9619 368.853C81.4978 371.197 78.5181 372.995 75.2636 373.978Z" fill="#FFF6D8"/>
<path d="M63.7008 339.897L61.1055 353.955C61.1055 353.955 62.965 353.683 65.0618 353.824C67.1342 353.963 69.4377 354.506 70.4058 356.119C72.3517 359.363 69.9728 365.203 71.7035 364.986C73.4341 364.77 72.7847 359.795 74.7318 358.931C76.679 358.066 80.3556 358.714 80.3556 358.714L80.9466 353.515L82.5192 339.681L63.7008 339.897Z" fill="#B56483"/>
<path d="M41.2014 366.994C47.5184 365.528 51.7532 371.173 54.9129 375.686C55.8263 376.99 57.9862 375.746 57.0644 374.429C53.181 368.881 48.0936 362.838 40.5398 364.591C38.9782 364.953 39.6386 367.356 41.2014 366.994Z" fill="#FFF6D8"/>
<path d="M47.8784 362.248C52.933 364.14 56.9039 367.837 59.2852 372.661C59.9955 374.099 62.1445 372.838 61.4367 371.404C58.7586 365.98 54.1905 361.959 48.54 359.845C47.0368 359.283 46.3886 361.691 47.8784 362.248Z" fill="#FFF6D8"/>
<path d="M52.0376 360.23C56.8696 361.747 60.6265 365.197 62.6758 369.811C63.3252 371.274 65.473 370.007 64.8272 368.554C62.5201 363.361 58.1089 359.525 52.7004 357.828C51.1656 357.346 50.5101 359.751 52.0376 360.23Z" fill="#FFF6D8"/>
<path d="M152.629 371.78C148.979 374.198 146.752 378.617 146.978 382.988C141.271 383.314 136.956 378.02 131.644 375.905C129.37 374.999 126.906 374.686 124.562 373.978C121.308 372.995 118.328 371.197 115.865 368.854C114.493 363.823 113.483 356.17 118.879 353.515L119.47 358.715C119.47 358.715 123.147 358.066 125.094 358.931C127.04 359.796 126.392 364.77 128.122 364.987C129.853 365.203 127.474 359.363 129.42 356.119C130.388 354.507 132.692 353.963 134.764 353.824L138.72 353.956L138.504 351.144C138.504 351.144 142.18 350.711 142.83 352.442C143.478 354.172 145.858 359.795 147.588 361.092C148.741 361.957 156.405 364.565 161.851 369.906C158.686 369.366 155.311 370.004 152.629 371.78Z" fill="#443032"/>
<path d="M124.562 373.978C126.906 374.686 129.37 374.999 131.644 375.905C136.955 378.02 141.271 383.312 146.978 382.988C146.752 378.615 148.98 374.198 152.629 371.78C155.31 370.004 158.687 369.366 161.851 369.907C164.582 372.586 166.763 375.937 167.269 380.126C168.784 392.67 153.859 393.319 146.073 390.724C138.287 388.129 132.663 380.991 130.068 379.693C127.473 378.395 118.172 375.367 117.308 373.205C117.058 372.582 116.434 370.938 115.865 368.853C118.328 371.197 121.308 372.995 124.562 373.978Z" fill="#FFF6D8"/>
<path d="M136.124 339.897L138.719 353.955C138.719 353.955 136.859 353.683 134.763 353.824C132.69 353.963 130.387 354.506 129.419 356.119C127.473 359.363 129.852 365.203 128.121 364.986C126.39 364.77 127.04 359.795 125.093 358.931C123.145 358.066 119.469 358.714 119.469 358.714L118.878 353.515L117.305 339.681L136.124 339.897Z" fill="#B56483"/>
<path d="M159.286 364.591C151.729 362.837 146.643 368.884 142.762 374.429C141.84 375.745 144 376.991 144.913 375.686C148.073 371.173 152.307 365.527 158.625 366.994C160.184 367.357 160.85 364.955 159.286 364.591Z" fill="#FFF6D8"/>
<path d="M151.285 359.846C145.634 361.96 141.066 365.981 138.388 371.405C137.68 372.838 139.829 374.102 140.54 372.663C142.922 367.838 146.892 364.141 151.948 362.25C153.435 361.691 152.79 359.283 151.285 359.846Z" fill="#FFF6D8"/>
<path d="M147.125 357.828C141.717 359.525 137.306 363.359 134.999 368.554C134.353 370.006 136.499 371.276 137.15 369.811C139.199 365.198 142.955 361.747 147.788 360.23C149.313 359.752 148.661 357.346 147.125 357.828Z" fill="#FFF6D8"/>
<path d="M144.95 195.21L79.9133 198.075C79.9133 198.075 75.5556 237.923 73.381 271.579C72.2633 281.321 61.2822 342.831 61.2822 342.831C61.2822 342.831 63.3023 354.413 83.1277 347.536C84.6151 347.536 101.028 265.836 111.614 233.606C111.728 234.178 113.085 272.389 112.244 276.957C110.014 289.056 111.328 327.151 116.027 346.636C116.142 346.063 129.323 351.794 137.346 346.636C136.201 347.209 135.716 292.357 137.91 280.654C139.326 273.101 148.945 207.244 144.95 195.21Z" fill="#733119"/>
<path d="M112.858 232.537C114.183 226.476 117.623 222.164 122.194 218.161C122.71 217.709 122.044 216.902 121.471 217.23C116.112 220.31 112.794 226.263 111.629 232.201C111.472 233 112.681 233.343 112.858 232.537Z" fill="#491809"/>
<path d="M119.272 224.464C121.351 222.538 123.618 220.698 125.53 218.608C125.984 218.111 125.309 217.496 124.806 217.891C122.575 219.641 120.567 221.76 118.488 223.687C117.966 224.171 118.75 224.947 119.272 224.464Z" fill="#491809"/>
<path d="M98.1833 210.434C101.21 213.056 104.168 215.798 107.344 218.24C107.973 218.723 108.853 217.914 108.239 217.335C105.325 214.587 102.148 212.102 99.0785 209.529C98.457 209.009 97.5594 209.894 98.1833 210.434Z" fill="#491809"/>
<path d="M104.592 212.027C105.127 212.558 105.664 213.088 106.199 213.618C106.721 214.134 107.176 214.65 107.843 214.971C108.18 215.134 108.556 214.794 108.364 214.447C108.005 213.797 107.475 213.375 106.929 212.881C106.369 212.375 105.809 211.869 105.249 211.363C104.805 210.963 104.162 211.602 104.592 212.027Z" fill="#491809"/>
<path d="M92.1104 99.4617L102.627 110.596L112.048 105.611L113.142 97.0694C113.142 97.0694 95.7395 96.6389 92.1104 99.4617Z" fill="#648C81"/>
<path d="M150.131 191.879L82.7868 187.486C82.7868 187.486 78.4474 196.994 79.2793 200.797C80.1112 204.6 99.9353 214.109 115.696 211.446C131.456 208.784 142.691 210.895 147.172 205.19C151.651 199.485 150.131 191.879 150.131 191.879Z" fill="#AEE8D5"/>
<path d="M127.282 103.781L138.481 136.492H161.593L165.221 105.335C165.221 105.335 135.429 100.334 127.282 103.781Z" fill="#9BCFBE"/>
<path d="M146.629 150.713C146.964 148.317 147.633 140.786 147.812 135.309C147.99 129.833 131.699 103.457 131.699 103.457L92.1106 108.605C83.9815 111.348 81.4566 114.428 81.8628 120.933C82.2691 127.437 87.7456 158.243 88.4303 162.694C89.1151 167.144 76.5444 182.92 79.2784 190.907C82.0124 198.894 125.409 218.5 151.651 199.484C156.216 195.681 146.294 153.11 146.629 150.713Z" fill="#648C81"/>
<path d="M131.699 103.459C131.699 103.459 126.86 102.655 127.282 103.78C127.704 104.907 124.083 95.9688 124.083 95.9688L100.619 97.0548C101.602 102.332 101.523 104.745 99.7931 105.55C98.0625 106.354 92.1104 108.606 92.1104 108.606C92.1104 108.606 113.907 131.45 124.084 123.568C134.26 115.686 131.699 103.459 131.699 103.459Z" fill="#663E21"/>
<mask id="mask9_2199_34684" style="mask-type:luminance" maskUnits="userSpaceOnUse" x="41" y="71" width="43" height="44">
<path d="M77.4819 73.4619C74.2589 71.2107 69.7748 71.7191 66.2466 73.451C64.9854 74.07 63.74 74.8448 62.3389 74.953C59.6949 75.1561 57.3853 72.9463 54.734 72.8648C51.2033 72.7565 47.8247 76.4039 44.6103 74.9396C44.0107 74.6672 43.2846 74.2598 42.6777 74.2135C41.9006 75.4042 41.7364 77.1811 42.0806 78.6405C42.6121 80.8844 43.8417 83.0639 43.5181 85.3479C43.4087 86.1202 43.1216 86.873 43.1448 87.6526C43.225 90.3672 46.6827 91.6029 47.9135 94.0243C49.1638 96.4847 48.1884 100.233 50.5965 101.582C51.8735 102.296 53.6783 101.943 54.678 103.011C56.0828 104.51 54.5734 107.337 55.9392 108.871C57.5361 110.662 61.2261 108.742 62.6065 110.706C62.9945 111.258 63.054 111.978 63.3605 112.579C64.0003 113.836 65.6227 114.326 67.0128 114.082C67.5747 113.983 68.1013 113.776 68.6133 113.529C69.1813 112.714 69.7724 111.911 70.0837 110.973C70.687 109.15 70.1713 106.977 71.2513 105.39C72.1221 104.108 73.815 103.579 74.6883 102.298C76.301 99.9339 74.3696 96.3497 75.9689 93.9769C76.8872 92.6147 78.754 92.0492 79.4716 90.5727C79.7927 89.9111 79.8353 89.1522 79.8596 88.4164C79.9107 86.9156 79.924 85.3698 80.5029 83.9845C81.0819 82.5993 82.3917 81.3965 83.8925 81.4488L77.4819 73.4619Z" fill="white"/>
</mask>
<g mask="url(#mask9_2199_34684)">
<path d="M77.4819 73.4619C74.2589 71.2107 69.7748 71.7191 66.2466 73.451C64.9854 74.07 63.74 74.8448 62.3389 74.953C59.6949 75.1561 57.3853 72.9463 54.734 72.8648C51.2033 72.7565 47.8247 76.4039 44.6103 74.9396C44.0107 74.6672 43.2846 74.2598 42.6777 74.2135C41.9006 75.4042 41.7364 77.1811 42.0806 78.6405C42.6121 80.8844 43.8417 83.0639 43.5181 85.3479C43.4087 86.1202 43.1216 86.873 43.1448 87.6526C43.225 90.3672 46.6827 91.6029 47.9135 94.0243C49.1638 96.4847 48.1884 100.233 50.5965 101.582C51.8735 102.296 53.6783 101.943 54.678 103.011C56.0828 104.51 54.5734 107.337 55.9392 108.871C57.5361 110.662 61.2261 108.742 62.6065 110.706C62.9945 111.258 63.054 111.978 63.3605 112.579C64.0003 113.836 65.6227 114.326 67.0128 114.082C67.5747 113.983 68.1013 113.776 68.6133 113.529C69.1813 112.714 69.7724 111.911 70.0837 110.973C70.687 109.15 70.1713 106.977 71.2513 105.39C72.1221 104.108 73.815 103.579 74.6883 102.298C76.301 99.9339 74.3696 96.3497 75.9689 93.9769C76.8872 92.6147 78.754 92.0492 79.4716 90.5727C79.7927 89.9111 79.8353 89.1522 79.8596 88.4164C79.9107 86.9156 79.924 85.3698 80.5029 83.9845C81.0819 82.5993 82.3917 81.3965 83.8925 81.4488L77.4819 73.4619Z" fill="#290E00"/>
</g>
<mask id="mask10_2199_34684" style="mask-type:luminance" maskUnits="userSpaceOnUse" x="41" y="71" width="43" height="44">
<path d="M77.4819 73.4619C74.2589 71.2107 69.7748 71.7191 66.2466 73.451C64.9854 74.07 63.74 74.8448 62.3389 74.953C59.6949 75.1561 57.3853 72.9463 54.734 72.8648C51.2033 72.7565 47.8247 76.4039 44.6103 74.9396C44.0107 74.6672 43.2846 74.2598 42.6777 74.2135C41.9006 75.4042 41.7364 77.1811 42.0806 78.6405C42.6121 80.8844 43.8417 83.0639 43.5181 85.3479C43.4087 86.1202 43.1216 86.873 43.1448 87.6526C43.225 90.3672 46.6827 91.6029 47.9135 94.0243C49.1638 96.4847 48.1884 100.233 50.5965 101.582C51.8735 102.296 53.6783 101.943 54.678 103.011C56.0828 104.51 54.5734 107.337 55.9392 108.871C57.5361 110.662 61.2261 108.742 62.6065 110.706C62.9945 111.258 63.054 111.978 63.3605 112.579C64.0003 113.836 65.6227 114.326 67.0128 114.082C67.5747 113.983 68.1013 113.776 68.6133 113.529C69.1813 112.714 69.7724 111.911 70.0837 110.973C70.687 109.15 70.1713 106.977 71.2513 105.39C72.1221 104.108 73.815 103.579 74.6883 102.298C76.301 99.9339 74.3696 96.3497 75.9689 93.9769C76.8872 92.6147 78.754 92.0492 79.4716 90.5727C79.7927 89.9111 79.8353 89.1522 79.8596 88.4164C79.9107 86.9156 79.924 85.3698 80.5029 83.9845C81.0819 82.5993 82.3917 81.3965 83.8925 81.4488L77.4819 73.4619Z" fill="white"/>
</mask>
<g mask="url(#mask10_2199_34684)">
<path d="M39.3501 83.8903C39.957 81.4274 43.1045 81.6184 44.9836 82.2265C46.921 82.8528 48.9581 83.9146 51.0366 83.2639C52.473 82.8139 53.4836 81.6391 54.5575 80.6588C55.5317 79.7685 56.5424 79.0619 57.913 79.0656C59.246 79.0692 60.5011 79.6603 61.8073 79.8415C65.76 80.39 68.038 76.4933 71.7352 76.1576C72.7799 76.0628 73.821 76.3279 74.8669 76.2245C75.7171 76.1406 76.5173 75.845 77.2884 75.4911C79.2368 74.596 81.1839 73.0174 83.4436 73.6851C83.7902 73.7872 83.9374 73.246 83.592 73.1439C81.7543 72.6002 80.1295 73.398 78.518 74.2384C77.5548 74.7407 76.5879 75.2965 75.5213 75.5471C74.1287 75.8742 72.7386 75.4376 71.34 75.6456C69.512 75.918 68.0063 77.0831 66.4703 78.0196C65.5812 78.5608 64.6435 79.0875 63.6073 79.2796C62.0019 79.5764 60.5255 78.8795 58.9748 78.6204C57.1724 78.3188 55.8005 78.8296 54.4493 80.002C53.5882 80.75 52.8378 81.6658 51.8539 82.263C50.5003 83.0839 49.0712 82.9769 47.5972 82.5439C45.7133 81.9905 43.9936 81.0577 41.9759 81.3095C40.4921 81.4943 39.1835 82.2289 38.8101 83.7443C38.7237 84.0921 39.2637 84.2405 39.3501 83.8903Z" fill="#66270C"/>
</g>
<mask id="mask11_2199_34684" style="mask-type:luminance" maskUnits="userSpaceOnUse" x="41" y="71" width="43" height="44">
<path d="M77.4819 73.4619C74.2589 71.2107 69.7748 71.7191 66.2466 73.451C64.9854 74.07 63.74 74.8448 62.3389 74.953C59.6949 75.1561 57.3853 72.9463 54.734 72.8648C51.2033 72.7565 47.8247 76.4039 44.6103 74.9396C44.0107 74.6672 43.2846 74.2598 42.6777 74.2135C41.9006 75.4042 41.7364 77.1811 42.0806 78.6405C42.6121 80.8844 43.8417 83.0639 43.5181 85.3479C43.4087 86.1202 43.1216 86.873 43.1448 87.6526C43.225 90.3672 46.6827 91.6029 47.9135 94.0243C49.1638 96.4847 48.1884 100.233 50.5965 101.582C51.8735 102.296 53.6783 101.943 54.678 103.011C56.0828 104.51 54.5734 107.337 55.9392 108.871C57.5361 110.662 61.2261 108.742 62.6065 110.706C62.9945 111.258 63.054 111.978 63.3605 112.579C64.0003 113.836 65.6227 114.326 67.0128 114.082C67.5747 113.983 68.1013 113.776 68.6133 113.529C69.1813 112.714 69.7724 111.911 70.0837 110.973C70.687 109.15 70.1713 106.977 71.2513 105.39C72.1221 104.108 73.815 103.579 74.6883 102.298C76.301 99.9339 74.3696 96.3497 75.9689 93.9769C76.8872 92.6147 78.754 92.0492 79.4716 90.5727C79.7927 89.9111 79.8353 89.1522 79.8596 88.4164C79.9107 86.9156 79.924 85.3698 80.5029 83.9845C81.0819 82.5993 82.3917 81.3965 83.8925 81.4488L77.4819 73.4619Z" fill="white"/>
</mask>
<g mask="url(#mask11_2199_34684)">
<path d="M42.555 96.3105C42.4456 93.4682 45.9592 93.0681 48.0255 92.9683C49.6954 92.8881 51.3968 92.7494 52.7128 91.6038C53.3136 91.0808 53.766 90.4167 54.2963 89.8293C55.4736 88.5279 56.303 88.6435 57.9777 88.7882C59.2146 88.8965 60.1389 88.4148 60.9757 87.5282C62.2405 86.1868 63.0396 84.3819 64.915 83.7726C66.9266 83.1195 68.8652 83.3944 70.7382 82.2219C72.6233 81.0422 74.2335 79.483 76.1454 78.3252C78.3248 77.0056 80.6551 75.9937 83.0887 75.2482C83.4329 75.1424 83.2894 74.6012 82.944 74.707C80.6271 75.4173 78.3978 76.3598 76.3023 77.5809C74.2177 78.7959 72.4846 80.4669 70.4548 81.7391C68.3009 83.0903 65.5656 82.4202 63.5078 83.8346C62.1736 84.7516 61.4986 86.2938 60.3372 87.3799C59.1331 88.5061 58.2489 88.1035 56.7676 88.0232C56.1546 87.9904 55.6037 88.0853 55.071 88.3954C53.0728 89.5557 52.6155 91.7363 50.059 92.2228C47.4381 92.7214 41.835 92.1145 41.9956 96.3044C42.0089 96.6668 42.5696 96.6717 42.555 96.3105Z" fill="#66270C"/>
</g>
<mask id="mask12_2199_34684" style="mask-type:luminance" maskUnits="userSpaceOnUse" x="41" y="71" width="43" height="44">
<path d="M77.4819 73.4619C74.2589 71.2107 69.7748 71.7191 66.2466 73.451C64.9854 74.07 63.74 74.8448 62.3389 74.953C59.6949 75.1561 57.3853 72.9463 54.734 72.8648C51.2033 72.7565 47.8247 76.4039 44.6103 74.9396C44.0107 74.6672 43.2846 74.2598 42.6777 74.2135C41.9006 75.4042 41.7364 77.1811 42.0806 78.6405C42.6121 80.8844 43.8417 83.0639 43.5181 85.3479C43.4087 86.1202 43.1216 86.873 43.1448 87.6526C43.225 90.3672 46.6827 91.6029 47.9135 94.0243C49.1638 96.4847 48.1884 100.233 50.5965 101.582C51.8735 102.296 53.6783 101.943 54.678 103.011C56.0828 104.51 54.5734 107.337 55.9392 108.871C57.5361 110.662 61.2261 108.742 62.6065 110.706C62.9945 111.258 63.054 111.978 63.3605 112.579C64.0003 113.836 65.6227 114.326 67.0128 114.082C67.5747 113.983 68.1013 113.776 68.6133 113.529C69.1813 112.714 69.7724 111.911 70.0837 110.973C70.687 109.15 70.1713 106.977 71.2513 105.39C72.1221 104.108 73.815 103.579 74.6883 102.298C76.301 99.9339 74.3696 96.3497 75.9689 93.9769C76.8872 92.6147 78.754 92.0492 79.4716 90.5727C79.7927 89.9111 79.8353 89.1522 79.8596 88.4164C79.9107 86.9156 79.924 85.3698 80.5029 83.9845C81.0819 82.5993 82.3917 81.3965 83.8925 81.4488L77.4819 73.4619Z" fill="white"/>
</mask>
<g mask="url(#mask12_2199_34684)">
<path d="M49.2767 106.36C52.3598 107.727 54.5782 104.545 55.9269 102.248C56.428 101.395 56.9425 100.523 57.6515 99.8241C58.5016 98.9861 59.5232 98.721 60.6251 98.3938C61.8462 98.0314 62.8739 97.5279 63.2412 96.2192C63.4844 95.3557 63.3981 94.429 63.8748 93.6324C64.3066 92.9112 65.0521 92.4563 65.7867 92.0939C67.0893 91.4517 68.5426 91.1039 69.7649 90.3C70.9556 89.5179 71.3119 88.5462 71.7948 87.2619C72.6096 85.097 74.7234 85.0727 76.544 84.2031C78.3331 83.3481 78.7624 81.6722 79.8436 80.1604C81.2775 78.1561 83.5944 77.0713 85.7641 76.0533C86.09 75.9001 85.8055 75.4173 85.4807 75.5693C83.5226 76.4875 81.4721 77.4556 79.9883 79.078C79.255 79.8807 78.8269 80.8099 78.2869 81.7403C77.5766 82.965 76.7374 83.5743 75.4215 84.0474C73.8587 84.6093 72.235 84.9596 71.4542 86.582C70.8717 87.7921 70.7817 88.8989 69.6153 89.7271C68.8625 90.2622 67.9747 90.5821 67.1257 90.9226C65.8548 91.4335 64.4282 91.9248 63.5793 93.0705C63.1719 93.6202 63.0125 94.2149 62.8946 94.8814C62.7182 95.8726 62.6635 96.8322 61.682 97.4063C61.1931 97.6921 60.6263 97.8003 60.09 97.9572C58.2426 98.4972 57.0641 99.3911 56.0169 101.016C54.6694 103.108 52.7782 107.3 49.5564 105.872C49.2305 105.73 48.9471 106.214 49.2767 106.36Z" fill="#66270C"/>
</g>
<mask id="mask13_2199_34684" style="mask-type:luminance" maskUnits="userSpaceOnUse" x="41" y="71" width="43" height="44">
<path d="M77.4819 73.4619C74.2589 71.2107 69.7748 71.7191 66.2466 73.451C64.9854 74.07 63.74 74.8448 62.3389 74.953C59.6949 75.1561 57.3853 72.9463 54.734 72.8648C51.2033 72.7565 47.8247 76.4039 44.6103 74.9396C44.0107 74.6672 43.2846 74.2598 42.6777 74.2135C41.9006 75.4042 41.7364 77.1811 42.0806 78.6405C42.6121 80.8844 43.8417 83.0639 43.5181 85.3479C43.4087 86.1202 43.1216 86.873 43.1448 87.6526C43.225 90.3672 46.6827 91.6029 47.9135 94.0243C49.1638 96.4847 48.1884 100.233 50.5965 101.582C51.8735 102.296 53.6783 101.943 54.678 103.011C56.0828 104.51 54.5734 107.337 55.9392 108.871C57.5361 110.662 61.2261 108.742 62.6065 110.706C62.9945 111.258 63.054 111.978 63.3605 112.579C64.0003 113.836 65.6227 114.326 67.0128 114.082C67.5747 113.983 68.1013 113.776 68.6133 113.529C69.1813 112.714 69.7724 111.911 70.0837 110.973C70.687 109.15 70.1713 106.977 71.2513 105.39C72.1221 104.108 73.815 103.579 74.6883 102.298C76.301 99.9339 74.3696 96.3497 75.9689 93.9769C76.8872 92.6147 78.754 92.0492 79.4716 90.5727C79.7927 89.9111 79.8353 89.1522 79.8596 88.4164C79.9107 86.9156 79.924 85.3698 80.5029 83.9845C81.0819 82.5993 82.3917 81.3965 83.8925 81.4488L77.4819 73.4619Z" fill="white"/>
</mask>
<g mask="url(#mask13_2199_34684)">
<path d="M57.8779 112.695C61.6421 112.573 62.7172 108.509 63.6464 105.576C63.9711 104.549 64.3421 103.519 64.966 102.631C65.641 101.67 66.6127 101.008 67.3874 100.142C68.7569 98.6129 68.5538 96.4688 70.1178 95.0884C71.5846 93.7919 72.8008 92.96 73.6922 91.1527C74.5947 89.3236 75.7379 87.7778 77.1378 86.2952C79.5641 83.7242 82.3346 81.3416 83.3222 77.8134C83.4195 77.4656 82.8783 77.3172 82.781 77.665C81.7824 81.2321 78.8684 83.5977 76.4457 86.2125C75.3755 87.3679 74.3721 88.5963 73.6339 89.9949C73.1255 90.9594 72.7606 91.9931 72.0017 92.8031C71.4192 93.4246 70.6955 93.8855 70.0424 94.4243C69.4951 94.8743 68.9636 95.3596 68.6097 95.9811C68.1159 96.8458 68.1463 97.8832 67.6988 98.7674C66.8997 100.346 65.1484 101.225 64.2265 102.744C62.4156 105.727 62.5214 111.981 57.8828 112.132C57.5228 112.147 57.5179 112.708 57.8779 112.695Z" fill="#66270C"/>
</g>
<path d="M76.7326 69.788C75.3571 68.584 73.067 68.6205 71.7316 69.8683C70.3962 71.1161 70.2028 73.399 71.3108 74.8523C71.7255 75.3972 72.3227 75.908 72.3105 76.5927C72.2984 77.2774 71.683 77.7663 71.2427 78.2893C70.3074 79.4009 70.0909 81.1182 70.8693 82.3454C71.6465 83.5725 73.4331 84.0931 74.6748 83.339C74.4243 85.2509 76.2328 87.1542 78.1556 86.9986C78.602 86.9621 79.0447 86.8344 79.4898 86.8794C79.9945 86.9292 80.4518 87.1956 80.948 87.2965C82.1302 87.5349 83.3306 86.7675 83.9752 85.7495C84.6197 84.7316 84.8277 83.5044 85.0223 82.315L76.7326 69.788Z" fill="#749B8E"/>
<mask id="mask14_2199_34684" style="mask-type:luminance" maskUnits="userSpaceOnUse" x="127" y="57" width="42" height="46">
<path d="M127.282 76.3207C127.587 80.2393 130.827 83.382 134.404 85.0105C135.683 85.5931 137.072 86.0625 138.045 87.078C139.88 88.9924 139.638 92.18 141.257 94.2804C143.413 97.0777 148.378 97.3732 149.287 100.787C149.456 101.423 149.603 102.244 149.952 102.742C151.365 102.586 152.843 101.586 153.751 100.393C155.149 98.559 156.052 96.2251 158.023 95.0247C158.689 94.6185 159.453 94.3631 160.04 93.8511C162.087 92.0669 160.848 88.6092 161.938 86.1233C163.045 83.5948 166.562 81.97 166.075 79.253C165.817 77.813 164.398 76.6418 164.589 75.1909C164.856 73.1537 167.998 72.5261 168.317 70.4963C168.689 68.1247 164.861 66.4913 165.503 64.1793C165.683 63.5287 166.202 63.0264 166.473 62.4073C167.038 61.1145 166.388 59.5492 165.317 58.631C164.884 58.2601 164.389 57.984 163.874 57.7456C162.882 57.8234 161.888 57.8757 160.966 58.2309C159.174 58.9217 157.822 60.6986 155.91 60.8725C154.367 61.0123 152.883 60.0406 151.339 60.178C148.489 60.4322 146.944 64.1988 144.096 64.4688C142.461 64.6245 140.839 63.5408 139.242 63.9227C138.527 64.0942 137.914 64.5442 137.33 64.9917C136.138 65.9051 134.935 66.8757 133.497 67.3074C132.058 67.7392 130.298 67.4898 129.386 66.2967L127.282 76.3207Z" fill="white"/>
</mask>
<g mask="url(#mask14_2199_34684)">
<path d="M127.282 76.3207C127.587 80.2393 130.827 83.382 134.404 85.0105C135.683 85.5931 137.072 86.0625 138.045 87.078C139.88 88.9924 139.638 92.18 141.257 94.2804C143.413 97.0777 148.378 97.3732 149.287 100.787C149.456 101.423 149.603 102.244 149.952 102.742C151.365 102.586 152.843 101.586 153.751 100.393C155.149 98.559 156.052 96.2251 158.023 95.0247C158.689 94.6185 159.453 94.3631 160.04 93.8511C162.087 92.0669 160.848 88.6092 161.938 86.1233C163.045 83.5948 166.562 81.97 166.075 79.253C165.817 77.813 164.398 76.6418 164.589 75.1909C164.856 73.1537 167.998 72.5261 168.317 70.4963C168.689 68.1247 164.861 66.4913 165.503 64.1793C165.683 63.5287 166.202 63.0264 166.473 62.4073C167.038 61.1145 166.388 59.5492 165.317 58.631C164.884 58.2601 164.389 57.984 163.874 57.7456C162.882 57.8234 161.888 57.8757 160.966 58.2309C159.174 58.9217 157.822 60.6986 155.91 60.8725C154.367 61.0123 152.883 60.0406 151.339 60.178C148.489 60.4322 146.944 64.1988 144.096 64.4688C142.461 64.6245 140.839 63.5408 139.242 63.9227C138.527 64.0942 137.914 64.5442 137.33 64.9917C136.138 65.9051 134.935 66.8757 133.497 67.3074C132.058 67.7392 130.298 67.4898 129.386 66.2967L127.282 76.3207Z" fill="#290E00"/>
</g>
<mask id="mask15_2199_34684" style="mask-type:luminance" maskUnits="userSpaceOnUse" x="127" y="57" width="42" height="46">
<path d="M127.282 76.3207C127.587 80.2393 130.827 83.382 134.404 85.0105C135.683 85.5931 137.072 86.0625 138.045 87.078C139.88 88.9924 139.638 92.18 141.257 94.2804C143.413 97.0777 148.378 97.3732 149.287 100.787C149.456 101.423 149.603 102.244 149.952 102.742C151.365 102.586 152.843 101.586 153.751 100.393C155.149 98.559 156.052 96.2251 158.023 95.0247C158.689 94.6185 159.453 94.3631 160.04 93.8511C162.087 92.0669 160.848 88.6092 161.938 86.1233C163.045 83.5948 166.562 81.97 166.075 79.253C165.817 77.813 164.398 76.6418 164.589 75.1909C164.856 73.1537 167.998 72.5261 168.317 70.4963C168.689 68.1247 164.861 66.4913 165.503 64.1793C165.683 63.5287 166.202 63.0264 166.473 62.4073C167.038 61.1145 166.388 59.5492 165.317 58.631C164.884 58.2601 164.389 57.984 163.874 57.7456C162.882 57.8234 161.888 57.8757 160.966 58.2309C159.174 58.9217 157.822 60.6986 155.91 60.8725C154.367 61.0123 152.883 60.0406 151.339 60.178C148.489 60.4322 146.944 64.1988 144.096 64.4688C142.461 64.6245 140.839 63.5408 139.242 63.9227C138.527 64.0942 137.914 64.5442 137.33 64.9917C136.138 65.9051 134.935 66.8757 133.497 67.3074C132.058 67.7392 130.298 67.4898 129.386 66.2967L127.282 76.3207Z" fill="white"/>
</mask>
<g mask="url(#mask15_2199_34684)">
<path d="M159.513 99.1847C156.508 100.575 154.909 96.4835 154.152 94.4099C153.618 92.9431 152.979 91.4083 151.617 90.5229C149.966 89.4526 147.913 89.7615 146.102 89.2179C143.443 88.4201 143.269 85.8283 141.83 83.8775C140.875 82.5835 139.444 81.9207 137.963 81.4062C135.559 80.5707 133.675 80.0149 132.1 77.878C131.03 76.4271 129.922 75.5867 128.262 74.8606C126.545 74.109 124.472 73.5033 123.688 71.6157C123.551 71.2874 123.008 71.4285 123.146 71.7605C123.795 73.3209 125.108 74.1029 126.603 74.7609C127.514 75.1622 128.455 75.5027 129.325 75.9929C130.64 76.7323 131.288 77.861 132.219 78.9872C133.374 80.3809 134.962 81.0024 136.633 81.557C137.768 81.9341 138.945 82.2661 139.965 82.9082C141.178 83.672 141.795 84.8189 142.389 86.0752C143.287 87.9725 144.227 89.3724 146.371 89.8625C148.866 90.4329 151.371 90.1252 152.821 92.7035C153.879 94.5862 154.075 96.8386 155.579 98.4757C156.705 99.7016 158.217 100.403 159.8 99.67C160.124 99.5167 159.838 99.0339 159.513 99.1847Z" fill="#66270C"/>
</g>
<mask id="mask16_2199_34684" style="mask-type:luminance" maskUnits="userSpaceOnUse" x="127" y="57" width="42" height="46">
<path d="M127.282 76.3207C127.587 80.2393 130.827 83.382 134.404 85.0105C135.683 85.5931 137.072 86.0625 138.045 87.078C139.88 88.9924 139.638 92.18 141.257 94.2804C143.413 97.0777 148.378 97.3732 149.287 100.787C149.456 101.423 149.603 102.244 149.952 102.742C151.365 102.586 152.843 101.586 153.751 100.393C155.149 98.559 156.052 96.2251 158.023 95.0247C158.689 94.6185 159.453 94.3631 160.04 93.8511C162.087 92.0669 160.848 88.6092 161.938 86.1233C163.045 83.5948 166.562 81.97 166.075 79.253C165.817 77.813 164.398 76.6418 164.589 75.1909C164.856 73.1537 167.998 72.5261 168.317 70.4963C168.689 68.1247 164.861 66.4913 165.503 64.1793C165.683 63.5287 166.202 63.0264 166.473 62.4073C167.038 61.1145 166.388 59.5492 165.317 58.631C164.884 58.2601 164.389 57.984 163.874 57.7456C162.882 57.8234 161.888 57.8757 160.966 58.2309C159.174 58.9217 157.822 60.6986 155.91 60.8725C154.367 61.0123 152.883 60.0406 151.339 60.178C148.489 60.4322 146.944 64.1988 144.096 64.4688C142.461 64.6245 140.839 63.5408 139.242 63.9227C138.527 64.0942 137.914 64.5442 137.33 64.9917C136.138 65.9051 134.935 66.8757 133.497 67.3074C132.058 67.7392 130.298 67.4898 129.386 66.2967L127.282 76.3207Z" fill="white"/>
</mask>
<g mask="url(#mask16_2199_34684)">
<path d="M167.083 88.8294C164.911 90.7377 162.372 88.1508 160.963 86.6038C159.925 85.463 158.813 84.3185 157.245 83.9914C156.448 83.8247 155.641 83.8868 154.835 83.8539C153.321 83.7907 152.563 83.3358 151.723 82.0345C150.922 80.7952 150.058 80.2333 148.548 80.1433C146.268 80.0059 144.361 80.5434 142.458 78.8748C141.102 77.6866 140.075 76.5518 138.312 75.9632C136.148 75.2408 133.866 74.9768 131.708 74.2009C129.363 73.3569 127.159 72.2136 125.084 70.8381C124.782 70.6386 124.504 71.1251 124.804 71.3234C126.77 72.6259 128.851 73.7181 131.057 74.556C133.379 75.4378 135.828 75.72 138.164 76.5044C140.479 77.2816 141.593 79.5607 143.792 80.4084C145.56 81.0895 147.457 80.4023 149.26 80.7867C151.344 81.2294 151.414 83.8114 153.529 84.2942C154.376 84.4876 155.261 84.3793 156.12 84.4316C157.562 84.518 158.628 85.0434 159.666 86.048C161.568 87.8881 164.552 91.7994 167.482 89.2271C167.753 88.9851 167.353 88.5923 167.083 88.8294Z" fill="#66270C"/>
</g>
<mask id="mask17_2199_34684" style="mask-type:luminance" maskUnits="userSpaceOnUse" x="127" y="57" width="42" height="46">
<path d="M127.282 76.3207C127.587 80.2393 130.827 83.382 134.404 85.0105C135.683 85.5931 137.072 86.0625 138.045 87.078C139.88 88.9924 139.638 92.18 141.257 94.2804C143.413 97.0777 148.378 97.3732 149.287 100.787C149.456 101.423 149.603 102.244 149.952 102.742C151.365 102.586 152.843 101.586 153.751 100.393C155.149 98.559 156.052 96.2251 158.023 95.0247C158.689 94.6185 159.453 94.3631 160.04 93.8511C162.087 92.0669 160.848 88.6092 161.938 86.1233C163.045 83.5948 166.562 81.97 166.075 79.253C165.817 77.813 164.398 76.6418 164.589 75.1909C164.856 73.1537 167.998 72.5261 168.317 70.4963C168.689 68.1247 164.861 66.4913 165.503 64.1793C165.683 63.5287 166.202 63.0264 166.473 62.4073C167.038 61.1145 166.388 59.5492 165.317 58.631C164.884 58.2601 164.389 57.984 163.874 57.7456C162.882 57.8234 161.888 57.8757 160.966 58.2309C159.174 58.9217 157.822 60.6986 155.91 60.8725C154.367 61.0123 152.883 60.0406 151.339 60.178C148.489 60.4322 146.944 64.1988 144.096 64.4688C142.461 64.6245 140.839 63.5408 139.242 63.9227C138.527 64.0942 137.914 64.5442 137.33 64.9917C136.138 65.9051 134.935 66.8757 133.497 67.3074C132.058 67.7392 130.298 67.4898 129.386 66.2967L127.282 76.3207Z" fill="white"/>
</mask>
<g mask="url(#mask17_2199_34684)">
<path d="M170.601 77.2116C169.529 73.1374 164.337 74.7792 161.468 74.9276C159.768 75.0152 158.608 74.4521 157.259 73.5302C156.646 73.1118 155.999 72.6776 155.234 72.6193C154.365 72.5536 153.673 73.0024 152.958 73.4244C151.819 74.0982 150.796 74.2052 149.56 73.7309C147.845 73.0741 146.381 71.757 144.537 71.4286C143.829 71.3021 143.207 71.3666 142.526 71.5745C141.779 71.802 141.14 72.2301 140.326 72.2167C139.568 72.2045 138.894 71.8409 138.259 71.4699C136.493 70.4337 135.2 69.5167 133.05 69.8962C131.445 70.1795 130.045 70.3912 128.42 70.0056C126.899 69.6456 125.476 68.9646 124.071 68.2956C123.747 68.1412 123.464 68.6252 123.791 68.7809C125.792 69.7332 127.88 70.7195 130.133 70.8193C131.543 70.8813 132.857 70.3024 134.252 70.3194C135.55 70.3364 136.571 71.0844 137.628 71.7375C139.297 72.7676 140.363 72.9489 142.207 72.2958C144.448 71.5016 146.081 72.5767 148.022 73.6129C149.199 74.2417 150.53 74.8583 151.894 74.5299C152.851 74.2988 153.546 73.5059 154.482 73.2578C155.931 72.8747 156.96 74.114 158.074 74.7707C159.786 75.7814 161.687 75.5114 163.565 75.2171C165.758 74.8729 169.317 74.5336 170.061 77.3564C170.151 77.7054 170.693 77.5607 170.601 77.2116Z" fill="#66270C"/>
</g>
<mask id="mask18_2199_34684" style="mask-type:luminance" maskUnits="userSpaceOnUse" x="127" y="57" width="42" height="46">
<path d="M127.282 76.3207C127.587 80.2393 130.827 83.382 134.404 85.0105C135.683 85.5931 137.072 86.0625 138.045 87.078C139.88 88.9924 139.638 92.18 141.257 94.2804C143.413 97.0777 148.378 97.3732 149.287 100.787C149.456 101.423 149.603 102.244 149.952 102.742C151.365 102.586 152.843 101.586 153.751 100.393C155.149 98.559 156.052 96.2251 158.023 95.0247C158.689 94.6185 159.453 94.3631 160.04 93.8511C162.087 92.0669 160.848 88.6092 161.938 86.1233C163.045 83.5948 166.562 81.97 166.075 79.253C165.817 77.813 164.398 76.6418 164.589 75.1909C164.856 73.1537 167.998 72.5261 168.317 70.4963C168.689 68.1247 164.861 66.4913 165.503 64.1793C165.683 63.5287 166.202 63.0264 166.473 62.4073C167.038 61.1145 166.388 59.5492 165.317 58.631C164.884 58.2601 164.389 57.984 163.874 57.7456C162.882 57.8234 161.888 57.8757 160.966 58.2309C159.174 58.9217 157.822 60.6986 155.91 60.8725C154.367 61.0123 152.883 60.0406 151.339 60.178C148.489 60.4322 146.944 64.1988 144.096 64.4688C142.461 64.6245 140.839 63.5408 139.242 63.9227C138.527 64.0942 137.914 64.5442 137.33 64.9917C136.138 65.9051 134.935 66.8757 133.497 67.3074C132.058 67.7392 130.298 67.4898 129.386 66.2967L127.282 76.3207Z" fill="white"/>
</mask>
<g mask="url(#mask18_2199_34684)">
<path d="M170.023 66.5456C167.937 64.1679 164.611 65.0825 162.082 66.1272C159.8 67.0698 157.951 67.6329 155.47 67.313C154.567 67.1975 153.662 67.0831 152.77 67.3167C151.615 67.6183 150.743 68.376 149.482 68.3675C147.682 68.3565 146.116 67.4979 144.283 67.8117C142.116 68.1826 140.158 68.5961 137.933 68.4708C134.208 68.2616 130.46 67.5125 126.912 69.0546C126.582 69.1981 126.868 69.681 127.195 69.5387C130.79 67.9746 134.679 68.9087 138.438 69.057C140.171 69.1252 141.793 68.9585 143.477 68.5645C145.482 68.095 147.033 68.6752 148.994 68.8904C150.905 69.0996 152.269 67.7448 154.134 67.7387C155.872 67.7326 157.425 68.2385 159.164 67.8031C162.342 67.009 166.768 63.6851 169.626 66.9445C169.866 67.2145 170.26 66.8156 170.023 66.5456Z" fill="#66270C"/>
</g>
<path d="M124.919 79.2293C124.86 81.056 126.343 82.8025 128.155 83.0433C129.967 83.2841 131.853 81.984 132.274 80.2059C132.432 79.5394 132.448 78.7538 132.986 78.3293C133.522 77.9048 134.291 78.0703 134.975 78.0775C136.428 78.0946 137.892 77.1715 138.348 75.7923C138.803 74.4131 138.071 72.7019 136.7 72.2203C138.337 71.2011 138.659 68.5948 137.319 67.2083C137.009 66.886 136.628 66.6258 136.38 66.2536C136.099 65.8316 136.014 65.3098 135.777 64.8623C135.211 63.7981 133.857 63.3566 132.66 63.505C131.463 63.6534 130.384 64.2712 129.342 64.8756L124.919 79.2293Z" fill="#749B8E"/>
<path d="M111.075 83.7673C107.37 83.9631 103.738 85.3447 100.839 87.6616C99.5282 88.7099 97.9861 90.0332 96.3965 89.4956C95.5853 89.2207 95.0124 88.5129 94.3338 87.99C90.8688 85.3228 85.295 87.8075 81.7461 85.2523C78.933 83.2261 78.4161 78.6738 75.1932 77.3968C74.2409 77.0185 73.1767 77.0015 72.2159 76.6464C67.829 75.0252 68.4128 68.2667 65.0159 65.0499C64.1305 64.2107 62.9983 63.65 62.1834 62.7415C58.9228 59.1063 62.6346 53.2527 61.4196 48.5229C60.696 45.7073 58.2356 43.4841 57.9218 40.5944C57.4524 36.2842 61.748 33.1354 63.7183 29.274C65.0403 26.6822 65.3528 23.587 67.1078 21.2665C68.3739 19.5917 70.2554 18.5081 72.1222 17.5485C75.1421 15.9966 78.2653 14.6467 81.4651 13.5107C82.6534 13.0887 83.8635 12.691 84.9398 12.0355C86.1913 11.2729 87.2166 10.1905 88.4145 9.34643C91.421 7.22902 97.485 6.28281 97.485 6.28281C101.073 3.73243 104.861 1.24893 109.167 0.329482C113.472 -0.589969 118.444 0.370837 121.242 3.76891C121.92 4.59229 122.506 5.57499 123.483 6.00066C124.522 6.45431 125.714 6.15268 126.828 5.94471C129.263 5.49106 131.788 5.52147 134.211 6.03349C136.435 6.50416 138.644 7.42726 140.177 9.10563C143.451 12.6874 142.852 18.637 146.087 22.254C149.429 25.9902 155.37 25.7287 159.676 28.2949C162.84 30.1813 164.983 33.6815 165.222 37.3581C161.051 37.1221 158.88 42.2047 155.417 44.5373C153.091 46.1038 150.024 46.4565 147.976 48.372C146.771 49.5007 146.058 51.0489 145.031 52.3417C142.193 55.9174 137.379 57.1263 132.923 58.1187" fill="#290E00"/>
<mask id="mask19_2199_34684" style="mask-type:luminance" maskUnits="userSpaceOnUse" x="57" y="0" width="109" height="90">
<path d="M111.075 83.7673C107.37 83.9631 103.738 85.3447 100.839 87.6616C99.5282 88.7099 97.9861 90.0332 96.3965 89.4956C95.5853 89.2207 95.0124 88.5129 94.3338 87.99C90.8688 85.3228 85.295 87.8075 81.7461 85.2523C78.933 83.2261 78.4161 78.6738 75.1932 77.3968C74.2409 77.0185 73.1767 77.0015 72.2159 76.6464C67.829 75.0252 68.4128 68.2667 65.0159 65.0499C64.1305 64.2107 62.9983 63.65 62.1834 62.7415C58.9228 59.1063 62.6346 53.2527 61.4196 48.5229C60.696 45.7073 58.2356 43.4841 57.9218 40.5944C57.4524 36.2842 61.748 33.1354 63.7183 29.274C65.0403 26.6822 65.3528 23.587 67.1078 21.2665C68.3739 19.5917 70.2554 18.5081 72.1222 17.5485C75.1421 15.9966 78.2653 14.6467 81.4651 13.5107C82.6534 13.0887 83.8635 12.691 84.9398 12.0355C86.1913 11.2729 87.2166 10.1905 88.4145 9.34643C91.421 7.22902 97.485 6.28281 97.485 6.28281C101.073 3.73243 104.861 1.24893 109.167 0.329482C113.472 -0.589969 118.444 0.370837 121.242 3.76891C121.92 4.59229 122.506 5.57499 123.483 6.00066C124.522 6.45431 125.714 6.15268 126.828 5.94471C129.263 5.49106 131.788 5.52147 134.211 6.03349C136.435 6.50416 138.644 7.42726 140.177 9.10563C143.451 12.6874 142.852 18.637 146.087 22.254C149.429 25.9902 155.37 25.7287 159.676 28.2949C162.84 30.1813 164.983 33.6815 165.222 37.3581C161.051 37.1221 158.88 42.2047 155.417 44.5373C153.091 46.1038 150.024 46.4565 147.976 48.372C146.771 49.5007 146.058 51.0489 145.031 52.3417C142.193 55.9174 137.379 57.1263 132.923 58.1187" fill="white"/>
</mask>
<g mask="url(#mask19_2199_34684)">
<path d="M82.8129 13.4933C83.9768 12.963 85.2003 12.6991 86.4822 12.7854C87.8322 12.8766 88.8599 13.4738 90.0895 13.953C91.6912 14.5769 92.9135 14.0868 94.5237 13.756C94.9823 13.6623 95.4566 13.5784 95.9272 13.6295C97.158 13.7645 97.4463 14.4492 97.8634 15.4453C98.1128 16.04 98.2417 16.5617 98.7087 17.0507C100.067 18.47 103.676 19.0136 103.162 21.6248C103.093 21.9775 103.633 22.1271 103.704 21.7732C104.1 19.7543 102.343 18.639 100.787 17.7913C100.201 17.4715 99.5673 17.1431 99.1028 16.6529C98.4703 15.9852 98.5226 15.1558 98.1432 14.3847C97.8306 13.7487 97.2772 13.3704 96.601 13.1855C95.684 12.935 94.7755 13.1114 93.8755 13.34C92.9925 13.565 92.1485 13.8241 91.229 13.6854C90.4093 13.5626 89.7234 13.1296 88.9681 12.817C86.8531 11.9426 84.591 12.0691 82.5271 13.0104C82.2012 13.1588 82.487 13.6416 82.8129 13.4933Z" fill="#66270C"/>
<path d="M94.2207 13.5774C94.5248 10.6184 99.0904 11.0745 100.626 8.95342C101.237 8.11059 101.506 7.08899 102.021 6.19508C102.859 4.74293 104.141 4.27591 105.649 3.787C106.692 3.44889 107.656 3.09497 108.527 2.40782C109.429 1.69512 110.129 0.770792 110.939 -0.036768C113.004 -2.09337 115.627 -3.35944 118.491 -3.82403C118.846 -3.88241 118.699 -4.42361 118.347 -4.36523C115.638 -3.92497 113.113 -2.77565 111.069 -0.931886C109.901 0.121348 108.993 1.47376 107.662 2.33849C106.486 3.10348 105.053 3.27496 103.791 3.84779C102.799 4.29901 102.066 4.96306 101.535 5.91413C100.766 7.28845 100.442 8.86951 98.9578 9.69896C97.0107 10.7875 93.9471 10.7729 93.6588 13.5726C93.6236 13.9326 94.1842 13.9338 94.2207 13.5774Z" fill="#66270C"/>
<path d="M98.9214 15.6772C102.104 15.9982 103.016 12.2754 105.67 11.4265C106.942 11.0191 108.105 11.1395 109.224 10.3015C110.221 9.55477 110.923 8.5064 111.791 7.6283C113.062 6.34155 114.298 6.22601 115.962 5.79304C117.216 5.46588 118.281 4.73496 119.289 3.94442C120.544 2.96051 121.719 1.89025 123.187 1.22377C124.969 0.414995 126.904 0.191201 128.833 0.419847C129.192 0.462414 129.192 -0.0982546 128.836 -0.140822C125.947 -0.483792 123.167 0.255676 120.831 1.99485C119.576 2.93011 118.45 4.07333 117.042 4.78481C115.738 5.444 114.219 5.30901 112.942 5.99738C110.565 7.27805 109.724 10.1945 106.837 10.6579C105.467 10.878 104.539 11.2076 103.527 12.1708C102.181 13.4527 101.055 15.3305 98.9263 15.1165C98.5651 15.08 98.5651 15.6407 98.9214 15.6772Z" fill="#66270C"/>
<path d="M100.613 18.1126C103.036 18.3303 104.837 16.613 106.773 15.4394C108.297 14.5151 109.602 14.2694 111.343 14.7036C112.466 14.9845 113.518 15.0818 114.658 14.8081C117.276 14.1794 119.362 12.2699 121.917 11.4745C125.003 10.5137 127.783 12.7382 130.905 11.9975C132.872 11.5305 135.053 11.0257 135.7 13.5263C136.015 14.7437 135.892 16.0365 136.212 17.2564C136.902 19.8895 139.303 20.0597 141.366 21.1993C143.838 22.5651 144.248 25.4633 145.811 27.5856C146.328 28.2874 146.965 28.8736 147.774 29.2202C149.413 29.9232 151.305 29.506 152.73 30.7672C154.759 32.5611 155.16 35.5895 157.405 37.2228C159.965 39.0861 163.902 38.5911 165.877 41.2983C166.088 41.5866 166.574 41.3068 166.361 41.0149C164.858 38.9535 162.365 38.6239 160.091 37.8784C158.5 37.3566 157.208 36.5734 156.252 35.1747C155.456 34.0096 154.927 32.6815 154.115 31.5249C153.527 30.6857 152.808 29.956 151.85 29.5534C150.317 28.9088 148.543 29.2798 147.168 28.2022C145.164 26.6321 144.836 23.7497 143.165 21.8913C141.177 19.6815 137.366 20.1351 136.672 16.7468C136.28 14.8252 136.724 11.916 134.391 11.0939C133.192 10.6718 131.926 11.1912 130.761 11.4563C128.682 11.9306 127.179 11.179 125.199 10.7704C122.556 10.2255 120.315 11.4563 118.067 12.692C116.537 13.5336 114.889 14.4713 113.085 14.436C111.648 14.4068 110.378 13.6564 108.92 13.924C105.876 14.4846 103.882 17.845 100.619 17.5519C100.258 17.5203 100.257 18.081 100.613 18.1126Z" fill="#66270C"/>
<path d="M120.885 20.6353C122.962 19.5529 125.639 20.0381 127.201 21.8101C128.51 23.2976 128.219 25.7093 129.77 27.0045C131.292 28.273 133.49 27.6066 135.258 28.0553C137.814 28.7036 138.997 30.6045 140.046 32.8204C140.728 34.2616 141.54 35.4304 143.139 35.8792C144.417 36.238 145.672 36.1322 146.716 37.1027C147.459 37.7935 147.889 38.7762 148.316 39.6762C149.118 41.3667 149.955 42.7228 151.489 43.8429C153.493 45.306 156.292 46.5842 156.343 49.4496C156.349 49.8108 156.91 49.8145 156.904 49.4533C156.87 47.5061 155.632 46.0771 154.131 44.9643C153.012 44.1348 151.733 43.4939 150.739 42.5014C149.841 41.6063 149.336 40.5178 148.8 39.3916C147.984 37.6707 147.11 36.1881 145.159 35.6895C143.589 35.2881 142.188 35.2857 141.197 33.7885C140.631 32.9336 140.299 31.946 139.819 31.0448C138.898 29.3129 137.322 28.0018 135.406 27.5153C134.307 27.2356 133.192 27.356 132.074 27.2454C129.811 27.0216 129.375 25.5086 128.78 23.6539C127.685 20.2412 123.871 18.4498 120.601 20.1524C120.28 20.3178 120.565 20.8019 120.885 20.6353Z" fill="#66270C"/>
<path d="M86.9662 13.125C86.6062 15.3653 83.9196 15.1634 82.2936 15.8238C81.0032 16.3468 80.198 17.3976 79.264 18.379C77.8496 19.864 76.2271 20.179 74.3651 20.7786C73.2462 21.1386 72.2672 21.6677 71.5216 22.5944C69.6292 24.9441 69.5575 28.2498 66.0414 28.7861C62.6725 29.3006 60.4566 31.3949 58.2249 33.8346C57.9816 34.0997 58.3793 34.4962 58.6238 34.2286C59.8947 32.8385 61.2058 31.4034 62.8379 30.4304C63.8012 29.8552 64.8155 29.5402 65.9149 29.3626C66.5972 29.2531 67.2807 29.1875 67.9071 28.8712C70.3431 27.638 70.4879 24.3664 72.3012 22.5604C73.6366 21.2298 75.5996 21.1605 77.2633 20.4879C78.5914 19.9516 79.4476 18.992 80.4012 17.9619C81.1382 17.1653 81.8886 16.5219 82.9455 16.1923C83.7482 15.9418 84.5971 15.8725 85.3876 15.5757C86.4664 15.1707 87.3214 14.4446 87.5087 13.2734C87.5634 12.9195 87.0222 12.7687 86.9662 13.125Z" fill="#66270C"/>
<path d="M90.9272 13.6392C89.3048 13.7267 88.2516 14.876 87.6398 16.3172C86.6438 18.6645 86.9709 21.2015 84.603 22.7862C83.1362 23.7677 81.4445 24.3284 80.3985 25.8365C79.2699 27.465 79.0583 29.6967 77.5733 31.0808C76.5371 32.0464 75.0947 32.1778 73.8225 32.6594C72.9529 32.9878 72.132 33.4341 71.3816 33.9814C69.8674 35.0869 68.729 36.5513 67.9531 38.2479C67.5007 39.2367 67.1541 40.3677 66.3988 41.1814C65.4319 42.2236 64.015 42.1604 62.7283 42.4292C60.3737 42.9205 58.1918 43.9446 56.2435 45.3457C55.9528 45.5548 56.2337 46.0401 56.5269 45.8297C58.5774 44.3544 60.876 43.3243 63.3692 42.8743C65.2653 42.5326 66.5545 42.2711 67.542 40.4979C68.6524 38.5057 69.2277 36.5549 71.0179 34.986C71.9447 34.1736 73.021 33.5399 74.1801 33.1252C75.0716 32.8066 76.0202 32.6448 76.8752 32.2252C78.2665 31.5417 78.9585 30.2866 79.5472 28.9098C79.951 27.9661 80.2891 26.9651 80.8838 26.1174C81.6135 25.0788 82.685 24.5206 83.7626 23.9234C85.312 23.0636 86.5282 22.1319 87.1229 20.3988C87.8612 18.2498 87.8539 14.3665 90.9224 14.2011C91.2824 14.1804 91.2884 13.6197 90.9272 13.6392Z" fill="#66270C"/>
<path d="M96.4211 13.846C94.5882 14.5429 93.5837 16.1592 93.0473 17.9835C92.6739 19.252 92.5402 20.5789 92.1899 21.8535C91.763 23.409 90.964 24.7006 89.9022 25.901C88.4014 27.5976 86.5856 29.0108 85.2697 30.8704C83.9841 32.6887 83.3323 34.828 82.6378 36.9186C81.7828 39.4957 80.7782 41.944 78.5757 43.6576C76.7623 45.0684 74.6011 45.9526 72.7914 47.3707C71.1629 48.6465 70.1948 50.2823 69.5758 52.2367C68.7451 54.8576 68.317 57.4725 66.2166 59.444C64.25 61.289 62.0231 62.5647 60.5515 64.9047C59.1042 67.2058 58.3246 69.8559 57.5706 72.444C57.4696 72.7906 58.0109 72.9378 58.1118 72.5924C58.8111 70.194 59.525 67.7543 60.796 65.5846C62.0961 63.365 63.9982 62.0393 65.9296 60.4364C67.6274 59.0268 68.6478 57.3679 69.2924 55.2687C70.0306 52.8643 70.4587 50.3358 72.3402 48.5054C73.9796 46.9097 76.136 46.0061 78.0187 44.751C79.6715 43.6479 80.9655 42.2724 81.8521 40.4845C82.8032 38.569 83.3116 36.4784 84.062 34.485C85.0106 31.965 86.5212 30.0908 88.4221 28.2203C89.9922 26.6745 91.6012 25.1007 92.4076 23.004C93.5168 20.1192 93.0923 15.7104 96.5682 14.3896C96.899 14.2607 96.758 13.7183 96.4211 13.846Z" fill="#66270C"/>
<path d="M99.5171 17.4167C95.0038 20.8744 96.4632 27.2193 94.0065 31.7837C92.7939 34.0361 91.0097 35.9018 89.5977 38.0216C88.1991 40.1208 87.4718 42.293 87.4219 44.8202C87.3623 47.8912 87.5509 50.6921 86.078 53.4966C84.9384 55.6676 83.316 57.5308 81.8091 59.4475C80.4883 61.1271 79.1919 62.8699 78.394 64.867C77.2995 67.6046 77.8467 70.5564 76.0905 73.0617C74.3088 75.6048 72.5258 77.8487 71.5553 80.8625C70.6395 83.7108 70.4133 86.6918 70.7964 89.6532C70.8426 90.0096 71.3838 89.8612 71.3376 89.5085C70.9582 86.5689 71.2245 83.5856 72.1731 80.7725C73.1121 77.9874 74.7381 75.8906 76.4323 73.5458C77.1438 72.5607 77.7276 71.5196 77.9623 70.3168C78.2213 68.996 78.1447 67.6387 78.4926 66.3276C79.1225 63.9536 80.5893 61.9104 82.0804 60.0046C84.5736 56.8145 87.4609 53.6523 87.9194 49.4528C88.2465 46.4536 87.5727 43.4374 88.8145 40.5745C89.7935 38.3184 91.4658 36.4698 92.9058 34.5056C94.6511 32.1255 95.6082 29.7308 96.0971 26.8204C96.6347 23.6169 97.0263 20.0242 99.8005 17.8983C100.084 17.6843 99.8041 17.1978 99.5171 17.4167Z" fill="#66270C"/>
</g>
<path d="M112.357 100.33C116.571 100.155 120.424 98.126 124.083 95.9696C122.698 92.4913 122.264 87.9768 122.264 87.9768L96.146 81.6914C96.146 81.6914 99.2279 90.4481 100.619 97.0557C101.229 97.3646 101.844 97.6626 102.465 97.946C105.581 99.3653 108.937 100.472 112.357 100.33Z" fill="#4D2500"/>
<path d="M88.6647 70.5529C88.6647 70.5529 80.6949 57.0651 73.9511 61.0506C67.2072 65.0362 68.7396 73.006 71.1927 77.2967C73.6446 81.5887 80.6949 85.2665 83.4545 84.3471C86.2128 83.4276 88.6659 80.0551 88.6659 80.0551C88.6659 80.0551 108.665 99.4657 131.043 92.1089C138.707 89.0441 149.362 77.9571 145.989 69.6334C143.79 64.2055 145.683 47.8694 144.457 38.979C143.231 30.0897 132.195 14.4554 112.883 15.6813C104.607 15.6132 98.4758 20.2798 98.4758 20.2798C98.4758 20.2798 99.3953 36.2194 90.1996 47.2552C90.1996 48.1747 89.8931 53.6926 91.119 59.517C92.345 65.3414 99.3953 71.7788 97.5564 73.0047C95.7175 74.2307 93.5709 71.7788 93.5709 71.7788C93.5709 71.7788 95.4098 75.7643 93.5709 75.7643C91.7296 75.7643 89.6292 72.0415 88.6647 70.5529Z" fill="#663E21"/>
<mask id="mask20_2199_34684" style="mask-type:luminance" maskUnits="userSpaceOnUse" x="69" y="15" width="78" height="79">
<path d="M88.6647 70.5529C88.6647 70.5529 80.6949 57.0651 73.9511 61.0506C67.2072 65.0362 68.7396 73.006 71.1927 77.2967C73.6446 81.5887 80.6949 85.2665 83.4545 84.3471C86.2128 83.4276 88.6659 80.0551 88.6659 80.0551C88.6659 80.0551 108.665 99.4657 131.043 92.1089C138.707 89.0441 149.362 77.9571 145.989 69.6334C143.79 64.2055 145.683 47.8694 144.457 38.979C143.231 30.0897 132.195 14.4554 112.883 15.6813C104.607 15.6132 98.4758 20.2798 98.4758 20.2798C98.4758 20.2798 99.3953 36.2194 90.1996 47.2552C90.1996 48.1747 89.8931 53.6926 91.119 59.517C92.345 65.3414 99.3953 71.7788 97.5564 73.0047C95.7175 74.2307 93.5709 71.7788 93.5709 71.7788C93.5709 71.7788 95.4098 75.7643 93.5709 75.7643C91.7296 75.7643 89.6292 72.0415 88.6647 70.5529Z" fill="white"/>
</mask>
<g mask="url(#mask20_2199_34684)">
<path d="M150.145 73.4057C150.145 76.4815 147.652 78.9759 144.575 78.9759C141.498 78.9759 139.005 76.4815 139.005 73.4057C139.005 70.3299 141.499 67.8354 144.575 67.8354C147.651 67.8354 150.145 70.3287 150.145 73.4057Z" fill="#9C6A3C"/>
</g>
<path d="M118.851 55.5782C119.364 60.4333 115.906 64.6644 111.125 65.0305C106.344 65.3966 102.053 61.7565 101.54 56.9014C101.026 52.0463 104.485 47.8151 109.266 47.449C114.046 47.0842 118.338 50.7231 118.851 55.5782Z" fill="white"/>
<path d="M101.463 56.9074C100.738 54.7948 100.944 52.3113 102.316 50.2304C102.968 49.176 103.943 48.2614 105.103 47.5377C106.282 46.8348 107.693 46.3884 109.14 46.2607C112.075 46.0394 114.983 47.2592 116.673 49.1431C117.532 50.0796 118.175 51.128 118.58 52.2226C118.909 53.3402 119.096 54.4701 118.927 55.5732L118.775 55.5854C118.529 53.4631 117.522 51.3895 115.821 49.8546C114.146 48.3149 111.705 47.3723 109.279 47.5827C106.847 47.7433 104.642 49.041 103.319 50.8093C101.967 52.5789 101.411 54.7705 101.615 56.8964L101.463 56.9074Z" fill="#2A2825"/>
<path d="M143.831 55.0729C144.249 50.2926 141.83 46.1763 138.428 45.8788C135.026 45.5814 131.929 49.2155 131.511 53.9958C131.093 58.7761 133.512 62.8925 136.914 63.1899C140.316 63.4874 143.413 59.8533 143.831 55.0729Z" fill="white"/>
<path d="M143.712 56.3468C144.459 54.3741 144.595 51.9149 143.87 49.6954C143.533 48.5765 142.953 47.5524 142.223 46.6901C141.478 45.8461 140.541 45.2222 139.543 44.906C137.513 44.3015 135.34 45.1127 133.943 46.7339C133.237 47.5366 132.668 48.4792 132.26 49.4971C131.904 50.5479 131.645 51.6291 131.639 52.7322L131.743 52.7639C132.154 50.7182 133.094 48.8209 134.459 47.5427C135.805 46.2559 137.62 45.6551 139.295 46.183C140.978 46.6622 142.374 48.2238 143.101 50.1296C143.848 52.0402 143.989 54.261 143.606 56.3152L143.712 56.3468Z" fill="#2A2825"/>
<mask id="mask21_2199_34684" style="mask-type:luminance" maskUnits="userSpaceOnUse" x="101" y="47" width="18" height="19">
<path d="M118.851 55.5782C119.364 60.4333 115.906 64.6644 111.125 65.0305C106.344 65.3966 102.053 61.7565 101.54 56.9014C101.026 52.0463 104.485 47.8151 109.266 47.449C114.046 47.0842 118.338 50.7231 118.851 55.5782Z" fill="white"/>
</mask>
<g mask="url(#mask21_2199_34684)">
<path d="M115.815 57.7262C115.104 62.0607 111.396 65.173 107.533 64.6756C103.67 64.1793 101.116 60.262 101.828 55.9274C102.539 51.5928 106.248 48.4806 110.109 48.9768C113.972 49.4742 116.527 53.3904 115.815 57.7262Z" fill="#1F1619"/>
</g>
<mask id="mask22_2199_34684" style="mask-type:luminance" maskUnits="userSpaceOnUse" x="131" y="45" width="13" height="19">
<path d="M143.831 55.0715C144.249 50.2911 141.83 46.1748 138.428 45.8774C135.026 45.5799 131.929 49.214 131.511 53.9944C131.093 58.7747 133.512 62.891 136.914 63.1885C140.316 63.4859 143.413 59.8518 143.831 55.0715Z" fill="white"/>
</mask>
<g mask="url(#mask22_2199_34684)">
<path d="M130.739 55.2C130.895 59.1977 133.302 62.3306 136.114 62.1981C138.926 62.0655 141.079 58.7173 140.921 54.7209C140.764 50.7232 138.357 47.5902 135.545 47.7228C132.734 47.8542 130.582 51.2024 130.739 55.2Z" fill="#1F1619"/>
</g>
<path d="M129.129 35.3531C131.913 34.4556 135.214 34.7949 137.725 35.8907C139.85 36.8175 141.457 38.2258 142.659 39.7899C140.902 39.0346 138.804 38.6491 136.732 38.4058C134.035 38.0896 131.259 37.9631 128.691 37.3356C128.358 37.2541 128.011 37.1543 127.813 36.95C127.268 36.3881 128.223 35.645 129.129 35.3531Z" fill="#290E00"/>
<path d="M117.718 28.4189C114.177 27.407 109.973 27.5724 106.773 28.5125C104.065 29.3079 102.014 30.5995 100.478 32.0602C102.717 31.4119 105.39 31.1419 108.031 31.0082C111.465 30.8355 114.998 30.8513 118.27 30.3684C118.694 30.3064 119.136 30.2261 119.39 30.0364C120.081 29.5195 118.869 28.7485 117.718 28.4189Z" fill="#290E00"/>
<path d="M72.5383 69.8695C73.1768 67.7594 74.2653 66.019 76.7779 66.3157C78.6108 66.5322 80.1748 67.6633 81.3691 69.0194C82.5172 70.3231 83.3771 71.9091 83.9232 73.5522C84.3634 74.8803 85.3802 78.1372 84.0922 79.2039C83.7237 79.5091 84.2552 80.0309 84.6213 79.7268C86.0685 78.5277 85.2707 75.6088 84.8536 74.0764C84.2187 71.74 82.9928 69.4791 81.2305 67.8007C79.7844 66.4228 77.7777 65.3245 75.7198 65.541C73.4285 65.783 72.4264 67.6767 71.8207 69.6737C71.6808 70.1322 72.3996 70.3268 72.5383 69.8695Z" fill="#4D2500"/>
<path d="M83.287 71.6281C80.3073 72.4271 79.0448 75.7814 80.8229 78.3245C81.0954 78.7137 81.7399 78.3416 81.4651 77.9475C79.9655 75.8033 80.9336 73.0292 83.4803 72.3469C83.9425 72.2228 83.7503 71.504 83.287 71.6281Z" fill="#4D2500"/>
<path d="M110.932 74.6693C110.932 77.7451 108.439 80.2396 105.362 80.2396C102.285 80.2396 99.792 77.7463 99.792 74.6693C99.792 71.5936 102.285 69.0991 105.362 69.0991C108.439 69.0991 110.932 71.5936 110.932 74.6693Z" fill="#9C6A3C"/>
<path d="M134.707 60.1388C133.937 59.1562 132.667 58.6235 131.418 58.6295C128.877 52.1703 124.529 61.9923 124.282 62.474C124.052 62.924 123.888 63.408 123.798 63.9054C123.749 64.1718 123.723 64.4515 123.806 64.7093C123.948 65.1545 124.387 65.4415 124.833 65.585C125.703 65.8647 126.629 65.7127 127.5 65.3856C128.052 65.7528 128.844 65.7942 129.542 65.7845C130.583 65.7699 131.639 65.7516 132.639 65.4634C133.64 65.1752 134.596 64.5768 135.086 63.6585C135.675 62.5591 135.477 61.1228 134.707 60.1388Z" fill="#4D2500"/>
<path d="M98.0794 19.6146C100.115 19.4418 101.387 21.9363 101.237 23.9746C101.086 26.013 100.129 27.9674 100.26 30.007C100.343 31.3011 100.865 32.5465 100.858 33.8429C100.845 36.5356 98.6291 38.6919 97.8848 41.28C97.436 42.8429 97.5418 44.5042 97.3509 46.1181C97.1612 47.732 96.5689 49.4468 95.186 50.3006C96.3098 51.3952 98.3238 50.2702 98.8176 48.7804C99.3114 47.2905 98.921 45.6681 99.0025 44.1004C99.0669 42.855 99.4379 41.6266 100.075 40.554C101.33 38.439 103.668 36.6816 103.566 34.2248C103.485 32.2935 101.841 30.6553 101.893 28.7227C101.919 27.7935 102.339 26.9264 102.576 26.0276C103.451 22.7147 101.469 18.8982 98.2545 17.71" fill="#290E00"/>
<path d="M97.6456 19.2822C99.2486 20.3501 99.6864 22.5465 99.4699 24.4608C99.2534 26.3752 98.5334 28.2116 98.3899 30.1332C98.2124 32.5097 98.9153 34.9932 98.1065 37.2359C97.451 39.0541 95.8797 40.4418 95.2862 42.2819C94.8508 43.6331 94.9858 45.0938 94.8654 46.5082C94.7012 48.4213 94.0517 50.2906 92.9924 51.8936C92.6652 52.3898 92.2651 52.8848 91.702 53.0757C91.1389 53.2667 90.3921 53.01 90.2571 52.4311C90.0844 51.6868 90.9127 51.1529 91.4405 50.6007C93.1067 48.8604 91.9866 46.0205 92.2007 43.6209C92.3636 41.7906 93.3536 40.156 94.0906 38.4727C95.5282 35.1902 96.0463 31.5112 95.5695 27.9586" fill="#290E00"/>
<path d="M92.1107 108.606C87.7457 107.926 73.7435 111.692 69.1074 116.826C64.47 121.961 49.3793 150.257 49.3233 152.053C49.2662 153.846 75.7357 164.222 78.2569 162.204C80.7781 160.187 90.2353 131.888 90.2353 131.888L96.1473 117.169L105.364 125.223L111.554 114.143C111.554 114.143 96.1473 104.635 92.1119 99.4614C89.0872 99.8579 92.1107 108.606 92.1107 108.606Z" fill="#AEE8D5"/>
<path d="M124.53 97.0684L127.282 103.779C127.282 103.779 132.891 113.772 133.718 114.141C134.545 114.511 137.488 103.086 135.428 100.333C133.369 97.5792 124.53 97.0684 124.53 97.0684Z" fill="#AEE8D5"/>
<path d="M127.476 77.9991C124.328 77.97 122.202 76.9289 120.809 75.5412C124.435 74.9003 128.257 75.3539 131.622 76.8462C130.461 77.5601 129.072 78.0137 127.476 77.9991Z" fill="#B98A82"/>
<path d="M118.721 68.6784C119.553 66.9246 124.737 71.5438 127.778 71.489C131.046 71.4307 133.99 67.0608 135.457 68.8426C136.558 70.1804 135.112 74.6962 131.621 76.844C128.256 75.3517 124.433 74.8981 120.808 75.539C118.428 73.1711 118.197 69.7851 118.721 68.6784Z" fill="#421605"/>
<path d="M127.321 73.4191C122.399 73.3741 119.974 70.8627 118.956 68.4096C120.258 67.5412 124.947 71.5401 127.778 71.4902C130.655 71.4392 133.281 68.0484 134.87 68.4558C133.653 70.9198 131.064 73.4544 127.321 73.4191Z" fill="#EDEDED"/>
</svg>
