<svg width="113" height="74" viewBox="0 0 113 74" fill="none" xmlns="http://www.w3.org/2000/svg">
<path d="M85.1496 81.9624C85.1496 81.9624 91.2974 86.2676 95.8426 82.9543C100.388 79.6411 103.575 75.363 102.981 73.7949C102.388 72.2268 92.6494 66.6687 89.5973 67.2329C86.5451 67.7971 84.3618 70.9498 84.3618 70.9498C84.3618 70.9498 84.9605 77.9589 85.1496 81.9624Z" fill="#CF3A3A"/>
<path d="M82.2159 61.8071C82.2159 61.8071 89.6572 65.0798 92.5488 61.5865C95.4404 58.0932 97.7453 52.5756 97.7363 50.4763C97.7273 48.377 89.7878 46.842 86.1654 46.2072C82.5446 45.571 78.0879 53.8541 78.0879 53.8541C78.0879 53.8541 80.8999 57.3099 82.2159 61.8071Z" fill="#CF3A3A"/>
<path d="M72.6151 47.7435C72.6151 47.7435 81.0587 43.5659 81.6214 41.7397C82.1856 39.9135 81.4774 30.6956 80.4765 28.5362C79.4756 26.3769 69.5284 29.2295 67.4666 30.7796C65.4034 32.3312 63.9643 42.4014 64.1774 43.0182C64.1774 43.0182 69.2718 44.3537 72.6151 47.7435Z" fill="#CF3A3A"/>
<path d="M54.3611 41.2295C54.3611 41.2295 60.2403 34.6345 61.1106 31.8C61.9809 28.9669 57.6008 22.2039 54.4976 20.9809C51.3945 19.7565 45.6113 26.425 44.4484 28.5362C43.2854 30.6475 47.529 41.6241 47.529 41.6241L54.3611 41.2295Z" fill="#CF3A3A"/>
<path d="M36.9454 42.5081C36.9454 42.5081 39.3148 35.8321 38.9171 34.3976C38.5195 32.963 33.6547 29.6063 32.1631 29.4547C30.6715 29.3017 27.8085 34.135 27.6524 36.2448C27.4978 38.3546 32.2066 42.8202 32.2066 42.8202L36.9454 42.5081Z" fill="#CF3A3A"/>
<path d="M32.9314 66.4466C32.9314 66.4466 22.7636 71.6595 19.5464 75.4454C16.3277 79.2314 11.1583 75.606 8.92691 73.5247C6.69558 71.4435 4.52876 69.4192 5.85676 66.9883C7.18476 64.5574 14.7776 56.7274 16.1131 52.4448" fill="#F2B705"/>
<path d="M36.5494 75.0688C36.0197 76.955 35.454 78.8322 34.8298 80.6854C30.013 77.3167 25.0896 73.5953 20.3569 69.2301C19.7927 68.7094 19.2555 68.1947 18.7393 67.6861C19.1624 66.4436 19.5646 65.2056 19.9637 63.9722C25.5683 67.5675 31.1879 71.2049 36.5494 75.0688Z" fill="#CF3A3A"/>
<path d="M19.9631 63.9708C19.5654 65.2043 19.1618 66.4423 18.7386 67.6847C17.6987 66.6599 16.7684 65.662 15.9146 64.6836C16.2927 63.8208 16.6708 62.9595 17.0475 62.0981C18.0198 62.7239 18.9907 63.3466 19.9631 63.9708Z" fill="#CF3A3A"/>
<path d="M17.0492 62.0994C16.6726 62.9592 16.2944 63.8205 15.9163 64.6849C14.0076 62.4985 12.531 60.4248 11.4131 58.4575C13.2753 59.6745 15.16 60.8869 17.0492 62.0994Z" fill="#CF3A3A"/>
<path d="M26.6378 4.61122C32.2184 9.52706 35.3981 16.8183 30.3532 24.9183C25.3083 33.0184 17.6974 33.7476 22.7093 40.7163C27.7197 47.6849 57.5254 34.6825 72.0283 47.2257C86.5313 59.7689 84.414 75.0941 85.5019 88.3636C86.5898 101.633 106.436 104.945 110.78 105.288C115.124 105.631 114.817 114.419 93.749 113.283C76.9667 112.379 66.3922 104.61 62.7803 101.486C51.3776 82.6465 30.4357 70.8896 11.4131 58.4589C6.70883 50.1698 8.18688 43.7054 8.83963 38.1803C9.75047 30.4659 10.0221 30.8606 8.92366 29.1184C7.82525 27.3778 -4.13123 23.1942 1.50038 9.41603C7.13199 -4.36364 21.0572 -0.304624 26.6378 4.61122Z" fill="#F2B705"/>
<path d="M38.3516 74.0076C38.3516 74.0076 28.1838 79.2206 24.9651 83.0065C21.7464 86.7924 16.577 83.167 14.3456 81.0858C12.1143 79.0045 9.94746 76.9802 11.277 74.5493C12.605 72.1184 20.1978 64.29 21.5333 60.0059" fill="#F2B705"/>
<path d="M68.5278 53.6995C67.764 54.5653 68.8009 56.7276 70.8446 58.5283C72.8869 60.3275 75.1632 61.0837 75.9255 60.2164C76.6893 59.3491 75.6524 57.1883 73.6087 55.3891C71.5664 53.5899 69.29 52.8322 68.5278 53.6995Z" fill="#CF3A3A"/>
<path d="M55.9062 45.3695C55.1424 46.2353 56.1793 48.3976 58.2216 50.1968C60.2638 51.9959 62.5402 52.7522 63.3024 51.8849C64.0662 51.0176 63.0293 48.8568 60.9856 47.0576C58.9433 45.2569 56.67 44.5021 55.9062 45.3695Z" fill="#CF3A3A"/>
<path d="M71.5963 65.3108C71.0666 65.9125 71.7854 67.4116 73.2019 68.6586C74.6185 69.907 76.1956 70.4307 76.7253 69.829C77.255 69.2273 76.5362 67.7282 75.1197 66.4813C73.7046 65.2343 72.126 64.7091 71.5963 65.3108Z" fill="#CF3A3A"/>
<path d="M64.6725 65.533C64.1428 66.1347 64.641 67.4387 65.7859 68.4471C66.9308 69.4554 68.2888 69.7856 68.8185 69.1838C69.3482 68.5836 68.8485 67.2781 67.7036 66.2697C66.5587 65.2629 65.2007 64.9327 64.6725 65.533Z" fill="#CF3A3A"/>
<path d="M62.4845 57.2859C61.9548 57.8876 62.453 59.1916 63.5979 60.2C64.7428 61.2084 66.0993 61.5385 66.629 60.9368C67.1587 60.3351 66.6605 59.0311 65.5156 58.0227C64.3722 57.0143 63.0142 56.6842 62.4845 57.2859Z" fill="#CF3A3A"/>
<path d="M52.0257 49.8129C51.349 50.5812 52.0873 52.3383 53.6764 53.7383C55.264 55.1369 57.1021 55.6486 57.7789 54.8803C58.4556 54.112 57.7159 52.3548 56.1283 50.9548C54.5392 49.5563 52.7025 49.0446 52.0257 49.8129Z" fill="#CF3A3A"/>
<path d="M4.72507 18.0066C3.86825 19.7083 4.554 21.782 6.25564 22.6373C7.95728 23.4942 10.0311 22.8084 10.8864 21.1068C11.7432 19.4051 11.0574 17.3314 9.35581 16.476C7.65567 15.6192 5.58189 16.305 4.72507 18.0066Z" fill="#CF63BD"/>
<path d="M5.29664 12.9258C4.96201 13.5905 5.22912 14.3993 5.89387 14.7339C6.55862 15.0686 7.36892 14.8015 7.70204 14.1367C8.03667 13.472 7.76807 12.6632 7.10482 12.3286C6.44007 11.9924 5.62976 12.261 5.29664 12.9258Z" fill="#35343D"/>
</svg>
