<svg width="236" height="44" viewBox="0 0 236 44" fill="none" xmlns="http://www.w3.org/2000/svg">
<path d="M35.8474 7.57955C31.5802 3.4051 26.6285 -0.0847984 21.7151 0.00156948C16.7985 -0.0847984 11.8468 3.4051 7.57955 7.57955C3.4051 11.8468 -0.0847984 16.7985 0.00156948 21.7119C-0.0847984 26.6285 3.4051 31.5802 7.57955 35.8474C11.8468 40.0219 16.7985 43.5118 21.7151 43.4254C26.6285 43.5118 31.5802 40.0219 35.8474 35.8474C40.0219 31.5802 43.5118 26.6285 43.4254 21.7119C43.5118 16.7985 40.0219 11.8468 35.8474 7.57955ZM18.6314 9.8603C18.9897 9.20774 19.5047 8.62556 20.1861 8.29928C20.6595 8.05617 21.1873 7.94101 21.7151 7.94421C22.2397 7.94101 22.7675 8.05617 23.2409 8.29928C23.9223 8.62556 24.4373 9.20774 24.7955 9.8603C25.5792 11.1334 26.363 12.4065 27.1435 13.6797L25.1794 15.551C24.2293 14.0092 23.2761 12.4673 22.3261 10.9223C22.2045 10.6856 21.9582 10.5672 21.7151 10.5672C21.4688 10.5672 21.2225 10.6856 21.1009 10.9223C20.1541 12.4673 19.1976 14.0092 18.2476 15.551L16.2835 13.6797C17.064 12.4065 17.8509 11.1334 18.6314 9.8603ZM9.8571 31.6186C8.2353 30.3807 7.66271 27.9656 8.62556 26.1518C9.11817 25.2882 9.65557 24.4469 10.177 23.5992L11.7412 26.1262C11.4693 26.5645 11.1942 27.0027 10.9511 27.4569C10.4905 28.4582 11.2262 29.7409 12.3138 29.872C12.8608 29.9744 13.3822 29.7729 13.7788 29.4146L15.1927 31.6986C13.6541 32.8437 11.3573 32.8277 9.8571 31.6186ZM33.5699 31.6186C32.0728 32.8277 29.7729 32.8437 28.2343 31.6986L29.6513 29.4146C30.0448 29.7729 30.5694 29.9744 31.1132 29.872C32.2008 29.7409 32.9397 28.4582 32.4759 27.4569C32.236 27.0027 31.9609 26.5645 31.6858 26.1262L33.25 23.5992C33.7746 24.4469 34.3088 25.2882 34.8014 26.1518C35.7643 27.9656 35.1917 30.3807 33.5699 31.6186ZM34.7982 19.4439C34.5775 19.8246 34.3536 20.202 34.1233 20.5763L27.6009 31.1388C27.0827 30.5662 26.7436 29.8465 26.3534 29.1843C25.029 26.862 23.6983 24.5428 22.374 22.2237C22.2525 21.9678 21.9966 21.7759 21.7151 21.7791C21.4336 21.7759 21.1745 21.9678 21.0529 22.2237C19.7286 24.5428 18.3979 26.862 17.0736 29.1843C16.6834 29.8465 16.3475 30.5662 15.8261 31.1388L9.3037 20.5763C9.07339 20.202 8.84947 19.8246 8.63196 19.4439C7.59554 17.5182 8.32167 14.9144 10.1578 13.7532C10.8679 13.2734 11.706 13.0431 12.5473 13.0431C13.6125 13.0431 14.6809 13.4142 15.4934 14.1147L17.7518 16.3539C17.2591 17.16 16.7665 17.9661 16.2771 18.7754L13.862 16.2419C13.427 15.7845 12.736 15.5798 12.1219 15.7525C11.3285 15.9572 10.7496 16.7665 10.8199 17.5822C10.8391 18.0844 11.1494 18.4907 11.3989 18.9001C12.8672 21.2864 14.3354 23.6696 15.8037 26.0559C16.8273 24.2613 17.8445 22.47 18.8777 20.6787C19.4663 19.6966 20.5891 19.1336 21.7151 19.1272C22.8379 19.1336 23.9638 19.6966 24.5524 20.6787C25.5824 22.47 26.6029 24.2613 27.6265 26.0559C29.0915 23.6696 30.5598 21.2864 32.028 18.9001C32.2775 18.4907 32.5878 18.0844 32.607 17.5822C32.6774 16.7665 32.0984 15.9572 31.3051 15.7525C31.158 15.7109 31.0076 15.6917 30.8573 15.6917C30.3775 15.6917 29.8976 15.8933 29.565 16.2419L27.1531 18.7754C26.6604 17.9661 26.1678 17.16 25.6752 16.3539L27.9336 14.1147C29.3858 12.8608 31.6634 12.6657 33.2692 13.7532C35.1085 14.9144 35.8346 17.5182 34.7982 19.4439Z" fill="white"/>
<path d="M69.6588 15.8226L66.3577 27.5494C66.2521 27.9461 65.8299 28.2628 65.4332 28.2628H62.9509C62.5543 28.2628 62.1064 27.9461 61.9465 27.5494L59.3587 20.7615L56.7452 27.5494C56.5853 27.9461 56.1375 28.2628 55.7408 28.2628H53.233C52.8363 28.2628 52.4396 27.9461 52.3085 27.5494L49.0297 15.8226C48.9242 15.4259 49.1353 15.1093 49.5319 15.1093H50.1653C52.4908 15.1093 53.2809 16.456 53.732 18.3305C54.0487 19.6516 54.4453 21.6316 54.762 23.4006C55.2642 21.6316 55.8176 19.6484 56.2942 18.3305C56.6109 17.4572 57.2443 15.1093 58.6197 15.1093H60.072C61.4443 15.1093 62.0809 17.4604 62.3975 18.3305C62.8742 19.6516 63.4276 21.606 63.9298 23.375C64.2465 21.606 64.6175 19.6516 64.9342 18.3305C65.4108 16.456 66.1753 15.1093 68.5265 15.1093H69.1342C69.5245 15.1093 69.7644 15.4259 69.6588 15.8226Z" fill="white"/>
<path d="M83.1002 15.8227V27.5495C83.1002 27.9462 82.758 28.2628 82.3613 28.2628H82.1758C80.618 28.2628 79.9046 27.4983 79.5879 26.4395C78.6379 27.6551 77.2912 28.3684 75.6246 28.3684C72.2435 28.3684 70.0779 25.8605 70.0779 22.3195C70.0779 17.6716 72.9056 15.0038 75.8101 15.0038C77.6079 15.0038 78.9258 15.6116 79.9046 16.2449C80.3013 15.5572 80.989 15.1093 82.1758 15.1093H82.3613C82.758 15.1093 83.1002 15.426 83.1002 15.8227ZM79.4024 20.7361V19.1526C78.7946 18.9159 77.8702 18.5705 77.0001 18.5705C75.1768 18.5705 73.7501 19.3894 73.7501 22.1627C73.7501 23.986 74.8345 24.8049 76.338 24.8049C78.0557 24.8049 79.3224 23.5094 79.4024 20.7361Z" fill="white"/>
<path d="M94.9321 25.4094V27.575C94.9321 27.9717 94.6154 28.2628 94.2444 28.2628H85.502C85.1054 28.2628 84.7375 27.8917 84.7375 26.8905C84.7375 26.5482 84.7631 25.5949 85.1854 24.8816C85.662 24.1171 87.9044 20.5504 89.0943 18.6759H85.3965C85.0254 18.6759 84.7087 18.3592 84.7087 17.9882V15.797C84.7087 15.4259 85.0254 15.1093 85.3965 15.1093H93.691C95.2744 15.1093 94.801 16.5359 94.4555 17.1181C94.4555 17.1181 91.3655 22.2938 89.9388 24.7249H94.2444C94.6154 24.7249 94.9321 25.016 94.9321 25.4094Z" fill="white"/>
<path d="M108.745 21.6861C108.745 25.3839 105.761 28.3684 102.063 28.3684C98.3649 28.3684 95.3804 25.3839 95.3804 21.6861C95.3804 17.9883 98.3649 15.0038 102.063 15.0038C105.761 15.0038 108.745 17.9883 108.745 21.6861ZM105.073 21.6861C105.073 19.8628 103.726 18.5705 102.063 18.5705C100.399 18.5705 99.0526 19.866 99.0526 21.6861C99.0526 23.5094 100.399 24.8017 102.063 24.8017C103.726 24.8017 105.073 23.5094 105.073 21.6861Z" fill="white"/>
<path d="M123.431 21.053C123.431 25.7296 120.603 28.3686 117.699 28.3686C115.904 28.3686 114.583 27.7609 113.604 27.1531C113.207 27.812 112.52 28.2631 111.333 28.2631H111.147C110.751 28.2631 110.408 27.9464 110.408 27.5497V10.4361C110.408 10.0395 110.751 9.72278 111.147 9.72278H111.333C113.658 9.72278 114.106 11.4661 114.106 13.315C114.106 13.8428 114.106 16.4051 114.106 16.6962C115.056 15.6118 116.352 15.0072 117.884 15.0072C121.265 15.004 123.431 17.5151 123.431 21.053ZM119.759 21.2129C119.759 19.3896 118.674 18.5707 117.171 18.5707C115.427 18.5707 114.161 19.8918 114.106 22.7163C114.106 23.2985 114.106 23.8263 114.106 24.2486C114.714 24.4853 115.638 24.802 116.509 24.802C118.332 24.8052 119.759 23.9863 119.759 21.2129Z" fill="white"/>
<path d="M124.854 11.3862C124.854 10.225 125.804 9.30054 126.939 9.30054C128.101 9.30054 129.054 10.225 129.054 11.3862C129.054 12.5473 128.104 13.5006 126.939 13.5006C125.807 13.4974 124.854 12.5473 124.854 11.3862ZM128.791 15.8229V27.5497C128.791 27.9464 128.475 28.2631 128.078 28.2631H125.833C125.436 28.2631 125.119 27.9464 125.119 27.5497C125.119 27.5497 125.119 20.5763 125.119 18.7018C125.119 16.8529 125.542 15.1096 127.867 15.1096H128.078C128.475 15.1096 128.791 15.4263 128.791 15.8229Z" fill="white"/>
<path d="M143.363 15.8226V27.5494C143.363 27.946 143.021 28.2627 142.624 28.2627H142.438C140.881 28.2627 140.167 27.4982 139.851 26.4394C138.901 27.6549 137.554 28.3683 135.887 28.3683C132.506 28.3683 130.341 25.8604 130.341 22.3193C130.341 17.6715 133.168 15.0037 136.073 15.0037C137.871 15.0037 139.188 15.6114 140.167 16.2448C140.564 15.5571 141.252 15.1092 142.438 15.1092H142.624C143.017 15.1092 143.363 15.4259 143.363 15.8226ZM139.665 20.7359V19.1525C139.057 18.9158 138.133 18.5703 137.263 18.5703C135.439 18.5703 134.013 19.3892 134.013 22.1626C134.013 23.9859 135.097 24.8048 136.601 24.8048C138.315 24.8048 139.585 23.5093 139.665 20.7359Z" fill="white"/>
<path d="M151.629 24.805C152.764 24.805 154.005 24.2516 154.456 24.0661C154.799 23.9349 155.406 23.9861 155.618 24.5939C155.803 25.1217 156.12 25.9406 156.305 26.4972C156.491 26.945 156.2 27.3161 155.698 27.476C154.668 27.8983 153.161 28.3749 151.629 28.3749C147.771 28.3749 144.998 25.3904 144.998 21.6926C144.998 17.9947 147.771 15.0103 151.629 15.0103C153.161 15.0103 154.668 15.4869 155.698 15.9091C156.2 16.0946 156.491 16.4625 156.305 16.888C156.12 17.4413 155.803 18.2602 155.618 18.8168C155.406 19.399 154.799 19.4502 154.456 19.319C154.009 19.1591 152.767 18.5801 151.629 18.5801C149.805 18.5801 148.695 19.8756 148.695 21.6958C148.695 23.5095 149.805 24.805 151.629 24.805Z" fill="white"/>
<path d="M170.169 15.8226V27.5494C170.169 27.946 169.826 28.2627 169.43 28.2627H169.244C167.686 28.2627 166.973 27.4982 166.656 26.4394C165.706 27.6549 164.36 28.3683 162.693 28.3683C159.312 28.3683 157.146 25.8604 157.146 22.3193C157.146 17.6715 159.974 15.0037 162.878 15.0037C164.676 15.0037 165.994 15.6114 166.973 16.2448C167.37 15.5571 168.057 15.1092 169.244 15.1092H169.43C169.826 15.1092 170.169 15.4259 170.169 15.8226ZM166.471 20.7359V19.1525C165.863 18.9158 164.939 18.5703 164.068 18.5703C162.245 18.5703 160.818 19.3892 160.818 22.1626C160.818 23.9859 161.903 24.8048 163.406 24.8048C165.124 24.8048 166.391 23.5093 166.471 20.7359Z" fill="white"/>
<path d="M184.88 10.4357V27.5526C184.88 27.9492 184.538 28.2659 184.141 28.2659H183.956C182.398 28.2659 181.685 27.5014 181.394 26.4426C180.415 27.6581 179.068 28.3715 177.405 28.3715C174.024 28.3715 171.858 25.8636 171.858 22.3225C171.858 17.6747 174.686 15.0068 177.59 15.0068C179.097 15.0068 180.258 15.4291 181.182 15.9313C181.182 15.9057 181.182 13.8457 181.182 13.3179C181.182 11.469 181.605 9.72561 183.956 9.72561H184.141C184.538 9.72241 184.88 10.0391 184.88 10.4357ZM181.182 20.6559C181.182 20.2081 181.182 19.7059 181.182 19.1493C180.575 18.9126 179.65 18.5671 178.78 18.5671C176.957 18.5671 175.53 19.386 175.53 22.1594C175.53 23.9827 176.615 24.8016 178.118 24.8016C179.861 24.8048 181.128 23.4837 181.182 20.6559Z" fill="white"/>
<path d="M198.43 26.3627C198.642 26.785 198.376 27.156 197.903 27.3672C196.054 28.1605 195.104 28.3716 193.386 28.3716C189.528 28.3716 186.518 25.3871 186.518 21.6893C186.518 17.9914 189.503 15.007 193.2 15.007C195.631 15.007 197.637 16.0626 198.456 18.1226C199.752 21.3726 196.949 22.7993 193.783 23.036C192.593 23.1415 191.537 23.2215 190.613 23.3015C191.14 24.2259 192.17 24.8081 193.386 24.8081C194.918 24.8081 195.577 24.4658 196.425 24.0692C196.741 23.9092 197.349 23.9092 197.615 24.4914C197.848 25.016 198.191 25.8061 198.43 26.3627ZM190.373 20.4993C191.428 20.4193 192.593 20.3394 193.463 20.2626C194.307 20.2082 195.206 20.0259 195.075 19.2838C194.969 18.596 194.282 18.0426 193.332 18.1226C191.799 18.2537 190.769 19.2294 190.373 20.4993Z" fill="white"/>
<path d="M221.091 20.4448V27.5494C221.091 27.946 220.774 28.2627 220.377 28.2627H218.106C217.71 28.2627 217.393 27.946 217.393 27.5494V20.7359C217.393 19.2293 216.628 18.5703 215.307 18.5703C213.538 18.5703 212.72 19.917 212.72 22.8503V27.5526C212.72 27.9492 212.403 28.2659 212.006 28.2659H209.735C209.338 28.2659 209.022 27.9492 209.022 27.5526V20.7391C209.022 19.2325 208.257 18.5735 206.907 18.5735C205.19 18.5735 204.399 19.8691 204.345 22.6424C204.345 25.0447 204.345 27.5558 204.345 27.5558C204.345 27.9524 204.028 28.2691 203.632 28.2691H201.361C200.964 28.2691 200.647 27.9524 200.647 27.5558V15.8226C200.647 15.4259 200.964 15.1092 201.361 15.1092H201.572C203.05 15.1092 203.763 15.8226 204.108 16.827C204.982 15.6658 206.194 15.0037 207.646 15.0037C209.681 15.0037 211.158 15.9025 211.977 17.3548C212.851 15.8769 214.169 15.0037 216.017 15.0037C219.242 15.0037 221.091 17.2236 221.091 20.4448Z" fill="white"/>
<path d="M235.114 15.8226L230.306 28.7906C229.382 31.3784 228.246 34.1262 225.025 34.1262C224.814 34.1262 223.969 34.1006 223.362 34.0206C222.859 33.995 222.463 33.7039 222.517 33.2273C222.571 32.6451 222.648 31.775 222.703 31.1929C222.757 30.5851 223.336 30.374 223.681 30.3996C224.158 30.4507 224.66 30.5595 225.028 30.5595C226.48 30.5595 227.088 29.264 227.43 28.2628H227.325C226.928 28.2628 226.48 27.9461 226.346 27.5494L222.04 15.8226C221.88 15.4259 222.095 15.1093 222.488 15.1093H223.122C225.447 15.1093 226.343 16.456 226.979 18.3305C227.456 19.8371 228.115 22.1882 228.617 24.1427C229.119 22.1882 229.622 20.0226 230.201 18.3305C230.808 16.456 231.707 15.1093 234.03 15.1093H234.663C235.06 15.1093 235.271 15.4259 235.114 15.8226Z" fill="white"/>
</svg>
