<svg width="107" height="81" viewBox="0 0 107 81" fill="none" xmlns="http://www.w3.org/2000/svg">
<path d="M92.7971 37.6826C94.2402 59.8901 77.4073 79.0641 55.1998 80.5072C32.9923 81.9503 13.8196 65.1174 12.3752 42.9099C10.9321 20.7024 27.7651 1.52969 49.9726 0.0865733C72.18 -1.35913 91.354 15.4738 92.7971 37.6826Z" fill="#0455BF"/>
<path d="M56.8598 29.2991C56.5355 31.0561 54.2643 31.9967 52.5072 31.6724C50.7501 31.3481 49.5887 29.6595 49.9129 27.9025C50.2372 26.1454 51.9258 24.9839 53.6828 25.3082C55.4399 25.6325 57.184 27.542 56.8598 29.2991Z" fill="#CF3A3A"/>
<path d="M70.8572 50.2666C70.533 52.0237 68.8443 53.1852 67.0873 52.8609C65.3302 52.5366 64.1687 50.848 64.493 49.0909C64.8173 47.3339 66.5046 46.1724 68.263 46.4967C70.0201 46.8223 71.1815 48.5096 70.8572 50.2666Z" fill="#CF3A3A"/>
<path d="M48.1301 74.0943C47.8058 75.8513 46.1185 77.0128 44.3601 76.6885C42.603 76.3643 41.4416 74.6757 41.7658 72.9186C42.0901 71.1615 43.7788 70 45.5358 70.3243C47.2929 70.6486 48.4544 72.3372 48.1301 74.0943Z" fill="#CF3A3A"/>
<path d="M28.222 44.3157C28.0256 45.3777 27.0062 46.0805 25.9429 45.8841C24.8809 45.6877 24.1781 44.6684 24.3745 43.6051C24.5708 42.5431 25.7013 41.2434 26.7633 41.4398C27.8266 41.6362 28.4183 43.2537 28.222 44.3157Z" fill="#CF3A3A"/>
<path d="M75.5273 11.2234C75.3671 12.089 74.5351 12.6627 73.6695 12.5025C72.8026 12.3423 72.2302 11.5102 72.3904 10.6433C72.5506 9.7764 73.3827 9.20408 74.2483 9.36428C75.1152 9.52578 75.6875 10.3578 75.5273 11.2234Z" fill="#CF3A3A"/>
<path d="M86.3863 38.0431C86.1512 39.3144 84.9304 40.1555 83.6591 39.9203C82.3878 39.6852 81.5467 38.4643 81.7818 37.193C82.017 35.9217 83.2378 35.0806 84.5091 35.3158C85.7817 35.5496 86.6215 36.7718 86.3863 38.0431Z" fill="#CF3A3A"/>
<path d="M25.6499 38.852C24.7288 40.3829 22.1772 40.3403 20.6462 39.4204C19.1152 38.5006 18.6191 36.5122 19.5403 34.98C20.4614 33.4477 22.4485 32.9529 23.9807 33.8741C25.5117 34.7939 26.5711 37.3197 25.6499 38.852Z" fill="#CF3A3A"/>
<path d="M52.532 38.9008C51.8847 39.977 50.4868 40.3258 49.4106 39.6785C48.3344 39.0312 47.7543 37.446 48.4016 36.3685C49.0488 35.2923 50.678 35.1321 51.7542 35.7794C52.8317 36.4267 53.1792 37.8245 52.532 38.9008Z" fill="#CF3A3A"/>
<path d="M37.1371 56.8208C36.4898 57.897 35.0933 58.2459 34.0158 57.5986C32.9396 56.9514 32.3595 55.3661 33.0068 54.2899C33.654 53.2137 35.2832 53.0535 36.3594 53.7008C37.4369 54.3468 37.7844 55.7446 37.1371 56.8208Z" fill="#CF3A3A"/>
<path d="M77.4119 69.5388C76.4907 71.0698 74.5036 71.5659 72.9714 70.6448C71.4391 69.7236 70.9444 67.7365 71.8655 66.2043C72.7867 64.6733 74.7737 64.1772 76.3059 65.0984C77.8369 66.0195 78.3317 68.0078 77.4119 69.5388Z" fill="#CF3A3A"/>
<path d="M53.5704 70.8901C53.02 71.8061 51.8314 72.1019 50.9141 71.5516C49.9981 71.0012 49.7023 69.8126 50.2526 68.8953C50.803 67.9793 51.9929 67.6835 52.9089 68.2338C53.8249 68.7855 54.1221 69.9741 53.5704 70.8901Z" fill="#CF3A3A"/>
<path d="M37.3164 15.7244C36.3952 17.2554 34.4082 17.7515 32.8759 16.8303C31.345 15.9091 30.8488 13.9221 31.77 12.3898C32.6912 10.8589 34.6782 10.3627 36.2105 11.2839C37.7414 12.2038 38.2363 14.1921 37.3164 15.7244Z" fill="#CF3A3A"/>
<path d="M106.455 34.9785C105.125 31.237 98.0842 30.1013 91.5159 29.8843C91.9564 31.5406 92.2911 33.2421 92.5198 34.9798C96.7974 35.2214 100.327 35.8079 101.529 36.5663C101.291 36.8944 100.765 37.481 99.6242 38.3259C97.6023 39.8272 95.3052 41.2561 92.8065 42.6127C71.3561 54.2675 34.3893 60.4753 16.7488 58.7221C15.7011 58.6175 14.7037 58.4935 13.8006 58.3333C5.7052 56.894 5.00109 55.1279 4.99721 55.1176C4.95974 54.1344 8.12375 51.4872 13.2386 49.0105C12.8691 47.3309 12.6146 45.6061 12.4596 43.8504C7.18967 46.1875 -0.475539 50.4949 0.0231575 55.6033C0.501183 60.4895 7.6147 62.3099 12.9247 63.253C14.9298 63.6096 17.3044 63.8241 19.9465 63.9158C23.0937 64.0256 26.6272 63.9584 30.454 63.7091C49.1434 62.4933 74.4529 57.1098 92.0133 48.5983C95.9977 46.6669 99.5855 44.5764 102.603 42.3349C103.87 41.3995 107.72 38.5417 106.455 34.9785Z" fill="#F2B705"/>
</svg>
