<svg width="1440" height="165" viewBox="0 0 1440 165" fill="none" xmlns="http://www.w3.org/2000/svg">
<path d="M9.26883 122.918C-2.0687 133.122 -41.3743 161.252 -44.7184 161.472C-52.1761 157.728 -78.9216 137.806 -93.747 122.113C-96.4367 119.262 -90.4569 113.979 -84.8726 117.816C-73.9054 125.355 -51.5324 145.495 -44.8622 150.851C-28.3683 139.358 -17.3328 131.888 -1.57967 118.765C4.55116 113.658 16.2411 116.649 9.26883 122.918C12.4008 120.103 -3.88457 134.755 9.26883 122.918Z" fill="#E8B467"/>
<path d="M103.86 122.918C92.5189 133.122 53.2097 161.252 49.8656 161.472C42.4115 157.728 15.6624 137.806 0.836964 122.113C-1.85269 119.262 4.12712 113.979 9.71498 117.816C20.6785 125.355 43.0552 145.495 49.7289 150.851C66.2157 139.358 77.2512 131.888 93.0079 118.765C99.1387 113.658 110.825 116.649 103.86 122.918C106.992 120.103 90.6994 134.755 103.86 122.918Z" fill="#E8B467"/>
<path d="M41.0623 125.632C33.2846 125.632 33.2846 116.959 41.0623 116.959C48.8364 116.959 48.8364 125.632 41.0623 125.632Z" fill="#E8B467"/>
<path d="M49.7109 136.839C41.9368 136.839 41.9368 128.164 49.7109 128.164C57.485 128.166 57.485 136.839 49.7109 136.839Z" fill="#E8B467"/>
<path d="M58.9202 125.632C51.1461 125.632 51.1461 116.959 58.9202 116.959C66.6943 116.959 66.6943 125.632 58.9202 125.632Z" fill="#E8B467"/>
<path d="M198.447 122.918C187.105 133.122 147.796 161.252 144.452 161.472C136.998 157.728 110.245 137.806 95.4236 122.113C92.7339 119.262 98.7174 113.979 104.305 117.816C115.269 125.355 137.642 145.495 144.319 150.851C160.806 139.358 171.841 131.888 187.598 118.765C193.733 113.658 205.415 116.649 198.447 122.918C201.582 120.103 185.29 134.755 198.447 122.918Z" fill="#E8B467"/>
<path d="M135.647 125.632C127.869 125.632 127.869 116.959 135.647 116.959C143.424 116.959 143.424 125.632 135.647 125.632Z" fill="#E8B467"/>
<path d="M144.301 136.839C136.523 136.839 136.523 128.164 144.301 128.164C152.071 128.166 152.071 136.839 144.301 136.839Z" fill="#E8B467"/>
<path d="M153.51 125.632C145.732 125.632 145.732 116.959 153.51 116.959C161.28 116.959 161.28 125.632 153.51 125.632Z" fill="#E8B467"/>
<path d="M293.034 122.918C281.696 133.122 242.387 161.252 239.043 161.472C231.585 157.728 204.833 137.806 190.007 122.113C187.321 119.262 193.304 113.979 198.885 117.816C209.859 125.355 232.225 145.495 238.899 150.851C255.386 139.358 266.425 131.888 282.182 118.765C288.316 113.658 300.002 116.649 293.034 122.918C296.162 120.103 279.877 134.755 293.034 122.918Z" fill="#E8B467"/>
<path d="M230.23 125.632C222.463 125.632 222.463 116.959 230.23 116.959C238.011 116.959 238.011 125.632 230.23 125.632Z" fill="#E8B467"/>
<path d="M238.885 136.839C231.111 136.839 231.111 128.164 238.885 128.164C246.659 128.166 246.659 136.839 238.885 136.839Z" fill="#E8B467"/>
<path d="M248.097 125.632C240.316 125.632 240.316 116.959 248.097 116.959C255.872 116.959 255.872 125.632 248.097 125.632Z" fill="#E8B467"/>
<path d="M387.62 122.918C376.279 133.122 336.97 161.252 333.63 161.472C326.172 157.728 299.416 137.806 284.601 122.113C281.908 119.262 287.891 113.979 293.468 117.816C304.443 125.355 326.812 145.495 333.482 150.851C349.969 139.358 361.008 131.888 376.765 118.765C382.903 113.658 394.582 116.649 387.62 122.918C390.752 120.103 374.463 134.755 387.62 122.918Z" fill="#E8B467"/>
<path d="M324.823 125.632C317.049 125.632 317.049 116.959 324.823 116.959C332.59 116.959 332.59 125.632 324.823 125.632Z" fill="#E8B467"/>
<path d="M333.471 136.839C325.697 136.839 325.697 128.163 333.471 128.163C341.245 128.166 341.245 136.839 333.471 136.839Z" fill="#E8B467"/>
<path d="M342.685 125.632C334.911 125.632 334.911 116.959 342.685 116.959C350.459 116.959 350.459 125.632 342.685 125.632Z" fill="#E8B467"/>
<path d="M482.211 122.918C470.866 133.122 431.557 161.252 428.213 161.472C420.759 157.728 394.006 137.806 379.188 122.113C376.495 119.262 382.478 113.979 388.062 117.816C399.029 125.355 421.402 145.495 428.076 150.851C444.563 139.358 455.598 131.888 471.359 118.765C477.49 113.658 489.176 116.649 482.211 122.918C485.339 120.103 469.05 134.755 482.211 122.918Z" fill="#E8B467"/>
<path d="M419.406 125.632C411.632 125.632 411.632 116.959 419.406 116.959C427.18 116.959 427.18 125.632 419.406 125.632Z" fill="#E8B467"/>
<path d="M428.058 136.839C420.284 136.839 420.284 128.164 428.058 128.164C435.835 128.166 435.835 136.839 428.058 136.839Z" fill="#E8B467"/>
<path d="M437.27 125.632C429.493 125.632 429.493 116.959 437.27 116.959C445.044 116.959 445.044 125.632 437.27 125.632Z" fill="#E8B467"/>
<path d="M576.788 122.918C565.454 133.122 526.145 161.252 522.801 161.472C515.347 157.728 488.598 137.806 473.772 122.113C471.079 119.262 477.062 113.979 482.647 117.816C493.617 125.355 515.99 145.495 522.664 150.851C539.147 139.358 550.186 131.888 565.939 118.765C572.077 113.658 583.764 116.649 576.788 122.918C579.927 120.103 563.642 134.755 576.788 122.918Z" fill="#E8B467"/>
<path d="M513.995 125.632C506.221 125.632 506.221 116.959 513.995 116.959C521.773 116.959 521.773 125.632 513.995 125.632Z" fill="#E8B467"/>
<path d="M522.651 136.839C514.877 136.839 514.877 128.164 522.651 128.164C530.425 128.166 530.425 136.839 522.651 136.839Z" fill="#E8B467"/>
<path d="M531.856 125.632C524.082 125.632 524.082 116.959 531.856 116.959C539.637 116.959 539.637 125.632 531.856 125.632Z" fill="#E8B467"/>
<path d="M671.146 122.918C659.812 133.122 620.499 161.252 617.159 161.472C609.701 157.728 582.955 137.806 568.13 122.113C565.437 119.262 571.424 113.979 577.004 117.816C587.972 125.355 610.345 145.495 617.015 150.851C633.509 139.358 644.541 131.888 660.301 118.765C666.428 113.658 678.118 116.649 671.146 122.918C674.281 120.103 657.989 134.755 671.146 122.918Z" fill="#E8B467"/>
<path d="M608.353 125.632C600.576 125.632 600.576 116.959 608.353 116.959C616.127 116.959 616.127 125.632 608.353 125.632Z" fill="#E8B467"/>
<path d="M617 136.839C609.226 136.839 609.226 128.164 617 128.164C624.774 128.166 624.774 136.839 617 136.839Z" fill="#E8B467"/>
<path d="M626.212 125.632C618.438 125.632 618.438 116.959 626.212 116.959C633.99 116.959 633.99 125.632 626.212 125.632Z" fill="#E8B467"/>
<path d="M765.729 122.918C754.395 133.122 715.086 161.252 711.742 161.472C704.284 157.728 677.539 137.806 662.713 122.113C660.024 119.262 666.003 113.979 671.591 117.816C682.555 125.355 704.931 145.495 711.601 150.851C728.092 139.358 739.131 131.888 754.884 118.765C761.015 113.658 772.705 116.649 765.729 122.918C768.861 120.103 752.576 134.755 765.729 122.918Z" fill="#E8B467"/>
<path d="M702.937 125.632C695.163 125.632 695.163 116.959 702.937 116.959C710.714 116.959 710.714 125.632 702.937 125.632Z" fill="#E8B467"/>
<path d="M711.587 136.839C703.813 136.839 703.813 128.164 711.587 128.164C719.361 128.164 719.361 136.839 711.587 136.839Z" fill="#E8B467"/>
<path d="M720.796 125.632C713.022 125.632 713.022 116.959 720.796 116.959C728.574 116.959 728.574 125.632 720.796 125.632Z" fill="#E8B467"/>
<path d="M860.323 122.918C848.982 133.122 809.672 161.252 806.328 161.472C798.874 157.728 772.125 137.806 757.3 122.113C754.61 119.262 760.593 113.979 766.178 117.816C777.145 125.355 799.518 145.495 806.195 150.851C822.678 139.358 833.717 131.888 849.471 118.765C855.605 113.658 867.291 116.649 860.323 122.918C863.455 120.103 847.162 134.755 860.323 122.918Z" fill="#E8B467"/>
<path d="M797.522 125.632C789.748 125.632 789.748 116.959 797.522 116.959C805.297 116.959 805.297 125.632 797.522 125.632Z" fill="#E8B467"/>
<path d="M806.174 136.839C798.4 136.839 798.4 128.164 806.174 128.164C813.944 128.166 813.944 136.839 806.174 136.839Z" fill="#E8B467"/>
<path d="M815.383 125.632C807.609 125.632 807.609 116.959 815.383 116.959C823.157 116.959 823.157 125.632 815.383 125.632Z" fill="#E8B467"/>
<path d="M954.912 122.918C943.574 133.122 904.262 161.252 900.917 161.472C893.467 157.728 866.714 137.806 851.889 122.113C849.199 119.262 855.183 113.979 860.77 117.816C871.734 125.355 894.103 145.495 900.784 150.851C917.271 139.358 928.307 131.888 944.06 118.765C950.198 113.658 961.88 116.649 954.912 122.918C958.051 120.103 941.755 134.755 954.912 122.918Z" fill="#E8B467"/>
<path d="M892.113 125.632C884.339 125.632 884.339 116.959 892.113 116.959C899.89 116.959 899.89 125.632 892.113 125.632Z" fill="#E8B467"/>
<path d="M900.766 136.839C892.988 136.839 892.988 128.164 900.766 128.164C908.536 128.166 908.536 136.839 900.766 136.839Z" fill="#E8B467"/>
<path d="M909.98 125.632C902.198 125.632 902.198 116.959 909.98 116.959C917.747 116.959 917.747 125.632 909.98 125.632Z" fill="#E8B467"/>
<path d="M1049.5 122.918C1038.16 133.122 998.852 161.252 995.508 161.472C988.05 157.728 961.294 137.806 946.472 122.113C943.783 119.262 949.77 113.979 955.35 117.816C966.325 125.355 988.69 145.495 995.368 150.851C1011.85 139.358 1022.89 131.888 1038.65 118.765C1044.78 113.658 1056.47 116.649 1049.5 122.918C1052.63 120.103 1036.34 134.755 1049.5 122.918Z" fill="#E8B467"/>
<path d="M986.694 125.632C978.927 125.632 978.927 116.959 986.694 116.959C994.475 116.959 994.475 125.632 986.694 125.632Z" fill="#E8B467"/>
<path d="M995.351 136.839C987.577 136.839 987.577 128.164 995.351 128.164C1003.12 128.166 1003.12 136.839 995.351 136.839Z" fill="#E8B467"/>
<path d="M1004.56 125.632C996.782 125.632 996.782 116.959 1004.56 116.959C1012.34 116.959 1012.34 125.632 1004.56 125.632Z" fill="#E8B467"/>
<path d="M1144.09 122.918C1132.75 133.122 1093.44 161.252 1090.1 161.472C1082.64 157.728 1055.88 137.806 1041.07 122.113C1038.37 119.262 1044.36 113.979 1049.94 117.816C1060.92 125.355 1083.28 145.495 1089.95 150.851C1106.44 139.358 1117.48 131.888 1133.24 118.765C1139.36 113.658 1151.05 116.649 1144.09 122.918C1147.21 120.103 1130.93 134.755 1144.09 122.918Z" fill="#E8B467"/>
<path d="M1081.29 125.632C1073.51 125.632 1073.51 116.959 1081.29 116.959C1089.06 116.959 1089.06 125.632 1081.29 125.632Z" fill="#E8B467"/>
<path d="M1089.93 136.839C1082.16 136.839 1082.16 128.164 1089.93 128.164C1097.71 128.166 1097.71 136.839 1089.93 136.839Z" fill="#E8B467"/>
<path d="M1099.15 125.632C1091.38 125.632 1091.38 116.959 1099.15 116.959C1106.92 116.959 1106.92 125.632 1099.15 125.632Z" fill="#E8B467"/>
<path d="M1238.68 122.918C1227.34 133.122 1188.02 161.252 1184.68 161.472C1177.22 157.728 1150.47 137.806 1135.65 122.113C1132.96 119.262 1138.95 113.979 1144.53 117.816C1155.5 125.355 1177.87 145.495 1184.54 150.851C1201.03 139.358 1212.06 131.888 1227.83 118.765C1233.96 113.658 1245.64 116.649 1238.68 122.918C1241.81 120.103 1225.51 134.755 1238.68 122.918Z" fill="#E8B467"/>
<path d="M1175.88 125.632C1168.1 125.632 1168.1 116.959 1175.88 116.959C1183.65 116.959 1183.65 125.632 1175.88 125.632Z" fill="#E8B467"/>
<path d="M1184.52 136.839C1176.75 136.839 1176.75 128.164 1184.52 128.164C1192.3 128.166 1192.3 136.839 1184.52 136.839Z" fill="#E8B467"/>
<path d="M1193.74 125.632C1185.96 125.632 1185.96 116.959 1193.74 116.959C1201.51 116.959 1201.51 125.632 1193.74 125.632Z" fill="#E8B467"/>
<path d="M1344.69 123.638C1333.35 133.842 1294.03 161.972 1290.69 162.192C1283.24 158.448 1256.48 138.525 1241.66 122.833C1238.97 119.982 1244.96 114.698 1250.54 118.535C1261.51 126.075 1283.88 146.215 1290.55 151.571C1307.04 140.078 1318.07 132.608 1333.84 119.485C1339.97 114.377 1351.65 117.368 1344.69 123.638C1347.82 120.823 1331.52 135.475 1344.69 123.638Z" fill="#E8B467"/>
<path d="M1281.89 126.351C1274.11 126.351 1274.11 117.678 1281.89 117.678C1289.66 117.678 1289.66 126.351 1281.89 126.351Z" fill="#E8B467"/>
<path d="M1290.53 137.559C1282.76 137.559 1282.76 128.883 1290.53 128.883C1298.31 128.886 1298.31 137.559 1290.53 137.559Z" fill="#E8B467"/>
<path d="M1299.75 126.351C1291.97 126.351 1291.97 117.678 1299.75 117.678C1307.52 117.678 1307.52 126.351 1299.75 126.351Z" fill="#E8B467"/>
<path d="M1450.69 124.357C1439.35 134.562 1400.03 162.691 1396.69 162.911C1389.23 159.167 1362.48 139.245 1347.66 123.552C1344.97 120.701 1350.96 115.418 1356.54 119.255C1367.51 126.794 1389.88 146.934 1396.55 152.29C1413.04 140.797 1424.07 133.327 1439.83 120.204C1445.97 115.097 1457.65 118.088 1450.69 124.357C1453.82 121.542 1437.52 136.194 1450.69 124.357Z" fill="#E8B467"/>
<path d="M1387.89 127.071C1380.11 127.071 1380.11 118.398 1387.89 118.398C1395.66 118.398 1395.66 127.071 1387.89 127.071Z" fill="#E8B467"/>
<path d="M1396.53 138.278C1388.76 138.278 1388.76 129.603 1396.53 129.603C1404.31 129.605 1404.31 138.278 1396.53 138.278Z" fill="#E8B467"/>
<path d="M1405.75 127.071C1397.97 127.071 1397.97 118.398 1405.75 118.398C1413.52 118.398 1413.52 127.071 1405.75 127.071Z" fill="#E8B467"/>
<g clip-path="url(#clip0_2196_15181)">
<rect width="1954" height="61.1616" transform="translate(-287.971 52.2097)" fill="#E8B467"/>
<rect x="1392.93" y="77.8708" width="10" height="10" rx="5" fill="#B33E00"/>
<path d="M1429.48 94.3708L1429.48 71.0981L1437.78 71.0981C1439.59 71.0981 1441.09 71.4276 1442.28 72.0867C1443.47 72.7458 1444.36 73.6473 1444.95 74.7912C1445.54 75.9276 1445.83 77.2079 1445.83 78.6322C1445.83 80.064 1445.53 81.3519 1444.94 82.4958C1444.35 83.6322 1443.45 84.5337 1442.25 85.2003C1441.07 85.8594 1439.57 86.189 1437.77 86.189L1432.06 86.189L1432.06 83.2117L1437.45 83.2117C1438.59 83.2117 1439.52 83.0147 1440.23 82.6208C1440.94 82.2193 1441.47 81.6738 1441.8 80.9844C1442.13 80.295 1442.3 79.5109 1442.3 78.6322C1442.3 77.7534 1442.13 76.9731 1441.8 76.2912C1441.47 75.6094 1440.94 75.0753 1440.22 74.689C1439.51 74.3026 1438.57 74.1094 1437.4 74.1094L1432.99 74.1094L1432.99 94.3708L1429.48 94.3708ZM1453.08 71.0981L1453.08 94.3708L1449.68 94.3708L1449.68 71.0981L1453.08 71.0981ZM1462.73 94.7572C1461.62 94.7572 1460.62 94.5526 1459.73 94.1435C1458.83 93.7269 1458.12 93.1246 1457.6 92.3367C1457.09 91.5488 1456.83 90.5829 1456.83 89.439C1456.83 88.4541 1457.02 87.6435 1457.4 87.0072C1457.78 86.3708 1458.29 85.867 1458.93 85.4958C1459.57 85.1246 1460.29 84.8443 1461.09 84.6549C1461.89 84.4655 1462.7 84.3215 1463.52 84.2231C1464.57 84.1019 1465.42 84.0034 1466.07 83.9276C1466.72 83.8443 1467.19 83.7117 1467.49 83.5299C1467.78 83.3481 1467.93 83.0526 1467.93 82.6435L1467.93 82.564C1467.93 81.5715 1467.65 80.8026 1467.09 80.2572C1466.54 79.7117 1465.71 79.439 1464.61 79.439C1463.47 79.439 1462.57 79.6928 1461.91 80.2003C1461.26 80.7003 1460.81 81.2572 1460.56 81.8708L1457.36 81.1435C1457.74 80.0829 1458.29 79.2269 1459.02 78.5753C1459.76 77.9162 1460.6 77.439 1461.56 77.1435C1462.51 76.8405 1463.51 76.689 1464.57 76.689C1465.26 76.689 1466 76.7723 1466.78 76.939C1467.57 77.0981 1468.31 77.3935 1468.99 77.8253C1469.68 78.2572 1470.24 78.8746 1470.68 79.6776C1471.12 80.4731 1471.34 81.5072 1471.34 82.7799L1471.34 94.3708L1468.02 94.3708L1468.02 91.9844L1467.89 91.9844C1467.67 92.4238 1467.34 92.8556 1466.9 93.2799C1466.46 93.7041 1465.89 94.0564 1465.2 94.3367C1464.51 94.617 1463.69 94.7572 1462.73 94.7572ZM1463.46 92.0299C1464.4 92.0299 1465.21 91.8443 1465.87 91.4731C1466.55 91.1019 1467.06 90.617 1467.41 90.0185C1467.76 89.4125 1467.94 88.7647 1467.94 88.0753L1467.94 85.8253C1467.82 85.9465 1467.59 86.0602 1467.24 86.1662C1466.9 86.2647 1466.51 86.3519 1466.07 86.4276C1465.63 86.4958 1465.2 86.5602 1464.78 86.6208C1464.37 86.6738 1464.02 86.7193 1463.74 86.7572C1463.08 86.8405 1462.48 86.9806 1461.93 87.1776C1461.39 87.3746 1460.96 87.6587 1460.64 88.0299C1460.32 88.3935 1460.16 88.8784 1460.16 89.4844C1460.16 90.3253 1460.47 90.9617 1461.09 91.3935C1461.71 91.8178 1462.5 92.0299 1463.46 92.0299ZM1477.39 100.916C1476.88 100.916 1476.42 100.875 1476 100.791C1475.59 100.715 1475.27 100.632 1475.07 100.541L1475.89 97.7572C1476.51 97.9238 1477.06 97.9958 1477.55 97.9731C1478.03 97.9503 1478.46 97.7685 1478.83 97.4276C1479.21 97.0867 1479.54 96.5299 1479.83 95.7572L1480.25 94.5981L1473.87 76.9162L1477.5 76.9162L1481.92 90.4617L1482.1 90.4617L1486.52 76.9162L1490.17 76.9162L1482.98 96.7003C1482.65 97.6094 1482.22 98.3784 1481.71 99.0072C1481.19 99.6435 1480.58 100.121 1479.87 100.439C1479.15 100.757 1478.33 100.916 1477.39 100.916Z" fill="#B33E00"/>
<rect x="1073.95" y="77.8708" width="10" height="10" rx="5" fill="#B33E00"/>
<path d="M1118.04 94.3708L1110.5 94.3708L1110.5 71.0981L1118.28 71.0981C1120.56 71.0981 1122.51 71.564 1124.15 72.4958C1125.79 73.42 1127.04 74.7496 1127.91 76.4844C1128.79 78.2117 1129.23 80.2837 1129.23 82.7003C1129.23 85.1246 1128.79 87.2079 1127.9 88.9503C1127.02 90.6928 1125.75 92.0337 1124.08 92.9731C1122.42 93.9049 1120.4 94.3708 1118.04 94.3708ZM1114.01 91.3026L1117.84 91.3026C1119.62 91.3026 1121.09 90.9693 1122.26 90.3026C1123.44 89.6284 1124.32 88.6549 1124.9 87.3822C1125.48 86.1019 1125.78 84.5412 1125.78 82.7003C1125.78 80.8746 1125.48 79.3253 1124.9 78.0526C1124.32 76.7799 1123.46 75.814 1122.32 75.1549C1121.18 74.4958 1119.76 74.1662 1118.06 74.1662L1114.01 74.1662L1114.01 91.3026ZM1138.4 94.7572C1137.3 94.7572 1136.3 94.5526 1135.4 94.1435C1134.51 93.7269 1133.8 93.1246 1133.28 92.3367C1132.76 91.5488 1132.51 90.5829 1132.51 89.439C1132.51 88.4541 1132.69 87.6435 1133.07 87.0072C1133.45 86.3708 1133.96 85.867 1134.61 85.4958C1135.25 85.1246 1135.97 84.8443 1136.77 84.6549C1137.56 84.4655 1138.37 84.3215 1139.2 84.2231C1140.24 84.1019 1141.09 84.0034 1141.74 83.9276C1142.4 83.8443 1142.87 83.7117 1143.16 83.5299C1143.46 83.3481 1143.61 83.0526 1143.61 82.6435L1143.61 82.564C1143.61 81.5715 1143.33 80.8026 1142.77 80.2572C1142.21 79.7117 1141.39 79.439 1140.29 79.439C1139.15 79.439 1138.24 79.6928 1137.58 80.2003C1136.93 80.7003 1136.48 81.2572 1136.23 81.8708L1133.04 81.1435C1133.42 80.0829 1133.97 79.2269 1134.7 78.5753C1135.43 77.9162 1136.28 77.439 1137.23 77.1435C1138.19 76.8405 1139.19 76.689 1140.24 76.689C1140.94 76.689 1141.68 76.7723 1142.46 76.939C1143.25 77.0981 1143.98 77.3935 1144.66 77.8253C1145.35 78.2572 1145.92 78.8746 1146.36 79.6776C1146.8 80.4731 1147.02 81.5072 1147.02 82.7799L1147.02 94.3708L1143.7 94.3708L1143.7 91.9844L1143.56 91.9844C1143.34 92.4238 1143.01 92.8556 1142.57 93.2799C1142.13 93.7041 1141.57 94.0564 1140.88 94.3367C1140.19 94.617 1139.37 94.7572 1138.4 94.7572ZM1139.14 92.0299C1140.08 92.0299 1140.88 91.8443 1141.55 91.4731C1142.22 91.1019 1142.74 90.617 1143.08 90.0185C1143.44 89.4125 1143.62 88.7647 1143.62 88.0753L1143.62 85.8253C1143.5 85.9465 1143.26 86.0602 1142.91 86.1662C1142.57 86.2647 1142.18 86.3519 1141.74 86.4276C1141.3 86.4958 1140.88 86.5602 1140.46 86.6208C1140.04 86.6738 1139.69 86.7193 1139.41 86.7572C1138.76 86.8405 1138.15 86.9806 1137.61 87.1776C1137.07 87.3746 1136.64 87.6587 1136.31 88.0299C1135.99 88.3935 1135.83 88.8784 1135.83 89.4844C1135.83 90.3253 1136.15 90.9617 1136.77 91.3935C1137.39 91.8178 1138.18 92.0299 1139.14 92.0299ZM1154.94 84.0072L1154.94 94.3708L1151.54 94.3708L1151.54 76.9162L1154.8 76.9162L1154.8 79.7572L1155.02 79.7572C1155.42 78.8329 1156.05 78.0905 1156.91 77.5299C1157.77 76.9693 1158.86 76.689 1160.17 76.689C1161.36 76.689 1162.4 76.939 1163.29 77.439C1164.19 77.9314 1164.88 78.6662 1165.37 79.6435C1165.86 80.6208 1166.11 81.8291 1166.11 83.2685L1166.11 94.3708L1162.71 94.3708L1162.71 83.6776C1162.71 82.4125 1162.38 81.4238 1161.72 80.7117C1161.06 79.992 1160.16 79.6322 1159.01 79.6322C1158.22 79.6322 1157.52 79.8026 1156.91 80.1435C1156.3 80.4844 1155.82 80.9844 1155.46 81.6435C1155.11 82.295 1154.94 83.0829 1154.94 84.0072ZM1178.02 94.7231C1176.33 94.7231 1174.88 94.3405 1173.66 93.5753C1172.44 92.8026 1171.51 91.7382 1170.86 90.3822C1170.21 89.0261 1169.88 87.4731 1169.88 85.7231C1169.88 83.9503 1170.22 82.3859 1170.88 81.0299C1171.55 79.6662 1172.49 78.6019 1173.7 77.8367C1174.91 77.0715 1176.34 76.689 1177.99 76.689C1179.31 76.689 1180.49 76.9352 1181.53 77.4276C1182.57 77.9125 1183.41 78.5943 1184.04 79.4731C1184.69 80.3519 1185.07 81.3784 1185.19 82.5526L1181.88 82.5526C1181.7 81.7344 1181.28 81.0299 1180.63 80.439C1179.99 79.8481 1179.13 79.5526 1178.04 79.5526C1177.1 79.5526 1176.27 79.8026 1175.55 80.3026C1174.85 80.795 1174.3 81.4996 1173.91 82.4162C1173.51 83.3253 1173.31 84.4011 1173.31 85.6435C1173.31 86.9162 1173.51 88.0147 1173.89 88.939C1174.28 89.8632 1174.83 90.5791 1175.53 91.0867C1176.24 91.5943 1177.08 91.8481 1178.04 91.8481C1178.69 91.8481 1179.27 91.7306 1179.79 91.4958C1180.32 91.2534 1180.77 90.9087 1181.12 90.4617C1181.49 90.0147 1181.74 89.4769 1181.88 88.8481L1185.19 88.8481C1185.07 89.9769 1184.7 90.9844 1184.09 91.8708C1183.47 92.7572 1182.65 93.4541 1181.62 93.9617C1180.6 94.4693 1179.4 94.7231 1178.02 94.7231ZM1196.35 94.7231C1194.63 94.7231 1193.15 94.3556 1191.9 93.6208C1190.67 92.8784 1189.71 91.8367 1189.04 90.4958C1188.37 89.1473 1188.04 87.5678 1188.04 85.7572C1188.04 83.9693 1188.37 82.3935 1189.04 81.0299C1189.71 79.6662 1190.65 78.6019 1191.86 77.8367C1193.07 77.0715 1194.49 76.689 1196.11 76.689C1197.09 76.689 1198.05 76.8519 1198.97 77.1776C1199.9 77.5034 1200.72 78.0147 1201.46 78.7117C1202.19 79.4087 1202.77 80.314 1203.2 81.4276C1203.62 82.5337 1203.83 83.8784 1203.83 85.4617L1203.83 86.6662L1189.96 86.6662L1189.96 84.1208L1200.51 84.1208C1200.51 83.2269 1200.32 82.4352 1199.96 81.7458C1199.6 81.0488 1199.08 80.4996 1198.43 80.0981C1197.77 79.6965 1197.01 79.4958 1196.13 79.4958C1195.18 79.4958 1194.34 79.7306 1193.63 80.2003C1192.93 80.6625 1192.38 81.2685 1191.99 82.0185C1191.62 82.7609 1191.43 83.5678 1191.43 84.439L1191.43 86.4276C1191.43 87.5943 1191.63 88.5867 1192.04 89.4049C1192.46 90.2231 1193.04 90.8481 1193.78 91.2799C1194.52 91.7041 1195.39 91.9162 1196.38 91.9162C1197.02 91.9162 1197.61 91.8253 1198.14 91.6435C1198.67 91.4541 1199.13 91.1738 1199.52 90.8026C1199.9 90.4314 1200.2 89.9731 1200.4 89.4276L1203.62 90.0072C1203.36 90.9541 1202.9 91.7837 1202.23 92.4958C1201.57 93.2003 1200.74 93.7496 1199.74 94.1435C1198.75 94.5299 1197.62 94.7231 1196.35 94.7231Z" fill="#B3001A"/>
<rect x="623.028" y="77.8707" width="10" height="10" rx="5" fill="#B33E00"/>
<path d="M667.119 94.3707L659.585 94.3707L659.585 71.098L667.358 71.098C669.638 71.098 671.597 71.5639 673.233 72.4957C674.869 73.42 676.123 74.7495 676.994 76.4844C677.873 78.2116 678.312 80.2836 678.312 82.7003C678.312 85.1245 677.869 87.2079 676.983 88.9503C676.104 90.6927 674.831 92.0336 673.165 92.973C671.498 93.9048 669.483 94.3707 667.119 94.3707ZM663.097 91.3025L666.926 91.3025C668.699 91.3025 670.172 90.9692 671.347 90.3025C672.521 89.6283 673.4 88.6548 673.983 87.3821C674.566 86.1018 674.858 84.5412 674.858 82.7003C674.858 80.8745 674.566 79.3253 673.983 78.0525C673.407 76.7798 672.547 75.8139 671.403 75.1548C670.259 74.4957 668.839 74.1662 667.142 74.1662L663.097 74.1662L663.097 91.3025ZM687.486 94.7571C686.38 94.7571 685.38 94.5525 684.486 94.1435C683.592 93.7268 682.883 93.1245 682.361 92.3366C681.846 91.5488 681.588 90.5829 681.588 89.4389C681.588 88.4541 681.777 87.6435 682.156 87.0071C682.535 86.3707 683.046 85.8669 683.69 85.4957C684.334 85.1245 685.054 84.8442 685.849 84.6548C686.645 84.4654 687.455 84.3215 688.281 84.223C689.327 84.1018 690.175 84.0033 690.827 83.9275C691.478 83.8442 691.952 83.7116 692.247 83.5298C692.543 83.348 692.69 83.0525 692.69 82.6435L692.69 82.5639C692.69 81.5715 692.41 80.8025 691.849 80.2571C691.296 79.7116 690.471 79.4389 689.372 79.4389C688.228 79.4389 687.327 79.6927 686.668 80.2003C686.016 80.7003 685.565 81.2571 685.315 81.8707L682.122 81.1435C682.501 80.0829 683.054 79.2268 683.781 78.5753C684.516 77.9162 685.361 77.4389 686.315 77.1435C687.27 76.8404 688.274 76.6889 689.327 76.6889C690.024 76.6889 690.762 76.7722 691.543 76.9389C692.33 77.098 693.065 77.3935 693.747 77.8253C694.436 78.2571 695.001 78.8745 695.44 79.6775C695.88 80.473 696.099 81.5071 696.099 82.7798L696.099 94.3707L692.781 94.3707L692.781 91.9844L692.645 91.9844C692.425 92.4238 692.096 92.8556 691.656 93.2798C691.217 93.7041 690.652 94.0563 689.963 94.3366C689.274 94.6169 688.448 94.7571 687.486 94.7571ZM688.224 92.0298C689.164 92.0298 689.967 91.8442 690.633 91.473C691.308 91.1018 691.819 90.6169 692.168 90.0185C692.524 89.4124 692.702 88.7647 692.702 88.0753L692.702 85.8253C692.58 85.9465 692.346 86.0601 691.997 86.1662C691.656 86.2647 691.266 86.3518 690.827 86.4275C690.387 86.4957 689.959 86.5601 689.543 86.6207C689.126 86.6738 688.777 86.7192 688.497 86.7571C687.838 86.8404 687.236 86.9806 686.69 87.1775C686.152 87.3745 685.721 87.6586 685.395 88.0298C685.077 88.3935 684.918 88.8783 684.918 89.4844C684.918 90.3253 685.228 90.9616 685.849 91.3935C686.471 91.8177 687.262 92.0298 688.224 92.0298ZM704.023 84.0071L704.023 94.3707L700.625 94.3707L700.625 76.9162L703.886 76.9162L703.886 79.7571L704.102 79.7571C704.504 78.8329 705.132 78.0904 705.989 77.5298C706.852 76.9692 707.939 76.6889 709.25 76.6889C710.439 76.6889 711.481 76.9389 712.375 77.4389C713.269 77.9313 713.962 78.6662 714.454 79.6435C714.947 80.6207 715.193 81.8291 715.193 83.2685L715.193 94.3707L711.795 94.3707L711.795 83.6775C711.795 82.4124 711.466 81.4238 710.807 80.7116C710.148 79.9919 709.242 79.6321 708.091 79.6321C707.303 79.6321 706.602 79.8025 705.989 80.1435C705.382 80.4844 704.901 80.9844 704.545 81.6435C704.197 82.295 704.023 83.0829 704.023 84.0071ZM727.102 94.723C725.413 94.723 723.958 94.3404 722.739 93.5753C721.526 92.8025 720.595 91.7382 719.943 90.3821C719.292 89.026 718.966 87.473 718.966 85.723C718.966 83.9503 719.299 82.3859 719.966 81.0298C720.632 79.6662 721.572 78.6018 722.784 77.8366C723.996 77.0715 725.424 76.6889 727.068 76.6889C728.394 76.6889 729.576 76.9351 730.614 77.4275C731.651 77.9124 732.489 78.5942 733.125 79.473C733.769 80.3518 734.151 81.3783 734.273 82.5525L730.966 82.5525C730.784 81.7344 730.367 81.0298 729.716 80.4389C729.072 79.848 728.208 79.5525 727.125 79.5525C726.178 79.5525 725.348 79.8025 724.636 80.3025C723.932 80.795 723.382 81.4995 722.989 82.4162C722.595 83.3253 722.398 84.401 722.398 85.6435C722.398 86.9162 722.591 88.0147 722.977 88.9389C723.364 89.8632 723.909 90.5791 724.614 91.0866C725.326 91.5942 726.163 91.848 727.125 91.848C727.769 91.848 728.352 91.7306 728.875 91.4957C729.405 91.2533 729.848 90.9086 730.204 90.4616C730.568 90.0147 730.822 89.4768 730.966 88.848L734.273 88.848C734.151 89.9768 733.784 90.9844 733.17 91.8707C732.557 92.7571 731.735 93.4541 730.704 93.9616C729.682 94.4692 728.481 94.723 727.102 94.723ZM745.429 94.723C743.709 94.723 742.228 94.3556 740.986 93.6207C739.751 92.8783 738.796 91.8366 738.122 90.4957C737.455 89.1472 737.122 87.5677 737.122 85.7571C737.122 83.9692 737.455 82.3935 738.122 81.0298C738.796 79.6662 739.736 78.6018 740.94 77.8366C742.152 77.0715 743.569 76.6889 745.19 76.6889C746.175 76.6889 747.13 76.8518 748.054 77.1775C748.978 77.5033 749.808 78.0147 750.543 78.7116C751.277 79.4086 751.857 80.3139 752.281 81.4275C752.705 82.5336 752.918 83.8783 752.918 85.4616L752.918 86.6662L739.043 86.6662L739.043 84.1207L749.588 84.1207C749.588 83.2268 749.406 82.4351 749.043 81.7457C748.679 81.0488 748.168 80.4995 747.508 80.098C746.857 79.6965 746.092 79.4957 745.213 79.4957C744.258 79.4957 743.425 79.7306 742.713 80.2003C742.008 80.6624 741.463 81.2685 741.077 82.0185C740.698 82.7609 740.508 83.5677 740.508 84.4389L740.508 86.4275C740.508 87.5942 740.713 88.5866 741.122 89.4048C741.539 90.223 742.118 90.848 742.861 91.2798C743.603 91.7041 744.471 91.9162 745.463 91.9162C746.107 91.9162 746.694 91.8253 747.224 91.6435C747.755 91.4541 748.213 91.1738 748.599 90.8025C748.986 90.4313 749.281 89.973 749.486 89.4275L752.702 90.0071C752.444 90.9541 751.982 91.7836 751.315 92.4957C750.656 93.2003 749.827 93.7495 748.827 94.1435C747.834 94.5298 746.702 94.723 745.429 94.723Z" fill="#B3001A"/>
<rect x="787.966" y="77.8708" width="10" height="10" rx="5" fill="#B33E00"/>
<path d="M824.523 94.3708L824.523 71.0981L832.818 71.0981C834.621 71.0981 836.118 71.4087 837.307 72.0299C838.504 72.6511 839.398 73.5109 839.989 74.6094C840.58 75.7003 840.875 76.9617 840.875 78.3935C840.875 79.8178 840.576 81.0715 839.977 82.1549C839.387 83.2306 838.493 84.0678 837.296 84.6662C836.106 85.2647 834.61 85.564 832.807 85.564L826.523 85.564L826.523 82.5412L832.489 82.5412C833.625 82.5412 834.549 82.3784 835.262 82.0526C835.981 81.7269 836.508 81.2534 836.841 80.6322C837.174 80.0109 837.341 79.2647 837.341 78.3935C837.341 77.5147 837.171 76.7534 836.83 76.1094C836.496 75.4655 835.97 74.9731 835.25 74.6322C834.538 74.2837 833.602 74.1094 832.443 74.1094L828.034 74.1094L828.034 94.3708L824.523 94.3708ZM836.012 83.8708L841.762 94.3708L837.762 94.3708L832.125 83.8708L836.012 83.8708ZM852.179 94.7231C850.459 94.7231 848.978 94.3556 847.736 93.6208C846.501 92.8784 845.547 91.8367 844.872 90.4958C844.206 89.1473 843.872 87.5678 843.872 85.7572C843.872 83.9693 844.206 82.3935 844.872 81.0299C845.547 79.6662 846.486 78.6019 847.69 77.8367C848.903 77.0715 850.319 76.689 851.941 76.689C852.925 76.689 853.88 76.8519 854.804 77.1776C855.728 77.5034 856.558 78.0147 857.293 78.7117C858.028 79.4087 858.607 80.314 859.031 81.4276C859.456 82.5337 859.668 83.8784 859.668 85.4617L859.668 86.6662L845.793 86.6662L845.793 84.1208L856.338 84.1208C856.338 83.2269 856.156 82.4352 855.793 81.7458C855.429 81.0488 854.918 80.4996 854.259 80.0981C853.607 79.6965 852.842 79.4958 851.963 79.4958C851.009 79.4958 850.175 79.7306 849.463 80.2003C848.759 80.6625 848.213 81.2685 847.827 82.0185C847.448 82.7609 847.259 83.5678 847.259 84.439L847.259 86.4276C847.259 87.5943 847.463 88.5867 847.872 89.4049C848.289 90.2231 848.869 90.8481 849.611 91.2799C850.353 91.7041 851.221 91.9162 852.213 91.9162C852.857 91.9162 853.444 91.8253 853.975 91.6435C854.505 91.4541 854.963 91.1738 855.35 90.8026C855.736 90.4314 856.031 89.9731 856.236 89.4276L859.452 90.0072C859.194 90.9541 858.732 91.7837 858.066 92.4958C857.406 93.2003 856.577 93.7496 855.577 94.1435C854.584 94.5299 853.452 94.7231 852.179 94.7231ZM868.517 94.7572C867.411 94.7572 866.411 94.5526 865.517 94.1435C864.623 93.7269 863.915 93.1246 863.392 92.3367C862.877 91.5488 862.619 90.5829 862.619 89.439C862.619 88.4541 862.809 87.6435 863.188 87.0072C863.566 86.3708 864.078 85.867 864.722 85.4958C865.366 85.1246 866.085 84.8443 866.881 84.6549C867.676 84.4655 868.487 84.3215 869.313 84.2231C870.358 84.1019 871.207 84.0034 871.858 83.9276C872.51 83.8443 872.983 83.7117 873.279 83.5299C873.574 83.3481 873.722 83.0526 873.722 82.6435L873.722 82.564C873.722 81.5715 873.441 80.8026 872.881 80.2572C872.328 79.7117 871.502 79.439 870.404 79.439C869.26 79.439 868.358 79.6928 867.699 80.2003C867.048 80.7003 866.597 81.2572 866.347 81.8708L863.154 81.1435C863.532 80.0829 864.085 79.2269 864.813 78.5753C865.548 77.9162 866.392 77.439 867.347 77.1435C868.301 76.8405 869.305 76.689 870.358 76.689C871.055 76.689 871.794 76.7723 872.574 76.939C873.362 77.0981 874.097 77.3935 874.779 77.8253C875.468 78.2572 876.032 78.8746 876.472 79.6776C876.911 80.4731 877.131 81.5072 877.131 82.7799L877.131 94.3708L873.813 94.3708L873.813 91.9844L873.676 91.9844C873.457 92.4238 873.127 92.8556 872.688 93.2799C872.248 93.7041 871.684 94.0564 870.994 94.3367C870.305 94.617 869.479 94.7572 868.517 94.7572ZM869.256 92.0299C870.195 92.0299 870.998 91.8443 871.665 91.4731C872.339 91.1019 872.851 90.617 873.199 90.0185C873.555 89.4125 873.733 88.7647 873.733 88.0753L873.733 85.8253C873.612 85.9465 873.377 86.0602 873.029 86.1662C872.688 86.2647 872.298 86.3519 871.858 86.4276C871.419 86.4958 870.991 86.5602 870.574 86.6208C870.157 86.6738 869.809 86.7193 869.529 86.7572C868.869 86.8405 868.267 86.9806 867.722 87.1776C867.184 87.3746 866.752 87.6587 866.426 88.0299C866.108 88.3935 865.949 88.8784 865.949 89.4844C865.949 90.3253 866.26 90.9617 866.881 91.3935C867.502 91.8178 868.294 92.0299 869.256 92.0299ZM888.191 94.7117C886.781 94.7117 885.524 94.3519 884.418 93.6322C883.319 92.9049 882.456 91.8708 881.827 90.5299C881.206 89.1814 880.895 87.564 880.895 85.6776C880.895 83.7912 881.209 82.1776 881.838 80.8367C882.475 79.4958 883.346 78.4693 884.452 77.7572C885.558 77.045 886.812 76.689 888.213 76.689C889.297 76.689 890.168 76.8708 890.827 77.2344C891.494 77.5905 892.009 78.0072 892.372 78.4844C892.744 78.9617 893.031 79.3822 893.236 79.7458L893.441 79.7458L893.441 71.0981L896.838 71.0981L896.838 94.3708L893.52 94.3708L893.52 91.6549L893.236 91.6549C893.031 92.0261 892.736 92.4503 892.35 92.9276C891.971 93.4049 891.448 93.8215 890.781 94.1776C890.115 94.5337 889.251 94.7117 888.191 94.7117ZM888.941 91.814C889.918 91.814 890.744 91.5564 891.418 91.0412C892.1 90.5185 892.615 89.795 892.963 88.8708C893.319 87.9465 893.497 86.8708 893.497 85.6435C893.497 84.4314 893.323 83.3708 892.975 82.4617C892.626 81.5526 892.115 80.8443 891.441 80.3367C890.766 79.8291 889.933 79.5753 888.941 79.5753C887.918 79.5753 887.066 79.8405 886.384 80.3708C885.702 80.9011 885.187 81.6246 884.838 82.5412C884.497 83.4579 884.327 84.492 884.327 85.6435C884.327 86.8102 884.501 87.8594 884.85 88.7912C885.198 89.7231 885.713 90.4617 886.395 91.0072C887.084 91.545 887.933 91.814 888.941 91.814Z" fill="#3E00B3"/>
<rect x="1248.03" y="77.8708" width="10" height="10" rx="5" fill="#B33E00"/>
<path d="M1284.59 94.3708L1284.59 71.098L1292.88 71.098C1294.68 71.098 1296.18 71.4086 1297.37 72.0298C1298.57 72.6511 1299.46 73.5109 1300.05 74.6094C1300.64 75.7003 1300.94 76.9617 1300.94 78.3935C1300.94 79.8177 1300.64 81.0715 1300.04 82.1549C1299.45 83.2306 1298.56 84.0677 1297.36 84.6662C1296.17 85.2647 1294.67 85.5639 1292.87 85.5639L1286.59 85.5639L1286.59 82.5412L1292.55 82.5412C1293.69 82.5412 1294.61 82.3783 1295.32 82.0526C1296.04 81.7268 1296.57 81.2533 1296.9 80.6321C1297.24 80.0109 1297.4 79.2647 1297.4 78.3935C1297.4 77.5147 1297.23 76.7533 1296.89 76.1094C1296.56 75.4655 1296.03 74.973 1295.31 74.6321C1294.6 74.2836 1293.67 74.1094 1292.51 74.1094L1288.1 74.1094L1288.1 94.3708L1284.59 94.3708ZM1296.07 83.8708L1301.82 94.3708L1297.82 94.3708L1292.19 83.8708L1296.07 83.8708ZM1312.24 94.723C1310.52 94.723 1309.04 94.3556 1307.8 93.6208C1306.56 92.8783 1305.61 91.8367 1304.94 90.4958C1304.27 89.1473 1303.94 87.5677 1303.94 85.7571C1303.94 83.9692 1304.27 82.3935 1304.94 81.0299C1305.61 79.6662 1306.55 78.6018 1307.75 77.8367C1308.97 77.0715 1310.38 76.6889 1312 76.6889C1312.99 76.6889 1313.94 76.8518 1314.87 77.1776C1315.79 77.5033 1316.62 78.0147 1317.36 78.7117C1318.09 79.4086 1318.67 80.3139 1319.09 81.4276C1319.52 82.5336 1319.73 83.8783 1319.73 85.4617L1319.73 86.6662L1305.86 86.6662L1305.86 84.1208L1316.4 84.1208C1316.4 83.2268 1316.22 82.4352 1315.86 81.7458C1315.49 81.0488 1314.98 80.4995 1314.32 80.098C1313.67 79.6965 1312.91 79.4958 1312.03 79.4958C1311.07 79.4958 1310.24 79.7306 1309.53 80.2003C1308.82 80.6624 1308.28 81.2685 1307.89 82.0185C1307.51 82.7609 1307.32 83.5677 1307.32 84.4389L1307.32 86.4276C1307.32 87.5942 1307.53 88.5867 1307.94 89.4049C1308.35 90.223 1308.93 90.848 1309.67 91.2799C1310.42 91.7041 1311.28 91.9162 1312.28 91.9162C1312.92 91.9162 1313.51 91.8253 1314.04 91.6435C1314.57 91.4541 1315.03 91.1738 1315.41 90.8026C1315.8 90.4314 1316.09 89.973 1316.3 89.4276L1319.51 90.0071C1319.26 90.9541 1318.8 91.7836 1318.13 92.4958C1317.47 93.2003 1316.64 93.7495 1315.64 94.1435C1314.65 94.5299 1313.51 94.723 1312.24 94.723ZM1328.58 94.7571C1327.47 94.7571 1326.47 94.5526 1325.58 94.1435C1324.69 93.7268 1323.98 93.1245 1323.46 92.3367C1322.94 91.5488 1322.68 90.5829 1322.68 89.4389C1322.68 88.4541 1322.87 87.6435 1323.25 87.0071C1323.63 86.3708 1324.14 85.867 1324.78 85.4958C1325.43 85.1245 1326.15 84.8442 1326.94 84.6549C1327.74 84.4655 1328.55 84.3215 1329.38 84.223C1330.42 84.1018 1331.27 84.0033 1331.92 83.9276C1332.57 83.8442 1333.05 83.7117 1333.34 83.5299C1333.64 83.348 1333.78 83.0526 1333.78 82.6435L1333.78 82.5639C1333.78 81.5715 1333.5 80.8026 1332.94 80.2571C1332.39 79.7117 1331.57 79.4389 1330.47 79.4389C1329.32 79.4389 1328.42 79.6927 1327.76 80.2003C1327.11 80.7003 1326.66 81.2571 1326.41 81.8708L1323.22 81.1435C1323.6 80.0829 1324.15 79.2268 1324.88 78.5753C1325.61 77.9162 1326.46 77.4389 1327.41 77.1435C1328.36 76.8405 1329.37 76.6889 1330.42 76.6889C1331.12 76.6889 1331.86 76.7723 1332.64 76.9389C1333.42 77.098 1334.16 77.3935 1334.84 77.8253C1335.53 78.2571 1336.1 78.8745 1336.53 79.6776C1336.97 80.473 1337.19 81.5071 1337.19 82.7799L1337.19 94.3708L1333.88 94.3708L1333.88 91.9844L1333.74 91.9844C1333.52 92.4238 1333.19 92.8556 1332.75 93.2799C1332.31 93.7041 1331.75 94.0564 1331.06 94.3367C1330.37 94.617 1329.54 94.7571 1328.58 94.7571ZM1329.32 92.0299C1330.26 92.0299 1331.06 91.8442 1331.73 91.473C1332.4 91.1018 1332.91 90.617 1333.26 90.0185C1333.62 89.4124 1333.8 88.7647 1333.8 88.0753L1333.8 85.8253C1333.67 85.9465 1333.44 86.0602 1333.09 86.1662C1332.75 86.2647 1332.36 86.3518 1331.92 86.4276C1331.48 86.4958 1331.05 86.5602 1330.64 86.6208C1330.22 86.6738 1329.87 86.7192 1329.59 86.7571C1328.93 86.8405 1328.33 86.9806 1327.78 87.1776C1327.25 87.3745 1326.82 87.6586 1326.49 88.0299C1326.17 88.3935 1326.01 88.8783 1326.01 89.4844C1326.01 90.3253 1326.32 90.9617 1326.94 91.3935C1327.57 91.8177 1328.36 92.0299 1329.32 92.0299ZM1348.25 94.7117C1346.84 94.7117 1345.59 94.3518 1344.48 93.6321C1343.38 92.9049 1342.52 91.8708 1341.89 90.5299C1341.27 89.1814 1340.96 87.5639 1340.96 85.6776C1340.96 83.7912 1341.27 82.1776 1341.9 80.8367C1342.54 79.4958 1343.41 78.4692 1344.51 77.7571C1345.62 77.045 1346.87 76.6889 1348.28 76.6889C1349.36 76.6889 1350.23 76.8708 1350.89 77.2344C1351.56 77.5905 1352.07 78.0071 1352.44 78.4844C1352.81 78.9617 1353.09 79.3821 1353.3 79.7458L1353.5 79.7458L1353.5 71.098L1356.9 71.098L1356.9 94.3708L1353.58 94.3708L1353.58 91.6549L1353.3 91.6549C1353.09 92.0261 1352.8 92.4503 1352.41 92.9276C1352.03 93.4049 1351.51 93.8215 1350.84 94.1776C1350.18 94.5336 1349.31 94.7117 1348.25 94.7117ZM1349 91.8139C1349.98 91.8139 1350.81 91.5564 1351.48 91.0412C1352.16 90.5185 1352.68 89.795 1353.03 88.8708C1353.38 87.9465 1353.56 86.8708 1353.56 85.6435C1353.56 84.4314 1353.39 83.3708 1353.04 82.4617C1352.69 81.5526 1352.18 80.8442 1351.5 80.3367C1350.83 79.8291 1350 79.5753 1349 79.5753C1347.98 79.5753 1347.13 79.8405 1346.45 80.3708C1345.76 80.9011 1345.25 81.6245 1344.9 82.5412C1344.56 83.4579 1344.39 84.492 1344.39 85.6435C1344.39 86.8102 1344.56 87.8594 1344.91 88.7912C1345.26 89.723 1345.78 90.4617 1346.46 91.0071C1347.15 91.545 1348 91.8139 1349 91.8139Z" fill="#3E00B3"/>
<rect x="297.029" y="77.8708" width="10" height="10" rx="5" fill="#B33E00"/>
<path d="M333.585 94.3708L333.585 71.0981L341.881 71.0981C343.684 71.0981 345.18 71.4087 346.369 72.0299C347.566 72.6511 348.46 73.5109 349.051 74.6094C349.642 75.7003 349.938 76.9617 349.938 78.3935C349.938 79.8178 349.638 81.0715 349.04 82.1549C348.449 83.2306 347.555 84.0678 346.358 84.6662C345.169 85.2647 343.673 85.564 341.869 85.564L335.585 85.564L335.585 82.5412L341.551 82.5412C342.688 82.5412 343.612 82.3784 344.324 82.0526C345.044 81.7269 345.57 81.2534 345.904 80.6322C346.237 80.0109 346.404 79.2647 346.404 78.3935C346.404 77.5147 346.233 76.7534 345.892 76.1094C345.559 75.4655 345.032 74.9731 344.313 74.6322C343.601 74.2837 342.665 74.1094 341.506 74.1094L337.097 74.1094L337.097 94.3708L333.585 94.3708ZM345.074 83.8708L350.824 94.3708L346.824 94.3708L341.188 83.8708L345.074 83.8708ZM361.242 94.7231C359.522 94.7231 358.041 94.3556 356.798 93.6208C355.564 92.8784 354.609 91.8367 353.935 90.4958C353.268 89.1473 352.935 87.5678 352.935 85.7572C352.935 83.9693 353.268 82.3935 353.935 81.0299C354.609 79.6662 355.548 78.6019 356.753 77.8367C357.965 77.0715 359.382 76.689 361.003 76.689C361.988 76.689 362.942 76.8519 363.867 77.1776C364.791 77.5034 365.62 78.0147 366.355 78.7117C367.09 79.4087 367.67 80.314 368.094 81.4276C368.518 82.5337 368.73 83.8784 368.73 85.4617L368.73 86.6662L354.855 86.6662L354.855 84.1208L365.401 84.1208C365.401 83.2269 365.219 82.4352 364.855 81.7458C364.492 81.0488 363.98 80.4996 363.321 80.0981C362.67 79.6965 361.905 79.4958 361.026 79.4958C360.071 79.4958 359.238 79.7306 358.526 80.2003C357.821 80.6625 357.276 81.2685 356.889 82.0185C356.511 82.7609 356.321 83.5678 356.321 84.439L356.321 86.4276C356.321 87.5943 356.526 88.5867 356.935 89.4049C357.351 90.2231 357.931 90.8481 358.673 91.2799C359.416 91.7041 360.283 91.9162 361.276 91.9162C361.92 91.9162 362.507 91.8253 363.037 91.6435C363.567 91.4541 364.026 91.1738 364.412 90.8026C364.798 90.4314 365.094 89.9731 365.298 89.4276L368.514 90.0072C368.257 90.9541 367.795 91.7837 367.128 92.4958C366.469 93.2003 365.639 93.7496 364.639 94.1435C363.647 94.5299 362.514 94.7231 361.242 94.7231ZM377.58 94.7572C376.474 94.7572 375.474 94.5526 374.58 94.1435C373.686 93.7269 372.977 93.1246 372.455 92.3367C371.94 91.5488 371.682 90.5829 371.682 89.439C371.682 88.4541 371.871 87.6435 372.25 87.0072C372.629 86.3708 373.14 85.867 373.784 85.4958C374.428 85.1246 375.148 84.8443 375.943 84.6549C376.739 84.4655 377.549 84.3215 378.375 84.2231C379.421 84.1019 380.269 84.0034 380.921 83.9276C381.572 83.8443 382.046 83.7117 382.341 83.5299C382.637 83.3481 382.784 83.0526 382.784 82.6435L382.784 82.564C382.784 81.5715 382.504 80.8026 381.943 80.2572C381.39 79.7117 380.565 79.439 379.466 79.439C378.322 79.439 377.421 79.6928 376.762 80.2003C376.11 80.7003 375.659 81.2572 375.409 81.8708L372.216 81.1435C372.595 80.0829 373.148 79.2269 373.875 78.5753C374.61 77.9162 375.455 77.439 376.409 77.1435C377.364 76.8405 378.368 76.689 379.421 76.689C380.118 76.689 380.856 76.7723 381.637 76.939C382.424 77.0981 383.159 77.3935 383.841 77.8253C384.53 78.2572 385.095 78.8746 385.534 79.6776C385.974 80.4731 386.193 81.5072 386.193 82.7799L386.193 94.3708L382.875 94.3708L382.875 91.9844L382.739 91.9844C382.519 92.4238 382.19 92.8556 381.75 93.2799C381.311 93.7041 380.746 94.0564 380.057 94.3367C379.368 94.617 378.542 94.7572 377.58 94.7572ZM378.318 92.0299C379.258 92.0299 380.061 91.8443 380.727 91.4731C381.402 91.1019 381.913 90.617 382.262 90.0185C382.618 89.4125 382.796 88.7647 382.796 88.0753L382.796 85.8253C382.674 85.9465 382.44 86.0602 382.091 86.1662C381.75 86.2647 381.36 86.3519 380.921 86.4276C380.481 86.4958 380.053 86.5602 379.637 86.6208C379.22 86.6738 378.871 86.7193 378.591 86.7572C377.932 86.8405 377.33 86.9806 376.784 87.1776C376.246 87.3746 375.815 87.6587 375.489 88.0299C375.171 88.3935 375.012 88.8784 375.012 89.4844C375.012 90.3253 375.322 90.9617 375.943 91.3935C376.565 91.8178 377.356 92.0299 378.318 92.0299ZM397.253 94.7117C395.844 94.7117 394.586 94.3519 393.48 93.6322C392.382 92.9049 391.518 91.8708 390.889 90.5299C390.268 89.1814 389.958 87.564 389.958 85.6776C389.958 83.7912 390.272 82.1776 390.901 80.8367C391.537 79.4958 392.408 78.4693 393.514 77.7572C394.62 77.045 395.874 76.689 397.276 76.689C398.359 76.689 399.23 76.8708 399.889 77.2344C400.556 77.5905 401.071 78.0072 401.435 78.4844C401.806 78.9617 402.094 79.3822 402.298 79.7458L402.503 79.7458L402.503 71.0981L405.901 71.0981L405.901 94.3708L402.583 94.3708L402.583 91.6549L402.298 91.6549C402.094 92.0261 401.798 92.4503 401.412 92.9276C401.033 93.4049 400.511 93.8215 399.844 94.1776C399.177 94.5337 398.314 94.7117 397.253 94.7117ZM398.003 91.814C398.98 91.814 399.806 91.5564 400.48 91.0412C401.162 90.5185 401.677 89.795 402.026 88.8708C402.382 87.9465 402.56 86.8708 402.56 85.6435C402.56 84.4314 402.386 83.3708 402.037 82.4617C401.689 81.5526 401.177 80.8443 400.503 80.3367C399.829 79.8291 398.995 79.5753 398.003 79.5753C396.98 79.5753 396.128 79.8405 395.446 80.3708C394.764 80.9011 394.249 81.6246 393.901 82.5412C393.56 83.4579 393.389 84.492 393.389 85.6435C393.389 86.8102 393.564 87.8594 393.912 88.7912C394.261 89.7231 394.776 90.4617 395.458 91.0072C396.147 91.545 396.995 91.814 398.003 91.814Z" fill="#3E00B3"/>
<rect x="481.988" y="77.8707" width="10" height="10" rx="5" fill="#B33E00"/>
<path d="M518.545 94.3707L518.545 71.098L526.84 71.098C528.651 71.098 530.151 71.4275 531.34 72.0866C532.529 72.7457 533.42 73.6472 534.011 74.7912C534.601 75.9275 534.897 77.2078 534.897 78.6321C534.897 80.0639 534.598 81.3518 533.999 82.4957C533.408 83.6321 532.514 84.5336 531.317 85.2002C530.128 85.8593 528.632 86.1889 526.829 86.1889L521.124 86.1889L521.124 83.2116L526.511 83.2116C527.654 83.2116 528.582 83.0146 529.295 82.6207C530.007 82.2192 530.529 81.6737 530.863 80.9843C531.196 80.2949 531.363 79.5108 531.363 78.6321C531.363 77.7533 531.196 76.973 530.863 76.2912C530.529 75.6093 530.003 75.0752 529.283 74.6889C528.571 74.3025 527.632 74.1093 526.465 74.1093L522.056 74.1093L522.056 94.3707L518.545 94.3707ZM542.138 71.098L542.138 94.3707L538.741 94.3707L538.741 71.098L542.138 71.098ZM551.789 94.7571C550.683 94.7571 549.683 94.5525 548.789 94.1434C547.895 93.7268 547.187 93.1245 546.664 92.3366C546.149 91.5487 545.891 90.5828 545.891 89.4389C545.891 88.454 546.081 87.6434 546.459 87.0071C546.838 86.3707 547.35 85.8669 547.993 85.4957C548.637 85.1245 549.357 84.8442 550.153 84.6548C550.948 84.4654 551.759 84.3215 552.584 84.223C553.63 84.1018 554.478 84.0033 555.13 83.9275C555.781 83.8442 556.255 83.7116 556.55 83.5298C556.846 83.348 556.993 83.0525 556.993 82.6434L556.993 82.5639C556.993 81.5715 556.713 80.8025 556.153 80.2571C555.6 79.7116 554.774 79.4389 553.675 79.4389C552.531 79.4389 551.63 79.6927 550.971 80.2002C550.319 80.7002 549.868 81.2571 549.618 81.8707L546.425 81.1434C546.804 80.0828 547.357 79.2268 548.084 78.5752C548.819 77.9162 549.664 77.4389 550.618 77.1434C551.573 76.8404 552.577 76.6889 553.63 76.6889C554.327 76.6889 555.065 76.7722 555.846 76.9389C556.634 77.098 557.368 77.3934 558.05 77.8252C558.74 78.2571 559.304 78.8745 559.743 79.6775C560.183 80.473 560.403 81.5071 560.403 82.7798L560.403 94.3707L557.084 94.3707L557.084 91.9843L556.948 91.9843C556.728 92.4237 556.399 92.8555 555.959 93.2798C555.52 93.704 554.956 94.0563 554.266 94.3366C553.577 94.6169 552.751 94.7571 551.789 94.7571ZM552.528 92.0298C553.467 92.0298 554.27 91.8442 554.937 91.473C555.611 91.1018 556.122 90.6169 556.471 90.0184C556.827 89.4124 557.005 88.7646 557.005 88.0752L557.005 85.8252C556.884 85.9465 556.649 86.0601 556.3 86.1662C555.959 86.2646 555.569 86.3518 555.13 86.4275C554.69 86.4957 554.262 86.5601 553.846 86.6207C553.429 86.6737 553.081 86.7192 552.8 86.7571C552.141 86.8404 551.539 86.9805 550.993 87.1775C550.456 87.3745 550.024 87.6586 549.698 88.0298C549.38 88.3934 549.221 88.8783 549.221 89.4843C549.221 90.3252 549.531 90.9616 550.153 91.3934C550.774 91.8177 551.565 92.0298 552.528 92.0298ZM566.451 100.916C565.943 100.916 565.481 100.874 565.065 100.791C564.648 100.715 564.337 100.632 564.133 100.541L564.951 97.7571C565.572 97.9237 566.125 97.9957 566.61 97.973C567.095 97.9502 567.523 97.7684 567.894 97.4275C568.273 97.0866 568.606 96.5298 568.894 95.7571L569.315 94.598L562.928 76.9162L566.565 76.9162L570.985 90.4616L571.167 90.4616L575.587 76.9162L579.235 76.9162L572.042 96.7002C571.708 97.6093 571.284 98.3783 570.769 99.0071C570.254 99.6434 569.64 100.121 568.928 100.439C568.216 100.757 567.39 100.916 566.451 100.916Z" fill="#B33E00"/>
<rect x="932.029" y="77.8708" width="10" height="10" rx="5" fill="#B33E00"/>
<path d="M968.585 94.3708L968.585 71.0981L976.881 71.0981C978.691 71.0981 980.191 71.4276 981.381 72.0867C982.57 72.7458 983.46 73.6473 984.051 74.7912C984.642 75.9276 984.938 77.2079 984.938 78.6322C984.938 80.064 984.638 81.3519 984.04 82.4958C983.449 83.6322 982.555 84.5337 981.358 85.2003C980.169 85.8594 978.673 86.189 976.869 86.189L971.165 86.189L971.165 83.2117L976.551 83.2117C977.695 83.2117 978.623 83.0147 979.335 82.6208C980.048 82.2193 980.57 81.6738 980.904 80.9844C981.237 80.295 981.404 79.5109 981.404 78.6322C981.404 77.7534 981.237 76.9731 980.904 76.2912C980.57 75.6094 980.044 75.0753 979.324 74.689C978.612 74.3026 977.673 74.1094 976.506 74.1094L972.097 74.1094L972.097 94.3708L968.585 94.3708ZM992.179 71.0981L992.179 94.3708L988.781 94.3708L988.781 71.0981L992.179 71.0981ZM1001.83 94.7572C1000.72 94.7572 999.724 94.5526 998.83 94.1435C997.936 93.7269 997.227 93.1246 996.705 92.3367C996.19 91.5488 995.932 90.5829 995.932 89.439C995.932 88.4541 996.121 87.6435 996.5 87.0072C996.879 86.3708 997.39 85.867 998.034 85.4958C998.678 85.1246 999.398 84.8443 1000.19 84.6549C1000.99 84.4655 1001.8 84.3215 1002.63 84.2231C1003.67 84.1019 1004.52 84.0034 1005.17 83.9276C1005.82 83.8443 1006.3 83.7117 1006.59 83.5299C1006.89 83.3481 1007.03 83.0526 1007.03 82.6435L1007.03 82.564C1007.03 81.5715 1006.75 80.8026 1006.19 80.2572C1005.64 79.7117 1004.81 79.439 1003.72 79.439C1002.57 79.439 1001.67 79.6928 1001.01 80.2003C1000.36 80.7003 999.909 81.2572 999.659 81.8708L996.466 81.1435C996.845 80.0829 997.398 79.2269 998.125 78.5753C998.86 77.9162 999.705 77.439 1000.66 77.1435C1001.61 76.8405 1002.62 76.689 1003.67 76.689C1004.37 76.689 1005.11 76.7723 1005.89 76.939C1006.67 77.0981 1007.41 77.3935 1008.09 77.8253C1008.78 78.2572 1009.34 78.8746 1009.78 79.6776C1010.22 80.4731 1010.44 81.5072 1010.44 82.7799L1010.44 94.3708L1007.13 94.3708L1007.13 91.9844L1006.99 91.9844C1006.77 92.4238 1006.44 92.8556 1006 93.2799C1005.56 93.7041 1005 94.0564 1004.31 94.3367C1003.62 94.617 1002.79 94.7572 1001.83 94.7572ZM1002.57 92.0299C1003.51 92.0299 1004.31 91.8443 1004.98 91.4731C1005.65 91.1019 1006.16 90.617 1006.51 90.0185C1006.87 89.4125 1007.05 88.7647 1007.05 88.0753L1007.05 85.8253C1006.92 85.9465 1006.69 86.0602 1006.34 86.1662C1006 86.2647 1005.61 86.3519 1005.17 86.4276C1004.73 86.4958 1004.3 86.5602 1003.89 86.6208C1003.47 86.6738 1003.12 86.7193 1002.84 86.7572C1002.18 86.8405 1001.58 86.9806 1001.03 87.1776C1000.5 87.3746 1000.06 87.6587 999.739 88.0299C999.421 88.3935 999.262 88.8784 999.262 89.4844C999.262 90.3253 999.572 90.9617 1000.19 91.3935C1000.81 91.8178 1001.61 92.0299 1002.57 92.0299ZM1016.49 100.916C1015.98 100.916 1015.52 100.875 1015.11 100.791C1014.69 100.715 1014.38 100.632 1014.17 100.541L1014.99 97.7572C1015.61 97.9238 1016.17 97.9958 1016.65 97.9731C1017.14 97.9503 1017.56 97.7685 1017.93 97.4276C1018.31 97.0867 1018.65 96.5299 1018.93 95.7572L1019.36 94.5981L1012.97 76.9162L1016.61 76.9162L1021.03 90.4617L1021.21 90.4617L1025.63 76.9162L1029.28 76.9162L1022.08 96.7003C1021.75 97.6094 1021.32 98.3784 1020.81 99.0072C1020.29 99.6435 1019.68 100.121 1018.97 100.439C1018.26 100.757 1017.43 100.916 1016.49 100.916Z" fill="#B33E00"/>
<rect x="163.008" y="77.8707" width="10" height="10" rx="5" fill="#B33E00"/>
<path d="M212.258 77.2116C212.137 76.1358 211.637 75.3025 210.758 74.7116C209.88 74.1131 208.773 73.8138 207.44 73.8138C206.486 73.8138 205.66 73.9654 204.963 74.2684C204.266 74.5638 203.724 74.9729 203.338 75.4957C202.959 76.0108 202.77 76.5979 202.77 77.257C202.77 77.8101 202.898 78.2873 203.156 78.6888C203.421 79.0904 203.766 79.4275 204.19 79.7002C204.622 79.9654 205.084 80.1888 205.576 80.3707C206.069 80.5449 206.542 80.6888 206.997 80.8025L209.27 81.3934C210.012 81.5752 210.773 81.8214 211.554 82.132C212.334 82.4426 213.058 82.8517 213.724 83.3593C214.391 83.8669 214.929 84.4957 215.338 85.2457C215.755 85.9957 215.963 86.8934 215.963 87.9389C215.963 89.257 215.622 90.4275 214.94 91.4502C214.266 92.4729 213.285 93.2798 211.997 93.8707C210.717 94.4616 209.167 94.757 207.349 94.757C205.607 94.757 204.099 94.4805 202.826 93.9275C201.554 93.3745 200.558 92.5904 199.838 91.5752C199.118 90.5525 198.72 89.3404 198.645 87.9389L202.167 87.9389C202.236 88.7798 202.508 89.4805 202.986 90.0411C203.47 90.5942 204.088 91.007 204.838 91.2798C205.595 91.5449 206.425 91.6775 207.326 91.6775C208.319 91.6775 209.201 91.5222 209.974 91.2116C210.755 90.8934 211.368 90.454 211.815 89.8934C212.262 89.3252 212.486 88.6623 212.486 87.9048C212.486 87.2154 212.289 86.651 211.895 86.2116C211.508 85.7722 210.982 85.4085 210.315 85.1207C209.656 84.8328 208.91 84.579 208.076 84.3593L205.326 83.6093C203.463 83.1017 201.986 82.3555 200.895 81.3707C199.811 80.3858 199.27 79.0828 199.27 77.4616C199.27 76.1207 199.633 74.9502 200.361 73.9502C201.088 72.9502 202.073 72.1737 203.315 71.6207C204.558 71.0601 205.959 70.7798 207.52 70.7798C209.095 70.7798 210.486 71.0563 211.69 71.6093C212.902 72.1623 213.857 72.9237 214.554 73.8934C215.251 74.8555 215.614 75.9616 215.645 77.2116L212.258 77.2116ZM219.886 94.3707L219.886 76.9161L223.284 76.9161L223.284 94.3707L219.886 94.3707ZM221.602 74.2229C221.011 74.2229 220.504 74.026 220.079 73.632C219.663 73.2305 219.454 72.7532 219.454 72.2002C219.454 71.6396 219.663 71.1623 220.079 70.7684C220.504 70.3669 221.011 70.1661 221.602 70.1661C222.193 70.1661 222.697 70.3669 223.113 70.7684C223.538 71.1623 223.75 71.6396 223.75 72.2002C223.75 72.7532 223.538 73.2305 223.113 73.632C222.697 74.026 222.193 74.2229 221.602 74.2229ZM231.253 84.007L231.253 94.3707L227.855 94.3707L227.855 76.9161L231.116 76.9161L231.116 79.757L231.332 79.757C231.734 78.8328 232.362 78.0904 233.219 77.5298C234.082 76.9692 235.169 76.6889 236.48 76.6889C237.669 76.6889 238.711 76.9389 239.605 77.4389C240.499 77.9313 241.192 78.6661 241.684 79.6434C242.177 80.6207 242.423 81.829 242.423 83.2684L242.423 94.3707L239.025 94.3707L239.025 83.6775C239.025 82.4123 238.696 81.4237 238.037 80.7116C237.378 79.9919 236.472 79.632 235.321 79.632C234.533 79.632 233.832 79.8025 233.219 80.1434C232.612 80.4843 232.131 80.9843 231.775 81.6434C231.427 82.2949 231.253 83.0828 231.253 84.007ZM254.298 101.28C252.912 101.28 251.719 101.098 250.719 100.734C249.726 100.371 248.916 99.8896 248.287 99.2911C247.658 98.6926 247.188 98.0373 246.878 97.3252L249.798 96.1207C250.003 96.454 250.275 96.8063 250.616 97.1775C250.965 97.5563 251.434 97.8782 252.025 98.1434C252.624 98.4085 253.393 98.5411 254.332 98.5411C255.62 98.5411 256.684 98.2267 257.525 97.5979C258.366 96.9767 258.787 95.9843 258.787 94.6207L258.787 91.1889L258.571 91.1889C258.366 91.5601 258.071 91.9729 257.684 92.4275C257.306 92.882 256.783 93.276 256.116 93.6093C255.45 93.9426 254.582 94.1093 253.514 94.1093C252.135 94.1093 250.893 93.7873 249.787 93.1434C248.688 92.4919 247.817 91.5335 247.173 90.2684C246.537 88.9957 246.219 87.4313 246.219 85.5752C246.219 83.7192 246.533 82.1282 247.162 80.8025C247.798 79.4767 248.669 78.4616 249.775 77.757C250.881 77.0449 252.135 76.6889 253.537 76.6889C254.62 76.6889 255.495 76.8707 256.162 77.2343C256.828 77.5904 257.347 78.007 257.719 78.4843C258.097 78.9616 258.389 79.382 258.594 79.7457L258.844 79.7457L258.844 76.9161L262.173 76.9161L262.173 94.757C262.173 96.257 261.825 97.4881 261.128 98.4502C260.431 99.4123 259.487 100.124 258.298 100.587C257.116 101.049 255.783 101.28 254.298 101.28ZM254.264 91.2911C255.241 91.2911 256.067 91.0639 256.741 90.6093C257.423 90.1472 257.938 89.4881 258.287 88.632C258.643 87.7684 258.821 86.7343 258.821 85.5298C258.821 84.3555 258.647 83.3214 258.298 82.4275C257.95 81.5335 257.438 80.8366 256.764 80.3366C256.09 79.829 255.256 79.5752 254.264 79.5752C253.241 79.5752 252.389 79.8404 251.707 80.3707C251.025 80.8934 250.51 81.6055 250.162 82.507C249.821 83.4085 249.65 84.4161 249.65 85.5298C249.65 86.6737 249.825 87.6775 250.173 88.5411C250.522 89.4048 251.037 90.079 251.719 90.5639C252.408 91.0487 253.256 91.2911 254.264 91.2911Z" fill="#B3001A"/>
<rect x="-0.971436" y="77.8708" width="10" height="10" rx="5" fill="#B33E00"/>
<path d="M43.1195 94.3708L35.5854 94.3708L35.5854 71.0981L43.3581 71.0981C45.6384 71.0981 47.5967 71.564 49.2331 72.4958C50.8695 73.42 52.1233 74.7496 52.9945 76.4844C53.8733 78.2117 54.3127 80.2837 54.3127 82.7003C54.3127 85.1246 53.8695 87.2079 52.9831 88.9503C52.1043 90.6928 50.8316 92.0337 49.1649 92.9731C47.4983 93.9049 45.4831 94.3708 43.1195 94.3708ZM39.0967 91.3026L42.9263 91.3026C44.699 91.3026 46.1725 90.9693 47.3467 90.3026C48.521 89.6284 49.3998 88.6549 49.9831 87.3822C50.5664 86.1019 50.8581 84.5412 50.8581 82.7003C50.8581 80.8746 50.5664 79.3253 49.9831 78.0526C49.4074 76.7799 48.5475 75.814 47.4036 75.1549C46.2596 74.4958 44.8392 74.1662 43.1422 74.1662L39.0967 74.1662L39.0967 91.3026ZM63.486 94.7572C62.3799 94.7572 61.3799 94.5526 60.486 94.1435C59.592 93.7269 58.8837 93.1246 58.361 92.3367C57.8458 91.5488 57.5882 90.5829 57.5882 89.439C57.5882 88.4541 57.7776 87.6435 58.1564 87.0072C58.5352 86.3708 59.0466 85.867 59.6905 85.4958C60.3344 85.1246 61.0541 84.8443 61.8496 84.6549C62.645 84.4655 63.4557 84.3215 64.2814 84.2231C65.3269 84.1019 66.1753 84.0034 66.8269 83.9276C67.4784 83.8443 67.9519 83.7117 68.2473 83.5299C68.5428 83.3481 68.6905 83.0526 68.6905 82.6435L68.6905 82.564C68.6905 81.5715 68.4102 80.8026 67.8496 80.2572C67.2966 79.7117 66.4708 79.439 65.3723 79.439C64.2284 79.439 63.3269 79.6928 62.6678 80.2003C62.0163 80.7003 61.5655 81.2572 61.3155 81.8708L58.1223 81.1435C58.5011 80.0829 59.0541 79.2269 59.7814 78.5753C60.5163 77.9162 61.361 77.439 62.3155 77.1435C63.27 76.8405 64.2738 76.689 65.3269 76.689C66.0238 76.689 66.7625 76.7723 67.5428 76.939C68.3307 77.0981 69.0655 77.3935 69.7473 77.8253C70.4367 78.2572 71.0011 78.8746 71.4405 79.6776C71.8799 80.4731 72.0996 81.5072 72.0996 82.7799L72.0996 94.3708L68.7814 94.3708L68.7814 91.9844L68.645 91.9844C68.4253 92.4238 68.0958 92.8556 67.6564 93.2799C67.217 93.7041 66.6526 94.0564 65.9632 94.3367C65.2738 94.617 64.4481 94.7572 63.486 94.7572ZM64.2246 92.0299C65.164 92.0299 65.967 91.8443 66.6337 91.4731C67.3079 91.1019 67.8193 90.617 68.1678 90.0185C68.5238 89.4125 68.7019 88.7647 68.7019 88.0753L68.7019 85.8253C68.5807 85.9465 68.3458 86.0602 67.9973 86.1662C67.6564 86.2647 67.2663 86.3519 66.8269 86.4276C66.3875 86.4958 65.9594 86.5602 65.5428 86.6208C65.1261 86.6738 64.7776 86.7193 64.4973 86.7572C63.8382 86.8405 63.236 86.9806 62.6905 87.1776C62.1526 87.3746 61.7208 87.6587 61.395 88.0299C61.0769 88.3935 60.9178 88.8784 60.9178 89.4844C60.9178 90.3253 61.2284 90.9617 61.8496 91.3935C62.4708 91.8178 63.2625 92.0299 64.2246 92.0299ZM80.0229 84.0072L80.0229 94.3708L76.6252 94.3708L76.6252 76.9162L79.8865 76.9162L79.8865 79.7572L80.1024 79.7572C80.5039 78.8329 81.1327 78.0905 81.9888 77.5299C82.8524 76.9693 83.9396 76.689 85.2502 76.689C86.4396 76.689 87.4812 76.939 88.3752 77.439C89.2691 77.9314 89.9623 78.6662 90.4547 79.6435C90.9471 80.6208 91.1933 81.8291 91.1933 83.2685L91.1933 94.3708L87.7956 94.3708L87.7956 83.6776C87.7956 82.4125 87.4661 81.4238 86.807 80.7117C86.1479 79.992 85.2426 79.6322 84.0911 79.6322C83.3032 79.6322 82.6024 79.8026 81.9888 80.1435C81.3827 80.4844 80.9017 80.9844 80.5456 81.6435C80.1971 82.295 80.0229 83.0829 80.0229 84.0072ZM103.102 94.7231C101.413 94.7231 99.9585 94.3405 98.7388 93.5753C97.5267 92.8026 96.5949 91.7382 95.9433 90.3822C95.2918 89.0261 94.9661 87.4731 94.9661 85.7231C94.9661 83.9503 95.2994 82.3859 95.9661 81.0299C96.6327 79.6662 97.5721 78.6019 98.7843 77.8367C99.9964 77.0715 101.424 76.689 103.068 76.689C104.394 76.689 105.576 76.9352 106.614 77.4276C107.652 77.9125 108.489 78.5943 109.125 79.4731C109.769 80.3519 110.152 81.3784 110.273 82.5526L106.966 82.5526C106.784 81.7344 106.368 81.0299 105.716 80.439C105.072 79.8481 104.208 79.5526 103.125 79.5526C102.178 79.5526 101.349 79.8026 100.637 80.3026C99.932 80.795 99.3827 81.4996 98.9888 82.4162C98.5949 83.3253 98.3979 84.4011 98.3979 85.6435C98.3979 86.9162 98.5911 88.0147 98.9774 88.939C99.3638 89.8632 99.9093 90.5791 100.614 91.0867C101.326 91.5943 102.163 91.8481 103.125 91.8481C103.769 91.8481 104.352 91.7306 104.875 91.4958C105.405 91.2534 105.849 90.9087 106.205 90.4617C106.568 90.0147 106.822 89.4769 106.966 88.8481L110.273 88.8481C110.152 89.9769 109.784 90.9844 109.171 91.8708C108.557 92.7572 107.735 93.4541 106.705 93.9617C105.682 94.4693 104.481 94.7231 103.102 94.7231ZM121.429 94.7231C119.709 94.7231 118.228 94.3556 116.986 93.6208C115.751 92.8784 114.797 91.8367 114.122 90.4958C113.456 89.1473 113.122 87.5678 113.122 85.7572C113.122 83.9693 113.456 82.3935 114.122 81.0299C114.797 79.6662 115.736 78.6019 116.941 77.8367C118.153 77.0715 119.569 76.689 121.191 76.689C122.175 76.689 123.13 76.8519 124.054 77.1776C124.978 77.5034 125.808 78.0147 126.543 78.7117C127.278 79.4087 127.857 80.314 128.281 81.4276C128.706 82.5337 128.918 83.8784 128.918 85.4617L128.918 86.6662L115.043 86.6662L115.043 84.1208L125.588 84.1208C125.588 83.2269 125.406 82.4352 125.043 81.7458C124.679 81.0488 124.168 80.4996 123.509 80.0981C122.857 79.6965 122.092 79.4958 121.213 79.4958C120.259 79.4958 119.425 79.7306 118.713 80.2003C118.009 80.6625 117.463 81.2685 117.077 82.0185C116.698 82.7609 116.509 83.5678 116.509 84.439L116.509 86.4276C116.509 87.5943 116.713 88.5867 117.122 89.4049C117.539 90.2231 118.119 90.8481 118.861 91.2799C119.603 91.7041 120.471 91.9162 121.463 91.9162C122.107 91.9162 122.694 91.8253 123.225 91.6435C123.755 91.4541 124.213 91.1738 124.6 90.8026C124.986 90.4314 125.281 89.9731 125.486 89.4276L128.702 90.0072C128.444 90.9541 127.982 91.7837 127.316 92.4958C126.656 93.2003 125.827 93.7496 124.827 94.1435C123.834 94.5299 122.702 94.7231 121.429 94.7231Z" fill="#B3001A"/>
</g>
<path d="M67.4466 41.4324C56.1055 31.2279 16.7963 3.09823 13.4522 2.87831C5.99815 6.6222 -20.7545 26.5448 -35.5764 42.237C-38.2661 45.0883 -32.2826 50.3717 -26.6948 46.5346C-15.7312 38.9951 6.64179 18.8552 13.3192 13.4994C29.8059 24.9924 40.8414 32.462 56.5981 45.5851C62.7326 50.6925 74.4153 47.7015 67.4466 41.4324C70.5822 44.2474 54.2896 29.5953 67.4466 41.4324Z" fill="#E8B467"/>
<path d="M4.64626 38.7184C-3.13144 38.7184 -3.13144 47.3912 4.64626 47.3912C12.424 47.3912 12.424 38.7184 4.64626 38.7184Z" fill="#E8B467"/>
<path d="M13.3006 27.5113C5.52286 27.5113 5.52286 36.1866 13.3006 36.1866C21.0711 36.1841 21.0711 27.5113 13.3006 27.5113Z" fill="#E8B467"/>
<path d="M22.5095 38.7184C14.7318 38.7184 14.7318 47.3912 22.5095 47.3912C30.28 47.3912 30.28 38.7184 22.5095 38.7184Z" fill="#E8B467"/>
<path d="M162.034 41.4325C150.697 31.228 111.388 3.09835 108.044 2.87843C100.586 6.62232 73.8332 26.5449 59.0078 42.2372C56.3217 45.0884 62.3051 50.3718 67.8858 46.5347C78.8601 38.9952 101.226 18.8553 107.9 13.4995C124.386 24.9925 135.426 32.4622 151.182 45.5852C157.317 50.6926 169.003 47.7016 162.034 41.4325C165.163 44.2475 148.877 29.5954 162.034 41.4325Z" fill="#E8B467"/>
<path d="M99.2309 38.7186C91.464 38.7186 91.464 47.3914 99.2309 47.3914C107.012 47.3914 107.012 38.7186 99.2309 38.7186Z" fill="#E8B467"/>
<path d="M107.886 27.5114C100.111 27.5114 100.111 36.1868 107.886 36.1868C115.66 36.1842 115.66 27.5114 107.886 27.5114Z" fill="#E8B467"/>
<path d="M117.098 38.7186C109.317 38.7186 109.317 47.3914 117.098 47.3914C124.872 47.3914 124.872 38.7186 117.098 38.7186Z" fill="#E8B467"/>
<path d="M256.621 41.4324C245.28 31.2279 205.971 3.09823 202.631 2.87831C195.173 6.6222 168.417 26.5448 153.602 42.237C150.909 45.0883 156.892 50.3717 162.469 46.5346C173.443 38.9951 195.813 18.8552 202.483 13.4994C218.97 24.9924 230.009 32.462 245.766 45.5851C251.904 50.6925 263.583 47.7015 256.621 41.4324C259.753 44.2474 243.464 29.5953 256.621 41.4324Z" fill="#E8B467"/>
<path d="M193.824 38.7184C186.05 38.7184 186.05 47.3912 193.824 47.3912C201.591 47.3912 201.591 38.7184 193.824 38.7184Z" fill="#E8B467"/>
<path d="M202.472 27.5113C194.698 27.5113 194.698 36.1866 202.472 36.1866C210.246 36.1841 210.246 27.5113 202.472 27.5113Z" fill="#E8B467"/>
<path d="M211.686 38.7184C203.911 38.7184 203.911 47.3912 211.686 47.3912C219.46 47.3912 219.46 38.7184 211.686 38.7184Z" fill="#E8B467"/>
<path d="M351.212 41.4325C339.867 31.228 300.558 3.09835 297.214 2.87843C289.76 6.62232 263.007 26.5449 248.189 42.2372C245.496 45.0884 251.479 50.3718 257.063 46.5347C268.03 38.9952 290.403 18.8553 297.077 13.4995C313.564 24.9925 324.599 32.4622 340.36 45.5852C346.491 50.6926 358.177 47.7016 351.212 41.4325C354.34 44.2475 338.051 29.5954 351.212 41.4325Z" fill="#E8B467"/>
<path d="M288.407 38.7186C280.633 38.7186 280.633 47.3914 288.407 47.3914C296.181 47.3914 296.181 38.7186 288.407 38.7186Z" fill="#E8B467"/>
<path d="M297.059 27.5114C289.285 27.5114 289.285 36.1868 297.059 36.1868C304.836 36.1842 304.836 27.5114 297.059 27.5114Z" fill="#E8B467"/>
<path d="M306.271 38.7186C298.494 38.7186 298.494 47.3914 306.271 47.3914C314.045 47.3914 314.045 38.7186 306.271 38.7186Z" fill="#E8B467"/>
<path d="M445.789 41.4324C434.455 31.2279 395.146 3.09823 391.801 2.87831C384.347 6.6222 357.598 26.5448 342.773 42.237C340.08 45.0883 346.063 50.3717 351.647 46.5346C362.618 38.9951 384.991 18.8552 391.665 13.4994C408.148 24.9924 419.187 32.462 434.94 45.5851C441.078 50.6925 452.764 47.7015 445.789 41.4324C448.928 44.2474 432.642 29.5953 445.789 41.4324Z" fill="#E8B467"/>
<path d="M382.996 38.7184C375.222 38.7184 375.222 47.3912 382.996 47.3912C390.774 47.3912 390.774 38.7184 382.996 38.7184Z" fill="#E8B467"/>
<path d="M391.651 27.5113C383.877 27.5113 383.877 36.1866 391.651 36.1866C399.425 36.1841 399.425 27.5113 391.651 27.5113Z" fill="#E8B467"/>
<path d="M400.856 38.7184C393.082 38.7184 393.082 47.3912 400.856 47.3912C408.638 47.3912 408.638 38.7184 400.856 38.7184Z" fill="#E8B467"/>
<path d="M540.147 41.4325C528.813 31.228 489.5 3.09835 486.16 2.87843C478.702 6.62232 451.956 26.5449 437.131 42.2372C434.438 45.0884 440.425 50.3718 446.005 46.5347C456.973 38.9952 479.346 18.8553 486.016 13.4995C502.51 24.9925 513.542 32.4622 529.302 45.5852C535.429 50.6926 547.119 47.7016 540.147 41.4325C543.282 44.2475 526.99 29.5954 540.147 41.4325Z" fill="#E8B467"/>
<path d="M477.354 38.7186C469.577 38.7186 469.577 47.3914 477.354 47.3914C485.128 47.3914 485.128 38.7186 477.354 38.7186Z" fill="#E8B467"/>
<path d="M486.001 27.5114C478.227 27.5114 478.227 36.1868 486.001 36.1868C493.775 36.1842 493.775 27.5114 486.001 27.5114Z" fill="#E8B467"/>
<path d="M495.213 38.7186C487.439 38.7186 487.439 47.3914 495.213 47.3914C502.991 47.3914 502.991 38.7186 495.213 38.7186Z" fill="#E8B467"/>
<path d="M634.73 41.4324C623.396 31.2279 584.087 3.09823 580.742 2.87831C573.285 6.6222 546.539 26.5448 531.714 42.237C529.024 45.0883 535.004 50.3717 540.592 46.5346C551.555 38.9951 573.932 18.8552 580.602 13.4994C597.093 24.9924 608.132 32.462 623.885 45.5851C630.016 50.6925 641.706 47.7015 634.73 41.4324C637.862 44.2474 621.576 29.5953 634.73 41.4324Z" fill="#E8B467"/>
<path d="M571.937 38.7184C564.162 38.7184 564.162 47.3912 571.937 47.3912C579.714 47.3912 579.714 38.7184 571.937 38.7184Z" fill="#E8B467"/>
<path d="M580.589 27.5113C572.815 27.5113 572.815 36.1866 580.589 36.1866C588.363 36.1866 588.363 27.5113 580.589 27.5113Z" fill="#E8B467"/>
<path d="M589.797 38.7184C582.023 38.7184 582.023 47.3912 589.797 47.3912C597.575 47.3912 597.575 38.7184 589.797 38.7184Z" fill="#E8B467"/>
<path d="M729.324 41.4325C717.982 31.228 678.673 3.09835 675.329 2.87843C667.875 6.62232 641.126 26.5449 626.301 42.2372C623.611 45.0884 629.594 50.3718 635.179 46.5347C646.146 38.9952 668.519 18.8553 675.196 13.4995C691.679 24.9925 702.718 32.4622 718.471 45.5852C724.606 50.6926 736.292 47.7016 729.324 41.4325C732.456 44.2475 716.163 29.5954 729.324 41.4325Z" fill="#E8B467"/>
<path d="M666.523 38.7186C658.749 38.7186 658.749 47.3914 666.523 47.3914C674.298 47.3914 674.298 38.7186 666.523 38.7186Z" fill="#E8B467"/>
<path d="M675.175 27.5114C667.401 27.5114 667.401 36.1868 675.175 36.1868C682.945 36.1842 682.945 27.5114 675.175 27.5114Z" fill="#E8B467"/>
<path d="M684.384 38.7186C676.61 38.7186 676.61 47.3914 684.384 47.3914C692.158 47.3914 692.158 38.7186 684.384 38.7186Z" fill="#E8B467"/>
<path d="M823.912 41.4325C812.575 31.228 773.262 3.09835 769.918 2.87843C762.468 6.62232 735.715 26.5449 720.889 42.2372C718.2 45.0884 724.183 50.3718 729.771 46.5347C740.735 38.9952 763.104 18.8553 769.785 13.4995C786.272 24.9925 797.307 32.4622 813.06 45.5852C819.198 50.6926 830.881 47.7016 823.912 41.4325C827.052 44.2475 810.755 29.5954 823.912 41.4325Z" fill="#E8B467"/>
<path d="M761.112 38.7186C753.338 38.7186 753.338 47.3914 761.112 47.3914C768.89 47.3914 768.89 38.7186 761.112 38.7186Z" fill="#E8B467"/>
<path d="M769.766 27.5114C761.989 27.5114 761.989 36.1868 769.766 36.1868C777.537 36.1842 777.537 27.5114 769.766 27.5114Z" fill="#E8B467"/>
<path d="M778.979 38.7186C771.198 38.7186 771.198 47.3914 778.979 47.3914C786.746 47.3914 786.746 38.7186 778.979 38.7186Z" fill="#E8B467"/>
<path d="M918.496 41.4325C907.162 31.228 867.853 3.09835 864.509 2.87843C857.051 6.62232 830.295 26.5449 815.473 42.2372C812.783 45.0884 818.77 50.3718 824.351 46.5347C835.325 38.9952 857.691 18.8553 864.368 13.4995C880.855 24.9925 891.89 32.4622 907.647 45.5852C913.782 50.6926 925.472 47.7016 918.496 41.4325C921.628 44.2475 905.342 29.5954 918.496 41.4325Z" fill="#E8B467"/>
<path d="M855.694 38.7186C847.928 38.7186 847.928 47.3914 855.694 47.3914C863.476 47.3914 863.476 38.7186 855.694 38.7186Z" fill="#E8B467"/>
<path d="M864.351 27.5114C856.577 27.5114 856.577 36.1868 864.351 36.1868C872.125 36.1842 872.125 27.5114 864.351 27.5114Z" fill="#E8B467"/>
<path d="M873.564 38.7186C865.782 38.7186 865.782 47.3914 873.564 47.3914C881.338 47.3914 881.338 38.7186 873.564 38.7186Z" fill="#E8B467"/>
<path d="M1013.09 41.4325C1001.75 31.228 962.439 3.09835 959.095 2.87843C951.637 6.62232 924.885 26.5449 910.067 42.2372C907.373 45.0884 913.36 50.3718 918.937 46.5347C929.915 38.9952 952.281 18.8553 958.955 13.4995C975.442 24.9925 986.477 32.4622 1002.24 45.5852C1008.36 50.6926 1020.05 47.7016 1013.09 41.4325C1016.21 44.2475 999.929 29.5954 1013.09 41.4325Z" fill="#E8B467"/>
<path d="M950.289 38.7186C942.515 38.7186 942.515 47.3914 950.289 47.3914C958.056 47.3914 958.056 38.7186 950.289 38.7186Z" fill="#E8B467"/>
<path d="M958.933 27.5114C951.159 27.5114 951.159 36.1868 958.933 36.1868C966.71 36.1842 966.71 27.5114 958.933 27.5114Z" fill="#E8B467"/>
<path d="M968.15 38.7186C960.376 38.7186 960.376 47.3914 968.15 47.3914C975.925 47.3914 975.925 38.7186 968.15 38.7186Z" fill="#E8B467"/>
<path d="M1107.68 41.4324C1096.34 31.2279 1057.02 3.09823 1053.68 2.87831C1046.23 6.6222 1019.47 26.5448 1004.66 42.237C1001.97 45.0883 1007.95 50.3717 1013.53 46.5346C1024.5 38.9951 1046.87 18.8552 1053.54 13.4994C1070.03 24.9924 1081.07 32.462 1096.83 45.5851C1102.96 50.6925 1114.64 47.7015 1107.68 41.4324C1110.81 44.2474 1094.51 29.5953 1107.68 41.4324Z" fill="#E8B467"/>
<path d="M1044.88 38.7184C1037.1 38.7184 1037.1 47.3912 1044.88 47.3912C1052.65 47.3912 1052.65 38.7184 1044.88 38.7184Z" fill="#E8B467"/>
<path d="M1053.52 27.5113C1045.75 27.5113 1045.75 36.1866 1053.52 36.1866C1061.3 36.1841 1061.3 27.5113 1053.52 27.5113Z" fill="#E8B467"/>
<path d="M1062.74 38.7184C1054.96 38.7184 1054.96 47.3912 1062.74 47.3912C1070.51 47.3912 1070.51 38.7184 1062.74 38.7184Z" fill="#E8B467"/>
<path d="M1213.69 40.7126C1202.35 30.5082 1163.03 2.37851 1159.69 2.15858C1152.24 5.90247 1125.48 25.825 1110.66 41.5173C1107.98 44.3686 1113.96 49.6519 1119.54 45.8149C1130.51 38.2754 1152.88 18.1355 1159.55 12.7796C1176.04 24.2726 1187.08 31.7423 1202.84 44.8653C1208.97 49.9728 1220.65 46.9818 1213.69 40.7126C1216.82 43.5277 1200.52 28.8755 1213.69 40.7126Z" fill="#E8B467"/>
<path d="M1150.89 37.9987C1143.11 37.9987 1143.11 46.6715 1150.89 46.6715C1158.66 46.6715 1158.66 37.9987 1150.89 37.9987Z" fill="#E8B467"/>
<path d="M1159.53 26.7915C1151.76 26.7915 1151.76 35.4669 1159.53 35.4669C1167.31 35.4643 1167.31 26.7915 1159.53 26.7915Z" fill="#E8B467"/>
<path d="M1168.75 37.9987C1160.97 37.9987 1160.97 46.6715 1168.75 46.6715C1176.52 46.6715 1176.52 37.9987 1168.75 37.9987Z" fill="#E8B467"/>
<path d="M1319.69 39.993C1308.35 29.7885 1269.03 1.6589 1265.69 1.43898C1258.24 5.18287 1231.48 25.1054 1216.67 40.7977C1213.98 43.649 1219.96 48.9323 1225.54 45.0953C1236.51 37.5558 1258.88 17.4158 1265.55 12.06C1282.04 23.553 1293.08 31.0227 1308.84 44.1457C1314.97 49.2532 1326.65 46.2622 1319.69 39.993C1322.82 42.8081 1306.52 28.1559 1319.69 39.993Z" fill="#E8B467"/>
<path d="M1256.89 37.2796C1249.11 37.2796 1249.11 45.9524 1256.89 45.9524C1264.66 45.9524 1264.66 37.2796 1256.89 37.2796Z" fill="#E8B467"/>
<path d="M1265.53 26.0719C1257.76 26.0719 1257.76 34.7473 1265.53 34.7473C1273.31 34.7447 1273.31 26.0719 1265.53 26.0719Z" fill="#E8B467"/>
<path d="M1274.75 37.2796C1266.97 37.2796 1266.97 45.9524 1274.75 45.9524C1282.52 45.9524 1282.52 37.2796 1274.75 37.2796Z" fill="#E8B467"/>
<path d="M1425.69 41.4324C1414.35 31.2279 1375.03 3.09823 1371.69 2.87831C1364.24 6.6222 1337.48 26.5448 1322.66 42.237C1319.98 45.0883 1325.96 50.3717 1331.54 46.5346C1342.51 38.9951 1364.88 18.8552 1371.55 13.4994C1388.04 24.9924 1399.08 32.462 1414.84 45.5851C1420.97 50.6925 1432.65 47.7015 1425.69 41.4324C1428.82 44.2474 1412.52 29.5953 1425.69 41.4324Z" fill="#E8B467"/>
<path d="M1362.89 38.7184C1355.11 38.7184 1355.11 47.3912 1362.89 47.3912C1370.66 47.3912 1370.66 38.7184 1362.89 38.7184Z" fill="#E8B467"/>
<path d="M1371.53 27.5113C1363.76 27.5113 1363.76 36.1866 1371.53 36.1866C1379.31 36.1841 1379.31 27.5113 1371.53 27.5113Z" fill="#E8B467"/>
<path d="M1380.75 38.7184C1372.97 38.7184 1372.97 47.3912 1380.75 47.3912C1388.52 47.3912 1388.52 38.7184 1380.75 38.7184Z" fill="#E8B467"/>
<path d="M1520.69 39.2737C1509.35 29.0692 1470.03 0.939541 1466.69 0.719616C1459.24 4.46351 1432.48 24.3861 1417.66 40.0783C1414.98 42.9296 1420.96 48.213 1426.54 44.3759C1437.51 36.8364 1459.88 16.6965 1466.55 11.3407C1483.04 22.8337 1494.08 30.3033 1509.84 43.4264C1515.97 48.5338 1527.65 45.5428 1520.69 39.2737C1523.82 42.0887 1507.52 27.4366 1520.69 39.2737Z" fill="#E8B467"/>
<defs>
<clipPath id="clip0_2196_15181">
<rect width="1954" height="61.1616" fill="white" transform="translate(-287.971 52.2097)"/>
</clipPath>
</defs>
</svg>
