<svg width="118" height="90" viewBox="0 0 118 90" fill="none" xmlns="http://www.w3.org/2000/svg">
<path d="M84.0236 9.50804C101.889 21.3985 105.524 39.3674 105.268 52.5694C105.155 58.4386 103.475 65.0229 102.561 69.3056C101.901 69.3369 101.241 69.3671 100.58 69.4037C99.0903 69.4857 97.5966 69.6281 96.1028 69.7931C97.0336 65.7077 97.9126 60.3637 98.0042 54.4924C98.2674 37.5717 92.176 24.4216 79.8973 15.4053C57.308 -1.18099 37.4409 8.94291 20.9776 19.55C20.6249 18.4974 20.2647 17.449 19.8862 16.4105C19.5281 15.4279 19.1323 14.4745 18.7117 13.5395C36.1316 2.35326 57.2606 -8.30449 84.0236 9.50804Z" fill="#CF3A3A"/>
<path d="M81.2495 13.9126C97.8153 25.362 100.552 42.7561 99.9314 55.3325C99.6671 60.6851 98.7979 65.6009 97.8337 69.6183C95.7231 69.8103 93.6081 70.0789 91.4921 70.3927C92.4757 66.5327 93.4172 61.5921 93.6621 56.2169C94.3954 40.0987 88.8044 27.8059 77.0455 19.6783C56.7568 5.65563 38.1505 13.9105 22.3849 23.8251C21.7572 21.914 21.1317 20.0019 20.4771 18.1059C37.3405 7.55272 58.4791 -1.82486 81.2495 13.9126Z" fill="#03A678"/>
<path d="M78.2288 18.6009C94.0709 28.8133 96.2258 45.213 95.2433 57.1725C94.8485 61.9869 93.9361 66.4551 92.9395 70.1824C90.872 70.4683 88.8024 70.7972 86.7349 71.1445C87.7455 67.5466 88.7161 63.0751 89.0914 58.2596C90.2886 42.9352 85.1938 31.489 73.9493 24.2383C55.9491 12.6347 38.7923 19.1704 23.8723 28.1845C23.2424 26.4406 22.6579 24.6729 22.0798 22.902C38.2649 13.1265 57.8775 5.4799 78.2288 18.6009Z" fill="#CF63BD"/>
<path d="M73.7445 24.0863C89.1433 33.5415 90.9412 49.3319 89.7387 60.9139C89.3655 64.5118 88.6915 67.9155 87.9192 70.9515C87.4674 71.0259 87.0166 71.0971 86.5647 71.1726C84.9911 71.4369 83.4144 71.714 81.8354 71.9912C82.6141 69.0404 83.3043 65.6744 83.6581 62.1251C85.1389 47.286 80.3481 36.3586 69.4175 29.646C53.9281 20.1347 38.8097 24.3462 25.2259 31.7501C24.7719 30.6511 24.3599 29.5392 23.9662 28.4596C23.7635 27.9042 23.5747 27.3412 23.3806 26.7804C38.4559 18.4425 55.9719 13.173 73.7445 24.0863Z" fill="#0455BF"/>
<path d="M113.338 89.5482C114.335 88.6779 117.661 82.5865 117.964 79.2679C118.267 75.9494 116.638 72.413 113.686 70.8686C110.733 69.3241 107.644 70.0478 105.912 72.8951C106.957 70.0964 108.52 66.4963 108.233 63.044C107.856 58.5165 105.454 56.2139 102.159 55.1483C99.3598 54.2445 95.7932 55.075 93.5844 57.0174C91.3756 58.9587 89.9196 61.5967 88.5467 64.197C90.0954 61.8232 89.4095 58.3655 87.2644 56.5137C85.1182 54.6619 81.8417 54.4063 79.2727 55.6035C76.7037 56.8006 74.8562 59.2822 74.0851 62.0098C74.373 58.6642 71.006 55.6951 67.6529 55.8731C64.2998 56.051 61.4364 58.84 60.5618 62.082C59.6871 65.324 59.4142 71.1673 60.1498 72.6826C60.744 73.9056 109.247 91.5348 113.338 89.5482Z" fill="#F2B705"/>
<path d="M53.4405 44.0211C54.4446 43.1594 57.8225 37.096 58.1536 33.7807C58.4847 30.4654 56.8863 26.915 53.9474 25.3447C51.0074 23.7754 47.9132 24.4732 46.1563 27.3043C47.2251 24.5153 48.8191 20.9271 48.5614 17.4738C48.2238 12.943 45.8425 10.6199 42.5552 9.52628C39.7651 8.59769 36.1899 9.39901 33.9649 11.322C31.74 13.2449 30.2614 15.87 28.8658 18.4584C30.4339 16.0976 29.7782 12.6345 27.6492 10.7644C25.5192 8.89427 22.2449 8.6117 19.6662 9.78619C17.0875 10.9618 15.2173 13.4272 14.4236 16.1483C14.7406 12.8049 11.3984 9.80776 8.04422 9.9566C4.689 10.1065 1.80293 12.8707 0.899145 16.1051C-0.00356145 19.3396 -0.326037 25.1807 0.396559 26.7014C0.981107 27.9298 49.3325 45.9732 53.4405 44.0211Z" fill="#F2B705"/>
</svg>
