<svg width="107" height="104" viewBox="0 0 107 104" fill="none" xmlns="http://www.w3.org/2000/svg">
<path d="M55.9518 27.4094C55.9518 27.4094 34.4817 17.4637 25.4617 28.1113C16.4443 38.7603 15.5835 40.7375 16.8297 44.1688C18.456 48.6689 36.9437 46.8281 36.9437 46.8281L55.9518 27.4094Z" fill="#03A678"/>
<path d="M80.8609 63.6685C80.8609 63.6685 84.0406 87.1171 71.2091 92.6025C58.3711 98.0839 56.2336 98.3196 53.3174 96.1225C49.5007 93.2408 56.7037 76.1185 56.7037 76.1185L80.8609 63.6685Z" fill="#03A678"/>
<path d="M118.13 33.7938C125.807 24.8453 133.479 12.2416 128.319 5.24122C121.903 -3.45434 107.175 0.353115 95.4507 4.63336C100.974 15.861 108.807 25.6346 118.13 33.7938Z" fill="#CF3A3A"/>
<path d="M33.3613 49.209C33.3613 49.209 6.64821 56.6292 5.14509 67.6437C3.64197 78.6555 16.5502 74.9712 16.5502 74.9712C16.5502 74.9712 -5.1463 84.7832 1.14428 95.8784C7.43353 106.972 21.9893 92.4656 21.9893 92.4656C21.9893 92.4656 20.6411 95.6136 24.6075 101.296C31.6357 111.373 54.2513 79.1442 54.2513 79.1442L33.3613 49.209Z" fill="#CF3A3A"/>
<path d="M36.8096 54.1543C36.8096 54.1543 18.4676 59.2463 17.4346 66.8109C16.4003 74.3715 25.2654 71.8394 25.2654 71.8394C25.2654 71.8394 10.368 78.575 14.6853 86.1965C19.0066 93.8114 29.0013 83.8551 29.0013 83.8551C29.0013 83.8551 28.0756 86.0151 30.7958 89.9152C35.6256 96.8348 51.1534 74.7066 51.1534 74.7066L36.8096 54.1543Z" fill="#F2B705"/>
<path d="M95.4524 4.63232C44.4179 27.7949 33.3611 49.208 33.3611 49.208C35.7065 67.8917 54.2511 79.1432 54.2511 79.1432C52.8976 80.0874 78.0334 78.8333 118.132 33.7928C108.807 25.6349 100.975 15.8613 95.4524 4.63232Z" fill="#0455BF"/>
<path d="M84.0206 56.0243C77.8995 60.3006 67.6717 59.8596 62.9253 53.0525C58.175 46.2454 57.726 36.6003 65.4455 31.2235C71.5653 26.9499 81.0621 28.1617 85.8098 34.9701C90.5602 41.7732 90.139 51.7533 84.0206 56.0243Z" fill="#03A678"/>
<path d="M83.6635 36.6332C81.334 33.2867 77.5848 31.6048 73.8833 31.565C71.4651 31.5333 69.064 32.21 67.0961 33.586C60.8161 37.9629 61.1803 45.8135 65.0487 51.3479C68.2006 55.8758 74.3415 56.9379 79.1925 55.2772C80.2785 54.9104 81.3009 54.4031 82.2081 53.7714C87.1915 50.2964 87.5319 42.169 83.6635 36.6332Z" fill="#F2F2F2"/>
</svg>
