<svg width="263" height="49" viewBox="0 0 263 49" fill="none" xmlns="http://www.w3.org/2000/svg">
<path d="M40.4114 8.44682C35.6559 3.79472 30.1375 -0.0945013 24.662 0.00174907C19.1828 -0.0945013 13.6645 3.79472 8.90898 8.44682C4.25688 13.2023 0.367657 18.7207 0.463907 24.1962C0.367657 29.6754 4.25688 35.1937 8.90898 39.9492C13.6645 44.6013 19.1828 48.4905 24.662 48.3943C30.1375 48.4905 35.6559 44.6013 40.4114 39.9492C45.0635 35.1937 48.9527 29.6754 48.8564 24.1962C48.9527 18.7207 45.0635 13.2023 40.4114 8.44682ZM21.2255 10.9885C21.6247 10.2613 22.1987 9.61252 22.958 9.24891C23.4856 8.97798 24.0738 8.84965 24.662 8.85321C25.2466 8.84965 25.8348 8.97798 26.3624 9.24891C27.1217 9.61252 27.6956 10.2613 28.0949 10.9885C28.9683 12.4073 29.8416 13.8261 30.7115 15.2449L28.5227 17.3304C27.4639 15.6121 26.4016 13.8939 25.3428 12.1721C25.2074 11.9083 24.9329 11.7764 24.662 11.7764C24.3875 11.7764 24.113 11.9083 23.9775 12.1721C22.9223 13.8939 21.8564 15.6121 20.7977 17.3304L18.6089 15.2449C19.4787 13.8261 20.3556 12.4073 21.2255 10.9885ZM11.4471 35.2365C9.63977 33.8569 9.00167 31.1655 10.0747 29.1442C10.6237 28.1817 11.2226 27.2442 11.8036 26.2995L13.5468 29.1157C13.2438 29.6041 12.9372 30.0925 12.6663 30.5987C12.153 31.7144 12.9729 33.1439 14.1849 33.2901C14.7945 33.4042 15.3756 33.1796 15.8176 32.7803L17.3933 35.3256C15.6786 36.6018 13.119 36.584 11.4471 35.2365ZM37.8732 35.2365C36.2049 36.584 33.6418 36.6018 31.9271 35.3256L33.5063 32.7803C33.9448 33.1796 34.5294 33.4042 35.1354 33.2901C36.3475 33.1439 37.1709 31.7144 36.654 30.5987C36.3867 30.0925 36.0801 29.6041 35.7735 29.1157L37.5167 26.2995C38.1013 27.2442 38.6967 28.1817 39.2457 29.1442C40.3187 31.1655 39.6806 33.8569 37.8732 35.2365ZM39.2421 21.6688C38.9961 22.093 38.7466 22.5136 38.4899 22.9307L31.2212 34.7018C30.6437 34.0637 30.2659 33.2616 29.8309 32.5237C28.3551 29.9356 26.8721 27.3511 25.3963 24.7666C25.2608 24.4814 24.9757 24.2675 24.662 24.2711C24.3482 24.2675 24.0595 24.4814 23.924 24.7666C22.4482 27.3511 20.9652 29.9356 19.4894 32.5237C19.0545 33.2616 18.6802 34.0637 18.0991 34.7018L10.8304 22.9307C10.5738 22.5136 10.3242 22.093 10.0818 21.6688C8.92681 19.5227 9.73602 16.621 11.7822 15.3269C12.5736 14.7922 13.5076 14.5355 14.4452 14.5355C15.6322 14.5355 16.8229 14.9491 17.7284 15.7298L20.2451 18.2251C19.6961 19.1235 19.1472 20.0218 18.6017 20.9237L15.9103 18.1004C15.4255 17.5906 14.6555 17.3625 13.971 17.555C13.087 17.7831 12.4417 18.685 12.5202 19.594C12.5415 20.1537 12.8873 20.6064 13.1654 21.0627C14.8016 23.7221 16.4379 26.3779 18.0742 29.0373C19.2149 27.0374 20.3485 25.0411 21.5 23.0448C22.1559 21.9504 23.4071 21.323 24.662 21.3158C25.9132 21.323 27.168 21.9504 27.824 23.0448C28.9718 25.0411 30.109 27.0374 31.2498 29.0373C32.8824 26.3779 34.5187 23.7221 36.155 21.0627C36.433 20.6064 36.7788 20.1537 36.8002 19.594C36.8786 18.685 36.2334 17.7831 35.3493 17.555C35.1853 17.5086 35.0178 17.4872 34.8502 17.4872C34.3155 17.4872 33.7808 17.7118 33.41 18.1004L30.7222 20.9237C30.1732 20.0218 29.6242 19.1235 29.0752 18.2251L31.592 15.7298C33.2104 14.3324 35.7486 14.1149 37.5381 15.3269C39.5879 16.621 40.3971 19.5227 39.2421 21.6688Z" fill="#009B77"/>
<path d="M78.0915 17.6336L74.4126 30.7022C74.2949 31.1443 73.8244 31.4972 73.3823 31.4972H70.616C70.174 31.4972 69.6749 31.1443 69.4967 30.7022L66.6127 23.1377L63.7003 30.7022C63.522 31.1443 63.023 31.4972 62.5809 31.4972H59.7861C59.344 31.4972 58.902 31.1443 58.7558 30.7022L55.1019 17.6336C54.9843 17.1915 55.2195 16.8386 55.6616 16.8386H56.3674C58.959 16.8386 59.8396 18.3394 60.3422 20.4284C60.6951 21.9007 61.1372 24.1073 61.4901 26.0787C62.0497 24.1073 62.6665 21.8971 63.1976 20.4284C63.5505 19.4552 64.2564 16.8386 65.7893 16.8386H67.4077C68.937 16.8386 69.6464 19.4588 69.9993 20.4284C70.5305 21.9007 71.1472 24.0788 71.7069 26.0501C72.0598 24.0788 72.4733 21.9007 72.8262 20.4284C73.3574 18.3394 74.2094 16.8386 76.8295 16.8386H77.5068C77.9417 16.8386 78.2091 17.1915 78.0915 17.6336Z" fill="#009B77"/>
<path d="M93.0708 17.6335V30.7022C93.0708 31.1442 92.6893 31.4972 92.2473 31.4972H92.0405C90.3045 31.4972 89.5095 30.6452 89.1566 29.4652C88.0978 30.8198 86.597 31.6148 84.7398 31.6148C80.9717 31.6148 78.5583 28.82 78.5583 24.8737C78.5583 19.694 81.7097 16.7209 84.9465 16.7209C86.95 16.7209 88.4187 17.3983 89.5095 18.1041C89.9515 17.3377 90.718 16.8386 92.0405 16.8386H92.2473C92.6893 16.8386 93.0708 17.1915 93.0708 17.6335ZM88.9498 23.1091V21.3445C88.2725 21.0807 87.2423 20.6957 86.2726 20.6957C84.2407 20.6957 82.6508 21.6083 82.6508 24.699C82.6508 26.731 83.8592 27.6436 85.5347 27.6436C87.449 27.6436 88.8607 26.1998 88.9498 23.1091Z" fill="#009B77"/>
<path d="M106.257 28.3174V30.7308C106.257 31.1728 105.904 31.4972 105.491 31.4972H95.7481C95.3061 31.4972 94.8961 31.0837 94.8961 29.9679C94.8961 29.5864 94.9246 28.5241 95.3952 27.7292C95.9263 26.8772 98.4253 22.9024 99.7514 20.8134H95.6305C95.2169 20.8134 94.864 20.4605 94.864 20.047V17.6051C94.864 17.1915 95.2169 16.8386 95.6305 16.8386H104.874C106.639 16.8386 106.111 18.4285 105.726 19.0773C105.726 19.0773 102.282 24.8452 100.693 27.5545H105.491C105.904 27.5545 106.257 27.8789 106.257 28.3174Z" fill="#009B77"/>
<path d="M121.65 24.1679C121.65 28.2888 118.324 31.6148 114.203 31.6148C110.082 31.6148 106.756 28.2888 106.756 24.1679C106.756 20.0469 110.082 16.7209 114.203 16.7209C118.324 16.7209 121.65 20.0469 121.65 24.1679ZM117.558 24.1679C117.558 22.1359 116.057 20.6957 114.203 20.6957C112.35 20.6957 110.849 22.1395 110.849 24.1679C110.849 26.1998 112.35 27.64 114.203 27.64C116.057 27.64 117.558 26.1998 117.558 24.1679Z" fill="#009B77"/>
<path d="M138.016 23.4621C138.016 28.6738 134.865 31.6148 131.628 31.6148C129.628 31.6148 128.156 30.9375 127.065 30.2602C126.623 30.9945 125.857 31.4972 124.534 31.4972H124.327C123.885 31.4972 123.504 31.1443 123.504 30.7022V11.6304C123.504 11.1884 123.885 10.8354 124.327 10.8354H124.534C127.126 10.8354 127.625 12.7783 127.625 14.8387C127.625 15.4269 127.625 18.2824 127.625 18.6068C128.684 17.3983 130.127 16.7245 131.835 16.7245C135.603 16.721 138.016 19.5194 138.016 23.4621ZM133.924 23.6403C133.924 21.6084 132.715 20.6958 131.04 20.6958C129.097 20.6958 127.685 22.168 127.625 25.3158C127.625 25.9646 127.625 26.5528 127.625 27.0233C128.302 27.2871 129.332 27.64 130.302 27.64C132.334 27.6436 133.924 26.731 133.924 23.6403Z" fill="#009B77"/>
<path d="M139.603 12.689C139.603 11.395 140.661 10.3647 141.927 10.3647C143.221 10.3647 144.283 11.395 144.283 12.689C144.283 13.983 143.224 15.0454 141.927 15.0454C140.665 15.0418 139.603 13.983 139.603 12.689ZM143.991 17.6334V30.7021C143.991 31.1441 143.638 31.497 143.196 31.497H140.693C140.251 31.497 139.898 31.1441 139.898 30.7021C139.898 30.7021 139.898 22.9308 139.898 20.8418C139.898 18.7813 140.369 16.8385 142.961 16.8385H143.196C143.638 16.8385 143.991 17.1914 143.991 17.6334Z" fill="#009B77"/>
<path d="M160.229 17.6335V30.7022C160.229 31.1442 159.847 31.4972 159.405 31.4972H159.198C157.462 31.4972 156.667 30.6452 156.315 29.4652C155.256 30.8198 153.755 31.6148 151.898 31.6148C148.13 31.6148 145.716 28.82 145.716 24.8737C145.716 19.694 148.868 16.7209 152.104 16.7209C154.108 16.7209 155.577 17.3983 156.667 18.1041C157.109 17.3377 157.876 16.8386 159.198 16.8386H159.405C159.844 16.8386 160.229 17.1915 160.229 17.6335ZM156.108 23.1091V21.3445C155.43 21.0807 154.4 20.6957 153.431 20.6957C151.399 20.6957 149.809 21.6083 149.809 24.699C149.809 26.731 151.017 27.6436 152.693 27.6436C154.603 27.6436 156.019 26.1998 156.108 23.1091Z" fill="#009B77"/>
<path d="M169.44 27.6435C170.706 27.6435 172.089 27.0268 172.592 26.8201C172.973 26.6739 173.65 26.7309 173.886 27.4082C174.092 27.9964 174.445 28.909 174.652 29.5293C174.859 30.0284 174.534 30.4419 173.975 30.6202C172.827 31.0907 171.148 31.6219 169.44 31.6219C165.141 31.6219 162.05 28.2959 162.05 24.175C162.05 20.054 165.141 16.728 169.44 16.728C171.148 16.728 172.827 17.2592 173.975 17.7297C174.534 17.9365 174.859 18.3465 174.652 18.8206C174.445 19.4373 174.092 20.3499 173.886 20.9702C173.65 21.619 172.973 21.676 172.592 21.5299C172.092 21.3516 170.709 20.7064 169.44 20.7064C167.408 20.7064 166.171 22.1501 166.171 24.1785C166.171 26.1998 167.408 27.6435 169.44 27.6435Z" fill="#009B77"/>
<path d="M190.102 17.6335V30.7022C190.102 31.1442 189.721 31.4972 189.279 31.4972H189.072C187.336 31.4972 186.541 30.6452 186.188 29.4652C185.129 30.8198 183.628 31.6148 181.771 31.6148C178.003 31.6148 175.59 28.82 175.59 24.8737C175.59 19.694 178.741 16.7209 181.978 16.7209C183.981 16.7209 185.45 17.3983 186.541 18.1041C186.983 17.3377 187.749 16.8386 189.072 16.8386H189.279C189.721 16.8386 190.102 17.1915 190.102 17.6335ZM185.981 23.1091V21.3445C185.304 21.0807 184.274 20.6957 183.304 20.6957C181.272 20.6957 179.682 21.6083 179.682 24.699C179.682 26.731 180.89 27.6436 182.566 27.6436C184.48 27.6436 185.892 26.1998 185.981 23.1091Z" fill="#009B77"/>
<path d="M206.497 11.6303V30.7057C206.497 31.1477 206.115 31.5006 205.673 31.5006H205.466C203.73 31.5006 202.935 30.6486 202.611 29.4687C201.52 30.8233 200.019 31.6183 198.166 31.6183C194.398 31.6183 191.984 28.8234 191.984 24.8772C191.984 19.6975 195.135 16.7244 198.372 16.7244C200.051 16.7244 201.345 17.195 202.376 17.7547C202.376 17.7261 202.376 15.4304 202.376 14.8422C202.376 12.7817 202.846 10.8389 205.466 10.8389H205.673C206.115 10.8353 206.497 11.1882 206.497 11.6303ZM202.376 23.0199C202.376 22.5208 202.376 21.9612 202.376 21.3409C201.698 21.0771 200.668 20.6921 199.698 20.6921C197.666 20.6921 196.077 21.6047 196.077 24.6954C196.077 26.7273 197.285 27.6399 198.96 27.6399C200.903 27.6435 202.315 26.1712 202.376 23.0199Z" fill="#009B77"/>
<path d="M221.597 29.3795C221.832 29.8501 221.537 30.2636 221.009 30.4989C218.949 31.3829 217.89 31.6182 215.975 31.6182C211.676 31.6182 208.322 28.2922 208.322 24.1713C208.322 20.0503 211.648 16.7244 215.769 16.7244C218.478 16.7244 220.713 17.9008 221.626 20.1965C223.069 23.8184 219.947 25.4083 216.418 25.6721C215.091 25.7897 213.915 25.8788 212.885 25.968C213.473 26.9982 214.621 27.647 215.975 27.647C217.683 27.647 218.417 27.2656 219.362 26.8235C219.715 26.6453 220.392 26.6453 220.688 27.2941C220.948 27.8787 221.33 28.7592 221.597 29.3795ZM212.617 22.8452C213.794 22.7561 215.091 22.6669 216.061 22.5814C217.002 22.5208 218.004 22.3176 217.858 21.4905C217.74 20.7241 216.974 20.1074 215.915 20.1965C214.207 20.3427 213.059 21.4299 212.617 22.8452Z" fill="#009B77"/>
<path d="M246.85 22.7847V30.7022C246.85 31.1442 246.498 31.4972 246.055 31.4972H243.524C243.082 31.4972 242.73 31.1442 242.73 30.7022V23.1091C242.73 21.4301 241.878 20.6957 240.405 20.6957C238.434 20.6957 237.521 22.1965 237.521 25.4655V30.7058C237.521 31.1478 237.168 31.5007 236.726 31.5007H234.195C233.753 31.5007 233.4 31.1478 233.4 30.7058V23.1127C233.4 21.4336 232.548 20.6993 231.044 20.6993C229.13 20.6993 228.249 22.1431 228.189 25.2338C228.189 27.9109 228.189 30.7093 228.189 30.7093C228.189 31.1514 227.836 31.5043 227.394 31.5043H224.863C224.421 31.5043 224.068 31.1514 224.068 30.7093V17.6335C224.068 17.1915 224.421 16.8386 224.863 16.8386H225.098C226.745 16.8386 227.54 17.6335 227.925 18.7529C228.898 17.4589 230.249 16.7209 231.867 16.7209C234.135 16.7209 235.782 17.7227 236.694 19.3411C237.667 17.6941 239.136 16.7209 241.197 16.7209C244.79 16.7209 246.85 19.1949 246.85 22.7847Z" fill="#009B77"/>
<path d="M262.479 17.6336L257.121 32.0854C256.09 34.9693 254.825 38.0315 251.235 38.0315C251 38.0315 250.059 38.003 249.381 37.9139C248.822 37.8854 248.38 37.561 248.44 37.0298C248.501 36.381 248.586 35.4114 248.647 34.7626C248.708 34.0853 249.353 33.85 249.738 33.8785C250.269 33.9355 250.829 34.0567 251.239 34.0567C252.857 34.0567 253.534 32.613 253.916 31.4972H253.798C253.356 31.4972 252.857 31.1443 252.707 30.7022L247.909 17.6336C247.731 17.1915 247.97 16.8386 248.408 16.8386H249.114C251.706 16.8386 252.704 18.3394 253.413 20.4284C253.944 22.1074 254.679 24.7276 255.238 26.9057C255.798 24.7276 256.358 22.3142 257.003 20.4284C257.68 18.3394 258.682 16.8386 261.27 16.8386H261.976C262.418 16.8386 262.653 17.1915 262.479 17.6336Z" fill="#009B77"/>
</svg>
