<svg width="1440" height="916" viewBox="0 0 1440 916" fill="none" xmlns="http://www.w3.org/2000/svg">
<rect width="1440" height="916" fill="#009B77"/>
<path d="M16.1321 119.82C15.6331 119.839 15.1341 119.766 14.6351 119.673C14.5671 120.119 14.4991 120.565 14.4301 121.011C14.3021 121.844 12.9671 121.545 13.1441 120.708C13.2351 120.28 13.3261 119.852 13.4161 119.424C12.9441 119.321 12.4731 119.224 12.0001 119.182C11.2551 119.117 11.1911 118.099 11.9551 118.01C12.5211 117.944 13.1331 117.885 13.7481 117.86C13.9021 117.135 14.0561 116.409 14.2101 115.684C14.3491 115.03 15.3091 115.276 15.2101 115.919C15.1091 116.579 15.0081 117.239 14.9061 117.898C15.4621 117.955 16.0041 118.059 16.4871 118.305C17.2081 118.673 16.9131 119.79 16.1321 119.82ZM7.76811 118.008C7.28511 117.762 6.74212 117.658 6.18712 117.601C6.28812 116.941 6.38912 116.281 6.49112 115.621C6.59012 114.977 5.63012 114.731 5.49112 115.386C5.33712 116.111 5.18311 116.837 5.02911 117.562C4.41511 117.586 3.80312 117.645 3.23712 117.712C2.47312 117.802 2.53712 118.819 3.28212 118.884C3.75412 118.925 4.22612 119.022 4.69812 119.126C4.60712 119.554 4.51612 119.982 4.42612 120.41C4.24812 121.246 5.58411 121.545 5.71211 120.712C5.78011 120.266 5.84911 119.82 5.91711 119.374C6.41611 119.468 6.91512 119.541 7.41412 119.521C8.19212 119.491 8.48711 118.374 7.76811 118.008ZM24.9941 118.843C24.5111 118.597 23.9681 118.493 23.4131 118.436C23.5141 117.776 23.6161 117.116 23.7171 116.456C23.8161 115.812 22.8561 115.567 22.7171 116.221C22.5631 116.946 22.4091 117.672 22.2551 118.397C21.6411 118.421 21.0291 118.48 20.4631 118.547C19.6991 118.637 19.7631 119.654 20.5081 119.719C20.9801 119.761 21.4521 119.857 21.9241 119.961C21.8331 120.389 21.7421 120.817 21.6521 121.245C21.4741 122.081 22.8101 122.381 22.9381 121.547C23.0061 121.101 23.0751 120.655 23.1431 120.209C23.6421 120.302 24.1421 120.376 24.6401 120.356C25.4191 120.327 25.7141 119.21 24.9941 118.843ZM35.1051 119.469C34.6221 119.223 34.0791 119.119 33.5241 119.062C33.6251 118.402 33.7261 117.742 33.8271 117.083C33.9261 116.439 32.9661 116.194 32.8271 116.848C32.6731 117.573 32.5191 118.298 32.3651 119.024C31.7511 119.048 31.1391 119.107 30.5731 119.174C29.8091 119.264 29.8731 120.281 30.6181 120.347C31.0901 120.388 31.5621 120.485 32.0341 120.589C31.9431 121.017 31.8521 121.445 31.7611 121.873C31.5841 122.709 32.9191 123.009 33.0471 122.175C33.1151 121.729 33.1841 121.283 33.2521 120.837C33.7511 120.93 34.2501 121.003 34.7491 120.984C35.5291 120.953 35.8241 119.836 35.1051 119.469ZM19.2411 130.282C18.7421 130.301 18.2431 130.228 17.7441 130.135C17.6761 130.581 17.6071 131.027 17.5391 131.473C17.4111 132.306 16.0761 132.007 16.2531 131.17C16.3441 130.742 16.4351 130.314 16.5251 129.886C16.0541 129.783 15.5821 129.686 15.1101 129.644C14.3651 129.579 14.3011 128.561 15.0651 128.472C15.6311 128.406 16.2431 128.347 16.8581 128.322C17.0121 127.597 17.1661 126.872 17.3201 126.146C17.4591 125.492 18.4191 125.737 18.3201 126.381C18.2191 127.041 18.1181 127.701 18.0171 128.36C18.5721 128.417 19.1151 128.521 19.5981 128.767C20.3171 129.134 20.0211 130.251 19.2411 130.282ZM10.8761 128.469C10.3931 128.223 9.85012 128.119 9.29512 128.062C9.39612 127.402 9.49711 126.742 9.59811 126.083C9.69711 125.439 8.73711 125.193 8.59811 125.848C8.44411 126.573 8.29012 127.298 8.13612 128.023C7.52212 128.047 6.90912 128.106 6.34412 128.173C5.58012 128.263 5.64411 129.28 6.38911 129.345C6.86111 129.386 7.33311 129.483 7.80511 129.586C7.71411 130.014 7.62311 130.442 7.53311 130.87C7.35611 131.707 8.69112 132.006 8.81912 131.172C8.88712 130.726 8.95612 130.28 9.02412 129.834C9.52312 129.927 10.0221 130.001 10.5211 129.981C11.3001 129.952 11.5961 128.835 10.8761 128.469ZM28.1031 129.304C27.6201 129.058 27.0771 128.954 26.5221 128.897C26.6231 128.237 26.7241 127.577 26.8251 126.918C26.9241 126.274 25.9641 126.028 25.8251 126.683C25.6711 127.408 25.5171 128.133 25.3631 128.858C24.7491 128.882 24.1371 128.941 23.5711 129.008C22.8071 129.098 22.8711 130.115 23.6161 130.18C24.0881 130.221 24.5601 130.318 25.0321 130.422C24.9411 130.85 24.8501 131.278 24.7601 131.706C24.5821 132.543 25.9181 132.842 26.0461 132.008C26.1141 131.562 26.1831 131.116 26.2511 130.67C26.7501 130.764 27.2491 130.837 27.7481 130.818C28.5271 130.788 28.8221 129.671 28.1031 129.304ZM38.2131 129.93C37.7301 129.684 37.1871 129.58 36.6311 129.523C36.7321 128.863 36.8331 128.203 36.9341 127.543C37.0331 126.899 36.0731 126.653 35.9341 127.308C35.7801 128.033 35.6261 128.758 35.4721 129.484C34.8581 129.508 34.2461 129.567 33.6801 129.634C32.9161 129.724 32.9801 130.741 33.7251 130.807C34.1971 130.848 34.6691 130.945 35.1411 131.049C35.0501 131.477 34.9591 131.905 34.8691 132.333C34.6921 133.169 36.0271 133.468 36.1551 132.635C36.2231 132.189 36.2921 131.743 36.3601 131.297C36.8591 131.391 37.3581 131.464 37.8571 131.445C38.6371 131.414 38.9331 130.297 38.2131 129.93ZM13.4421 138.783C12.9431 138.802 12.4441 138.729 11.9451 138.635C11.8771 139.081 11.8081 139.527 11.7401 139.973C11.6121 140.806 10.2761 140.507 10.4541 139.67C10.5451 139.242 10.6361 138.814 10.7261 138.386C10.2541 138.282 9.78312 138.186 9.31012 138.144C8.56612 138.079 8.50112 137.061 9.26512 136.971C9.83112 136.905 10.4431 136.846 11.0571 136.821C11.2111 136.096 11.3651 135.371 11.5191 134.646C11.6581 133.992 12.6181 134.237 12.5191 134.881C12.4181 135.541 12.3171 136.201 12.2161 136.861C12.7721 136.918 13.3141 137.022 13.7971 137.268C14.5171 137.635 14.2221 138.752 13.4421 138.783ZM5.07611 136.97C4.59311 136.724 4.05012 136.62 3.49512 136.563C3.59612 135.903 3.69711 135.243 3.79811 134.583C3.89711 133.939 2.93711 133.693 2.79811 134.348C2.64411 135.073 2.49012 135.798 2.33612 136.523C1.72212 136.548 1.11011 136.606 0.544113 136.673C-0.219887 136.763 -0.155889 137.78 0.589111 137.845C1.06111 137.886 1.53311 137.983 2.00511 138.087C1.91411 138.515 1.82312 138.943 1.73212 139.371C1.55512 140.208 2.89011 140.507 3.01811 139.674C3.08611 139.228 3.15511 138.782 3.22311 138.336C3.72211 138.429 4.22112 138.503 4.72012 138.483C5.50112 138.453 5.79611 137.336 5.07611 136.97ZM22.3031 137.805C21.8201 137.559 21.2771 137.455 20.7221 137.398C20.8231 136.738 20.9241 136.078 21.0251 135.418C21.1241 134.774 20.1641 134.528 20.0251 135.183C19.8711 135.908 19.7171 136.633 19.5631 137.358C18.9491 137.382 18.3371 137.441 17.7711 137.508C17.0071 137.598 17.0711 138.615 17.8161 138.68C18.2881 138.721 18.7601 138.818 19.2321 138.922C19.1411 139.35 19.0501 139.778 18.9601 140.206C18.7831 141.042 20.1181 141.342 20.2461 140.508C20.3141 140.062 20.3831 139.616 20.4511 139.17C20.9501 139.263 21.4491 139.337 21.9481 139.318C22.7281 139.289 23.0231 138.172 22.3031 137.805ZM32.4141 138.431C31.9311 138.185 31.3881 138.081 30.8331 138.024C30.9341 137.364 31.0351 136.704 31.1371 136.044C31.2361 135.4 30.2761 135.154 30.1371 135.809C29.9831 136.534 29.8291 137.26 29.6751 137.985C29.0611 138.009 28.4491 138.068 27.8831 138.135C27.1191 138.225 27.1831 139.242 27.9281 139.308C28.4001 139.349 28.8721 139.446 29.3441 139.55C29.2531 139.978 29.1621 140.406 29.0721 140.834C28.8941 141.67 30.2301 141.969 30.3581 141.136C30.4261 140.69 30.4951 140.244 30.5631 139.798C31.0621 139.891 31.5611 139.965 32.0601 139.946C32.8381 139.915 33.1331 138.798 32.4141 138.431Z" fill="white"/>
<path d="M753.094 99.3658C750.688 99.6047 748.418 99.4498 746.147 99.2043C743.159 98.8806 740.176 99.1063 737.207 99.4936C736.734 99.5549 736.061 99.604 735.985 100.23C735.896 100.962 736.629 101.045 737.107 101.233C738.473 101.767 739.93 101.526 741.324 101.505C744.345 101.459 747.284 102.108 750.369 102.464C749.374 103.02 748.386 103.588 747.385 104.131C745.997 104.883 744.59 105.599 743.214 106.371C742.826 106.59 742.273 106.824 742.4 107.408C742.525 107.981 743.072 108.133 743.584 108.236C744.695 108.46 745.757 108.401 746.805 107.873C750.574 105.976 754.366 104.125 757.883 101.773C758.587 101.301 758.821 100.84 758.139 100.062C754.786 96.2402 750.367 94.0698 745.837 92.0917C745.112 91.7752 744.206 91.8066 743.382 91.7995C742.842 91.7943 742.197 91.9631 742.055 92.5896C741.9 93.27 742.515 93.5798 743.009 93.766C744.825 94.4529 746.528 95.3621 748.192 96.3405C749.847 97.3109 751.462 98.3535 753.094 99.3658Z" fill="#FEF383"/>
<path d="M654.258 152.755C654.05 153.544 654.105 154.348 655.132 154.788C656.429 155.343 657.962 155.129 658.73 154.175C659.798 152.848 660.424 151.252 661.271 149.791C662.199 148.191 663.101 146.575 663.977 144.946C664.51 143.954 664.253 143.307 663.213 142.899C662.205 142.504 661.154 142.398 660.086 142.582C659.613 142.664 659.134 142.843 658.893 143.279C657.45 145.886 655.463 148.195 654.607 151.129C654.461 151.624 654.344 152.113 654.258 152.755Z" fill="#FEF383"/>
<path d="M728.852 99.6006C727.364 99.5058 726.03 99.8003 724.709 100.223C720.957 101.424 717.216 102.658 713.649 104.351C713.104 104.609 712.321 104.837 712.513 105.645C712.699 106.424 713.475 106.5 714.149 106.519C716.19 106.573 718.116 105.928 720.03 105.366C723.39 104.379 726.707 103.24 730.034 102.143C730.653 101.939 731.451 101.772 731.315 100.867C731.194 100.056 730.46 99.9436 729.787 99.8218C729.44 99.7597 729.1 99.6602 728.852 99.6006Z" fill="#FEF383"/>
<path d="M703.277 106.795C702.056 106.536 700.941 106.798 699.862 107.392C697.519 108.682 695.011 109.68 692.911 111.391C692.667 111.591 692.414 111.783 692.189 112.003C691.766 112.415 691.236 112.843 691.452 113.503C691.682 114.211 692.341 114.418 693.035 114.556C694.26 114.799 695.365 114.55 696.444 113.957C699.207 112.443 701.988 110.962 704.758 109.459C705.334 109.146 706.117 108.906 705.964 108.06C705.816 107.236 705.011 107.093 704.329 106.915C703.989 106.827 703.624 106.832 703.277 106.795Z" fill="#FEF383"/>
<path d="M670.646 128.385C669.173 128.054 668.002 128.599 667.1 129.836C666.01 131.333 664.772 132.741 664.098 134.495C663.709 135.505 663.121 136.602 664.241 137.524C665.312 138.406 667.249 138.312 668.304 137.335C669.331 136.383 669.918 135.104 670.649 133.938C671.278 132.936 671.863 131.906 672.496 130.906C673.343 129.572 672.994 128.766 671.408 128.469C671.175 128.425 670.937 128.416 670.646 128.385Z" fill="#FEF383"/>
<path d="M685.822 116.397C684.45 116.11 683.325 116.433 682.246 117.142C680.196 118.487 678.215 119.917 676.388 121.552C675.98 121.917 675.613 122.347 675.304 122.799C674.915 123.366 674.297 123.959 674.7 124.706C675.138 125.522 676.009 125.67 676.863 125.651C677.719 125.633 678.463 125.315 679.096 124.707C681.553 122.35 684.352 120.426 687.108 118.449C687.494 118.172 687.956 117.927 687.829 117.345C687.711 116.81 687.239 116.628 686.778 116.509C686.438 116.421 686.075 116.424 685.822 116.397Z" fill="#FEF383"/>
<path d="M389.195 741.492C383.045 743.332 376.885 745.172 370.735 747.012C369.865 747.272 370.235 748.641 371.115 748.371C377.265 746.531 383.425 744.692 389.575 742.852C390.435 742.602 390.065 741.232 389.195 741.492Z" fill="#FEF383"/>
<path d="M370.565 746.851C355.955 741.891 341.335 736.931 326.725 731.971C325.945 731.711 325.515 732.851 326.185 733.261C337.865 740.381 349.535 747.511 361.215 754.631C361.995 755.111 362.705 753.881 361.925 753.411C350.245 746.291 338.575 739.161 326.895 732.041C326.715 732.471 326.535 732.901 326.355 733.331C340.965 738.291 355.585 743.252 370.195 748.212C371.055 748.512 371.425 747.141 370.565 746.851Z" fill="#FEF383"/>
<path d="M390.065 739.532C364.285 734.202 338.405 729.362 312.445 725.012C311.555 724.862 311.175 726.222 312.065 726.372C338.025 730.722 363.905 735.562 389.685 740.892C390.585 741.072 390.965 739.712 390.065 739.532Z" fill="#FEF383"/>
<path d="M361.655 753.942C354.525 754.402 347.415 755.092 340.325 756.012C339.435 756.132 339.425 757.542 340.325 757.422C347.415 756.502 354.515 755.812 361.655 755.352C362.555 755.292 362.565 753.882 361.655 753.942Z" fill="#FEF383"/>
<path d="M310.185 726.482C320.305 737.872 331.015 748.682 342.325 758.902C342.995 759.512 344.005 758.512 343.325 757.902C332.015 747.692 321.305 736.882 311.185 725.482C310.585 724.802 309.585 725.802 310.185 726.482Z" fill="#FEF383"/>
<path d="M371.705 748.881C371.725 755.451 372.095 761.991 372.845 768.521C372.945 769.411 374.365 769.421 374.255 768.521C373.515 761.991 373.135 755.451 373.115 748.881C373.115 747.971 371.705 747.971 371.705 748.881Z" fill="#FEF383"/>
<path d="M361.865 754.382C365.325 759.332 368.775 764.292 372.235 769.242C372.755 769.982 373.975 769.282 373.455 768.532C369.995 763.582 366.545 758.622 363.085 753.672C362.575 752.932 361.345 753.632 361.865 754.382Z" fill="#FEF383"/>
<path d="M372.925 768.362C366.695 763.542 360.285 758.982 353.685 754.692C352.915 754.192 352.215 755.422 352.975 755.912C359.475 760.142 365.795 764.622 371.935 769.362C372.645 769.912 373.645 768.922 372.925 768.362Z" fill="#FEF383"/>
<path d="M565.174 847.952C567.054 831.842 559.654 815.602 548.264 804.062C536.874 792.522 521.864 785.182 506.504 780.002C500.944 778.132 495.244 776.482 490.184 773.502C480.804 767.982 474.514 758.322 470.524 748.202C467.514 740.562 466.864 729.652 474.364 726.312C479.604 723.982 486.054 727.462 488.594 732.602C491.124 737.742 490.554 743.892 488.984 749.402C484.584 764.852 472.954 777.522 459.294 785.962C445.624 794.402 429.974 799.052 414.314 802.652C403.754 805.082 392.934 807.092 382.144 806.142C371.354 805.192 360.474 800.972 353.444 792.722C352.074 791.112 350.794 789.112 351.184 787.032C351.494 785.352 352.804 784.072 354.054 782.912C358.584 778.682 363.124 774.442 367.654 770.212" stroke="#FEF383" stroke-width="1.5" stroke-miterlimit="10" stroke-linecap="round" stroke-dasharray="9.74 9.74"/>
<path d="M29.2495 781.274C28.1832 780.601 27.3798 779.376 27.1 777.906C26.9457 777.097 27.0114 776.219 27.3539 775.493C27.4674 775.305 27.5829 775.122 27.7004 774.937C27.6476 775.02 27.5948 775.103 27.4873 775.273C27.5958 774.812 27.8716 774.583 28.1952 774.442C28.1723 774.445 28.1792 774.429 28.2599 774.369C29.0394 773.752 30.0191 773.859 30.8056 774.369C31.9695 775.123 32.6027 776.155 33.0228 777.673C33.7964 780.475 31.1003 782.443 29.2495 781.274ZM39.4335 769.981C38.3692 768.423 37.5976 767.509 35.921 767.342C35.1882 767.269 34.6904 768.134 34.6367 768.935C34.4953 771.048 35.3605 772.21 36.4059 773.738C38.192 776.35 41.2066 772.575 39.4335 769.981ZM47.4769 784.887C47.0239 784.072 46.8228 783.241 46.1418 782.653C45.6181 782.201 45.1293 782.184 44.5289 782.04C44.2512 781.974 43.8898 782.009 43.6956 782.314C43.1072 783.241 42.7618 784.127 43.0256 785.343C43.3651 786.904 44.4224 787.48 45.5435 788.009C46.9144 788.658 48.2973 786.364 47.4769 784.887ZM54.6223 769.841C54.0538 768.473 53.2484 767.234 52.5345 765.977C51.6903 764.49 49.4313 765.329 49.9918 767.308C50.4508 768.926 50.846 770.595 51.4802 772.122C52.5545 774.706 55.6956 772.423 54.6223 769.841ZM46.3907 765.299C45.6719 764.712 44.9531 764.125 44.2352 763.539C43.1859 762.683 42.1425 764.55 42.938 765.625C43.5264 766.421 44.1158 767.217 44.7042 768.011C46.0233 769.792 48.143 766.729 46.3907 765.299ZM24.3163 799.728C23.712 798.109 22.6308 797.305 21.5107 796.244C20.5102 795.297 18.9909 797.183 19.7535 798.426C20.6167 799.832 21.2459 801.153 22.5601 801.909C23.7528 802.596 24.8699 801.213 24.3163 799.728ZM24.836 785.865L23.8305 784.201C22.6875 782.309 20.085 784.16 21.2429 786.078L22.2485 787.743C23.3914 789.636 25.9949 787.783 24.836 785.865ZM37.7429 795.8C36.4427 794.499 35.1434 793.2 33.8442 791.899C32.7311 790.786 30.6394 792.274 31.6599 793.992C32.6236 795.614 33.5863 797.235 34.5501 798.858C36.4108 801.993 39.8895 797.947 37.7429 795.8ZM51.8506 804.496C51.1278 803.59 50.405 802.685 49.6822 801.779C48.6069 800.433 46.5261 802.262 47.4978 803.872L49.3307 806.91C50.7345 809.24 53.4714 806.525 51.8506 804.496ZM59.8671 795.716C59.2867 794.153 58.1188 793.24 57.0705 792.185C55.1858 790.291 52.5067 793.408 54.3465 795.567C55.4626 796.878 56.4273 798.266 57.9337 798.838C59.4818 799.426 60.4535 797.296 59.8671 795.716ZM59.1373 783.291C58.7122 781.813 58.1388 780.586 57.3293 779.384C55.827 777.15 53.2653 780.36 54.7567 782.577C55.144 783.154 55.4267 783.788 55.6289 784.493C56.4104 787.212 59.9269 786.04 59.1373 783.291ZM39.9134 785.62C39.2692 784.895 38.6241 784.17 37.9799 783.445C36.3939 781.66 34.4276 784.711 36.1649 786.367C36.8529 787.022 37.5408 787.678 38.2278 788.333C39.4803 789.527 41.0742 786.926 39.9134 785.62ZM70.4244 771.861C69.2058 770.461 67.9862 769.062 66.7676 767.661C65.4544 766.152 63.4831 768.59 64.8003 770.104C66.0189 771.503 67.2375 772.903 68.4561 774.304C69.7703 775.812 71.7426 773.376 70.4244 771.861ZM60.2604 763.468C59.8641 762.82 59.4669 762.171 59.0706 761.522C58.1597 760.032 56.3955 761.262 57.0376 762.997C57.3114 763.734 57.5842 764.473 57.858 765.211C58.6146 767.256 61.3426 765.239 60.2604 763.468ZM52.1711 760L50.4916 758.343C49.3178 757.184 47.6412 759.239 48.8269 760.409L50.5065 762.066C51.6813 763.225 53.3579 761.17 52.1711 760ZM66.2907 780.94C65.763 779.948 65.2354 778.954 64.7077 777.962C63.6285 775.931 60.9672 777.983 62.1201 779.839C62.7095 780.787 63.2989 781.736 63.8873 782.684C64.9467 784.387 67.3042 782.847 66.2907 780.94ZM49.2769 776.485C48.9165 775.962 48.5561 775.438 48.1957 774.915C47.6452 774.116 46.554 775.16 47.0199 776.042C47.3246 776.619 47.6282 777.196 47.9329 777.774C48.6029 779.044 50.0923 777.67 49.2769 776.485ZM15.786 812.078C15.1698 810.382 13.9571 809.6 12.5523 809.126C10.9544 808.588 9.84731 811.552 11.3975 812.526C12.2517 813.063 12.9566 813.93 13.7361 814.622C15.0901 815.823 16.3296 813.574 15.786 812.078ZM11.7937 796.815L10.7881 795.567C9.52075 793.993 7.55246 796.436 8.82085 798.01L9.8264 799.257C11.0938 800.831 13.0621 798.39 11.7937 796.815ZM17.1869 786.899C16.6761 785.951 16.258 785.737 15.3928 785.363C14.7934 785.104 14.1314 785.926 14.3394 786.67C14.6361 787.728 14.8064 788.259 15.576 788.897C16.5447 789.702 17.835 788.102 17.1869 786.899ZM23.7797 775.693C23.0848 774.893 22.3888 774.092 21.6939 773.291C20.5808 772.011 18.9968 773.976 20.0293 775.358L21.9637 777.948C23.0907 779.455 24.9953 777.092 23.7797 775.693ZM31.9516 767.218C31.393 766.662 30.8355 766.108 30.277 765.552C28.7866 764.07 26.653 766.684 28.1583 768.183C28.7159 768.739 29.2744 769.293 29.8329 769.849C31.3233 771.331 33.4569 768.715 31.9516 767.218ZM36.8987 811.658C36.4825 810.943 36.0664 810.226 35.6512 809.511C34.2992 807.186 31.5822 809.756 33.1303 811.927C33.6023 812.589 34.0742 813.251 34.5461 813.913C35.6562 815.47 37.9012 813.383 36.8987 811.658ZM30.5896 801.351L28.9897 799.177C28.0588 797.912 26.4569 799.9 27.4763 801.055C28.0598 801.717 28.6432 802.38 29.2276 803.042C30.1446 804.082 31.4279 802.49 30.5896 801.351ZM28.0608 816.972C27.4156 815.97 26.7715 814.967 26.1263 813.966C25.1118 812.389 23.1744 814.686 24.3104 816.221L26.3961 819.038C27.4425 820.452 28.9837 818.406 28.0608 816.972ZM19.7595 805.229L19.0894 804.398C17.9196 802.945 16.1026 805.198 17.2735 806.653L17.9435 807.484C19.1133 808.937 20.9303 806.682 19.7595 805.229ZM17.7026 828.571C16.6841 827.481 15.6666 826.389 14.6481 825.299C13.091 823.631 10.811 826.437 12.3781 828.117C13.3966 829.207 14.4151 830.297 15.4326 831.388C16.9897 833.057 19.2706 830.25 17.7026 828.571ZM10.7344 818.823L8.72428 817.159C7.45987 816.113 6.28009 818.642 7.53653 819.682L9.54664 821.346C10.8101 822.393 11.9898 819.863 10.7344 818.823ZM26.4817 827.143L23.8016 824.647C22.589 823.518 21.4142 826.054 22.6139 827.17L25.294 829.666C26.5066 830.796 27.6804 828.259 26.4817 827.143ZM45.2239 813.549C44.6653 812.856 44.1068 812.162 43.5483 811.469C42.3785 810.016 40.5615 812.271 41.7323 813.724L43.4079 815.804C44.5787 817.256 46.3947 815.003 45.2239 813.549ZM45.3772 803.789C44.6982 803.111 43.8957 802.292 43.395 801.402C42.6005 799.991 40.6152 800.797 41.0473 802.631C41.4824 804.476 42.1833 805.79 43.5612 806.711C44.9859 807.662 46.7601 805.17 45.3772 803.789ZM49.9679 796.429C49.2092 795.43 48.4496 794.43 47.691 793.431C46.3648 791.685 44.1596 794.426 45.5723 796.061C46.3817 796.998 47.1912 797.935 48.0006 798.871C49.3108 800.387 51.1994 798.05 49.9679 796.429ZM64.426 812.161C63.7181 811.121 62.8449 810.224 62.0455 809.293C60.112 807.041 57.5653 811.183 59.8412 812.841C60.79 813.533 61.7339 814.322 62.7404 814.874C64.179 815.663 65.4843 813.715 64.426 812.161ZM75.941 794.132L74.9355 792.884C73.4729 791.068 71.202 793.885 72.6655 795.702L73.6711 796.951C75.1346 798.766 77.4046 795.948 75.941 794.132ZM70.4284 801.652C69.6648 800.921 68.9012 800.189 68.1375 799.458C66.7507 798.129 65.2125 801.195 66.7337 802.44C67.5332 803.095 68.3337 803.751 69.1331 804.405C70.5489 805.565 71.6968 802.866 70.4284 801.652ZM67.6387 788.689C67.4327 788.515 67.2256 788.342 67.0195 788.167C64.9228 786.401 62.9764 791.245 65.6177 792.295C65.8516 792.388 66.0856 792.482 66.3196 792.575C68.252 793.342 69.1779 789.986 67.6387 788.689ZM84.771 785.686L83.4309 784.437C81.5572 782.693 79.7422 786.613 81.595 788.338L82.9351 789.585C84.8088 791.331 86.6248 787.411 84.771 785.686ZM75.8982 782.121L75.2282 781.289C74.2535 780.078 72.7392 781.957 73.7149 783.168L74.3849 784.001C75.3606 785.211 76.8739 783.332 75.8982 782.121ZM81.5074 773.296C79.5789 773.296 79.576 777.016 81.5074 777.016C83.4359 777.016 83.4389 773.296 81.5074 773.296ZM66.0946 759.401C64.8551 759.401 64.8531 761.792 66.0946 761.792C67.3341 761.793 67.3361 759.401 66.0946 759.401ZM77.6166 765.011L76.9466 764.18C75.484 762.364 73.2131 765.181 74.6766 766.998L75.3467 767.83C76.8102 769.646 79.0801 766.828 77.6166 765.011ZM74.5581 770.057L72.8826 767.976C71.9079 766.766 70.3936 768.645 71.3692 769.855L73.0448 771.935C74.0195 773.147 75.5338 771.268 74.5581 770.057ZM87.1276 822.567C85.5824 821.141 84.0362 819.717 82.4911 818.291C81.1779 817.08 79.8259 819.876 81.1948 821.044C82.7768 822.393 84.3578 823.741 85.9398 825.09C87.2062 826.17 88.3203 823.667 87.1276 822.567ZM69.4458 826.828C67.3799 826.828 67.3769 830.814 69.4458 830.814C71.5116 830.813 71.5146 826.828 69.4458 826.828ZM56.9231 825.706C56.0649 824.937 55.2057 824.17 54.3475 823.403C52.3523 821.62 50.1829 826.066 52.4031 827.533C53.334 828.148 54.2639 828.763 55.1948 829.378C57.174 830.683 58.6893 827.284 56.9231 825.706ZM75.7907 824.272C74.5014 822.961 73.2111 821.651 71.9218 820.339C70.1337 818.522 68.0529 821.831 69.9764 823.469C71.3533 824.641 72.7292 825.811 74.1051 826.983C75.3925 828.081 77.0183 825.519 75.7907 824.272ZM72.2822 840.378C71.5176 839.786 70.754 839.194 69.9893 838.603C68.1087 837.148 66.3076 841.016 68.261 842.273C69.0615 842.788 69.8619 843.303 70.6624 843.819C72.4933 844.998 74.0434 841.741 72.2822 840.378ZM62.16 820.142L61.1544 819.311C59.5455 817.979 58.0442 821.199 59.6421 822.522L60.6477 823.354C62.2565 824.686 63.7589 821.466 62.16 820.142ZM50.401 840.818C49.5836 840.031 48.7652 839.244 47.9478 838.456C45.7744 836.364 43.4895 840.626 45.7436 842.002C46.6914 842.581 47.6382 843.159 48.586 843.739C50.0017 844.604 51.8307 842.193 50.401 840.818ZM43.6458 825.164C41.58 825.164 41.577 829.15 43.6458 829.15C45.7117 829.15 45.7147 825.164 43.6458 825.164ZM57.7883 815.008C56.3517 813.138 54.6751 811.645 52.7735 810.591C51.0272 809.625 49.5019 812.829 51.2612 813.804C52.9477 814.738 54.3943 815.979 55.6697 817.639C57.0038 819.374 59.1194 816.74 57.7883 815.008ZM39.55 831.303C38.862 830.926 38.173 830.547 37.4851 830.17C36.2565 829.495 35.1753 831.607 36.4049 832.464C37.057 832.918 37.7091 833.372 38.3612 833.826C39.7093 834.766 40.907 832.048 39.55 831.303ZM38.6499 822.966C37.6524 821.846 36.6558 820.725 35.6582 819.605C34.6387 818.461 33.1204 820.334 34.1449 821.484C35.1424 822.604 36.139 823.724 37.1366 824.845C38.1561 825.991 39.6744 824.117 38.6499 822.966ZM38.6738 846.642C38.0546 845.886 37.4343 845.129 36.8151 844.373C35.0837 842.262 32.6674 845.902 34.7402 847.712C35.4461 848.33 36.152 848.946 36.8589 849.563C38.2676 850.795 39.8666 848.096 38.6738 846.642ZM34.5222 838.546C33.7197 836.484 32.1437 835.158 30.501 834.219C29.149 833.445 27.9542 835.847 29.3132 836.742C30.6722 837.638 31.6748 838.947 32.8416 840.156C33.7775 841.127 35.0638 839.938 34.5222 838.546ZM25.9421 844.561C25.074 843.42 24.2058 842.281 23.3377 841.14C21.9159 839.272 19.5633 842.192 21.0677 843.958C21.9866 845.035 22.9046 846.113 23.8235 847.192C25.2263 848.839 27.2693 846.305 25.9421 844.561ZM17.7653 840.63C17.4915 840.031 17.2187 839.431 16.9449 838.832C16.0389 836.846 13.6017 839.071 14.9278 840.764C15.3131 841.256 15.6984 841.747 16.0847 842.24C16.9389 843.33 18.3627 841.938 17.7653 840.63ZM25.3129 836.759C24.7843 835.767 24.2556 834.774 23.7279 833.782C22.6328 831.726 20.2981 833.876 21.5436 835.874C22.128 836.812 22.7124 837.752 23.2968 838.69C24.1849 840.119 26.1124 838.261 25.3129 836.759ZM11.3069 834.457L10.6368 833.21C9.95284 831.935 8.28323 833.132 8.97417 834.417L9.64421 835.664C10.3282 836.939 11.9968 835.743 11.3069 834.457ZM22.5481 858.759C21.3694 857.31 20.1916 855.861 19.0138 854.412C17.9226 853.07 16.1982 855.288 17.3491 856.478C18.6285 857.802 19.9068 859.127 21.1862 860.451C22.123 861.42 23.4442 859.862 22.5481 858.759ZM16.026 849.802C15.3559 849.108 14.6869 848.414 14.0169 847.721C13.2811 846.958 12.2168 848.268 12.9576 849.036C13.6276 849.73 14.2966 850.425 14.9667 851.118C15.7024 851.879 16.7677 850.569 16.026 849.802ZM29.9942 857.003C29.0992 855.67 28.0418 854.601 26.8183 853.765C25.4792 852.849 24.2765 855.481 25.6305 856.289C26.7297 856.945 27.6496 857.774 28.4809 858.882C29.4337 860.151 30.8614 858.296 29.9942 857.003ZM31.9326 869.156C30.6145 867.497 29.1171 866.144 27.4315 865.12C26.1851 864.362 25.1078 866.733 26.3513 867.414C27.9224 868.274 29.3172 869.389 30.5717 870.848C31.4747 871.897 32.8068 870.256 31.9326 869.156ZM43.2138 858.894L41.5382 857.229C40.2598 855.96 38.4319 858.202 39.7222 859.484L41.3978 861.147C42.6761 862.418 44.505 860.176 43.2138 858.894ZM43.148 870.595C41.2475 869.349 39.3469 868.103 37.4463 866.857C36.3531 866.141 35.3933 868.155 36.4746 868.922C38.3393 870.245 40.2041 871.567 42.0688 872.89C43.2685 873.741 44.3647 871.392 43.148 870.595ZM33.671 851.194C33.3613 850.886 33.0507 850.577 32.7411 850.269C31.3791 848.912 29.8548 851.575 31.3144 852.564C31.6678 852.803 32.0203 853.042 32.3737 853.281C33.3912 853.97 34.6576 852.177 33.671 851.194ZM53.5142 856.909C52.5455 856.001 51.5758 855.092 50.6071 854.183C49.4223 853.073 48.0812 855.736 49.4193 856.707C50.4607 857.463 51.5021 858.218 52.5425 858.974C53.6416 859.772 54.476 857.811 53.5142 856.909ZM59.6531 870.823L55.9674 867.911C54.685 866.898 53.5033 869.427 54.7786 870.435C56.0072 871.406 57.2357 872.376 58.4643 873.346C59.7466 874.36 60.9294 871.832 59.6531 870.823ZM53.8487 874.381L49.1575 871.885C48.0305 871.286 47.0478 873.345 48.1858 873.95L52.876 876.446C54.004 877.045 54.9857 874.986 53.8487 874.381ZM48.6726 862.021C47.2957 862.021 47.2927 864.678 48.6726 864.678C50.0495 864.678 50.0515 862.021 48.6726 862.021ZM45.861 847.226L44.1855 845.977C43.0017 845.095 41.9245 847.392 43.1052 848.271L44.7798 849.519C45.9656 850.402 47.0428 848.106 45.861 847.226ZM61.7398 852.453C60.3629 852.453 60.3599 855.11 61.7398 855.11C63.1167 855.11 63.1187 852.453 61.7398 852.453ZM55.818 837.417C54.5387 836.093 53.2603 834.769 51.981 833.445C51.1487 832.584 49.9739 833.969 50.7703 834.949C51.9481 836.398 53.1259 837.848 54.3047 839.297C55.2963 840.517 56.8634 838.5 55.818 837.417ZM62.7494 844.205C61.7548 842.626 60.562 841.366 59.1622 840.369C58.2015 839.686 57.3711 841.471 58.2981 842.204C59.4629 843.126 60.4376 844.253 61.2371 845.653C62.0345 847.051 63.6135 845.577 62.7494 844.205ZM58.2602 850.551C56.6961 849.303 55.133 848.055 53.569 846.806C52.4071 845.879 51.3329 848.179 52.4887 849.1L57.179 852.845C58.3419 853.772 59.4161 851.474 58.2602 850.551ZM64.5056 835.786C63.5588 834.525 62.4736 833.524 61.2211 832.778C60.118 832.12 59.1503 834.091 60.2484 834.844C61.3247 835.58 62.2058 836.496 62.9913 837.666C63.8644 838.966 65.4534 837.05 64.5056 835.786ZM75.1734 856.45C74.1012 855.804 73.1384 855.032 72.2553 854.036C70.5578 852.121 68.4093 855.449 70.3099 857.165C71.4808 858.222 72.7402 859.002 74.1012 859.605C75.5747 860.26 76.5931 857.305 75.1734 856.45ZM64.9277 861.886C63.735 860.592 62.4487 859.546 60.9882 858.776C59.6093 858.05 58.4086 860.567 59.8004 861.301C61.0708 861.97 62.2237 862.824 63.2641 863.954C64.3991 865.185 66.0707 863.126 64.9277 861.886ZM60.0702 865.422C58.7789 864.117 57.3791 863.433 55.7075 863.381C54.467 863.343 54.468 865.733 55.7075 865.772C56.8305 865.808 57.8291 866.223 58.7082 867.112C59.662 868.076 61.033 866.394 60.0702 865.422ZM70.1218 873.876C68.6662 873.532 67.3192 872.955 66.0189 872.072C64.6888 871.167 63.5339 873.616 64.8302 874.596C66.2678 875.681 67.801 876.469 69.4388 876.951C71.0586 877.429 71.7326 874.256 70.1218 873.876ZM76.8082 869.344C75.4691 868.645 74.131 867.947 72.7929 867.248C71.2717 866.454 70.6076 869.539 72.11 870.322C73.4491 871.021 74.7871 871.72 76.1252 872.418C77.6465 873.213 78.3115 870.129 76.8082 869.344ZM73.1743 864.21L70.8286 862.546C69.9903 861.952 69.2347 863.558 70.072 864.152L72.4176 865.815C73.2569 866.41 74.0126 864.804 73.1743 864.21ZM86.3958 866.639C85.0219 866.382 83.7953 865.831 82.6155 864.915C81.6796 864.189 80.7876 866.084 81.7513 866.751C83.1541 867.722 84.5987 868.268 86.1957 868.466C87.028 868.57 87.2311 866.795 86.3958 866.639ZM81.6587 852.749C80.5596 851.877 79.4605 851.007 78.3623 850.137C77.2005 849.218 76.0794 851.59 77.2821 852.432C78.4171 853.226 79.5521 854.019 80.687 854.813C81.7722 855.572 82.7021 853.574 81.6587 852.749ZM70.9411 847.348C69.7205 845.966 68.3347 845.024 66.7208 844.561C65.3817 844.178 64.8212 846.654 66.1523 847.123C67.3769 847.555 68.3795 848.292 69.2765 849.415C70.3488 850.756 72.0592 848.614 70.9411 847.348ZM86.4834 838.355C85.2538 837.8 84.1109 837.026 83.0864 836.013C81.6348 834.579 79.9732 837.257 81.5303 838.516C82.8863 839.614 84.3479 840.41 85.9149 840.917C87.265 841.355 87.7618 838.935 86.4834 838.355ZM74.9166 812.07C74.0245 811.375 73.1315 810.679 72.2394 809.984C71.3035 809.255 70.4433 811.093 71.3752 811.819C72.2673 812.514 73.1603 813.21 74.0524 813.905C74.9882 814.634 75.8484 812.797 74.9166 812.07ZM80.481 805.397C79.7173 804.804 78.9527 804.211 78.1891 803.618C76.6628 802.434 75.1983 805.576 76.7853 806.601C77.5848 807.117 78.3852 807.634 79.1847 808.15C80.6492 809.095 81.8877 806.489 80.481 805.397ZM88.4049 802.316C87.0469 801.385 85.6879 800.452 84.3299 799.52C83.2427 798.775 82.3009 800.778 83.3572 801.585C84.6794 802.594 86.0025 803.602 87.3247 804.611C88.5015 805.508 89.6116 803.144 88.4049 802.316ZM92.8353 783.973L91.1597 781.893C90.3802 780.924 89.1685 782.428 89.9491 783.397L91.6237 785.477C92.4052 786.445 93.6159 784.942 92.8353 783.973ZM90.1133 776.12C89.1894 775.049 88.2655 773.977 87.3416 772.905C86.7383 772.205 85.8602 773.289 86.4336 774.033C87.3068 775.167 88.1809 776.301 89.054 777.436C89.7221 778.303 90.8182 776.938 90.1133 776.12ZM97.4419 799.251C96.5041 797.347 95.2277 795.846 93.6099 794.861C92.008 793.885 90.5962 796.864 92.2061 797.843C93.4098 798.576 94.3397 799.572 95.0406 800.995C95.9724 802.888 98.3798 801.156 97.4419 799.251ZM98.5242 808.104C97.5694 806.841 96.3796 805.986 95.0127 805.627C92.9807 805.093 92.2141 808.614 94.1595 809.47C94.7658 809.738 95.2905 810.188 95.6678 810.841C97.201 813.502 100.326 810.487 98.5242 808.104ZM96.5997 818.808L92.896 815.091C91.5162 813.705 89.5359 816.134 90.9287 817.534L94.6324 821.251C96.0133 822.637 97.9935 820.207 96.5997 818.808ZM97.2528 838.719C96.6216 837.31 95.2835 836.411 94.27 835.434C93.3032 834.501 91.9303 836.181 92.908 837.124C93.9842 838.162 95.0704 839.649 96.4075 840.084C97.0457 840.295 97.5704 839.428 97.2528 838.719ZM97.659 828.909L95.3373 826.789C93.7821 825.369 92.2867 828.595 93.8249 830.001C94.5985 830.708 95.3731 831.414 96.1467 832.121C97.7018 833.54 99.1982 830.313 97.659 828.909ZM84.7819 828.391L81.7663 826.311C80.4411 825.397 79.2524 827.92 80.5775 828.836L83.5932 830.916C84.9203 831.829 86.1081 829.306 84.7819 828.391ZM87.6841 847.038C86.6726 846.679 85.8213 846.117 85.0278 845.253C84.0482 844.189 82.4911 845.525 83.179 847.024C83.9616 848.728 84.994 850.042 86.2833 851.165C88.3661 852.981 90.3573 847.986 87.6841 847.038ZM95.2865 847.151C94.5796 845.852 93.3162 845.408 92.2957 844.533C91.5271 843.873 90.4051 845.21 90.9775 846.169C91.8467 847.625 92.7318 849.183 94.27 849.35C95.1411 849.446 95.7654 848.03 95.2865 847.151ZM77.4553 836.351L73.9787 832.773C72.7272 831.484 70.9242 833.625 72.1627 835.028C73.2708 836.283 74.3799 837.539 75.488 838.794C76.8211 840.303 78.8203 837.757 77.4553 836.351ZM90.0068 857.192C89.3099 856.9 88.613 856.609 87.9151 856.317C86.4565 855.707 85.7994 858.252 86.9255 859.232C87.5397 859.766 88.155 860.301 88.7693 860.834C90.5783 862.407 92.3485 858.171 90.0068 857.192ZM100.267 833.367C98.6745 833.153 98.4316 836.244 99.8981 836.76C100.83 837.088 101.357 838.04 102.285 838.351C103.323 838.698 104.256 837.499 103.996 836.226C103.584 834.207 101.756 833.566 100.267 833.367ZM104.295 821.56C103.568 821.125 102.841 820.69 102.114 820.256C101.092 819.645 99.8384 821.288 100.818 822.343C101.415 822.986 102.013 823.629 102.61 824.272C104.208 825.996 106.032 822.6 104.295 821.56ZM102.487 804.378L101.147 803.129C100.044 802.104 98.9762 804.409 100.066 805.424L101.406 806.671C102.509 807.698 103.577 805.393 102.487 804.378Z" fill="#FFFF00"/>
</svg>
